<svg width="18" height="18" viewBox="0 0 18 18" fill="none" xmlns="http://www.w3.org/2000/svg">
<g clip-path="url(#clip0_76_506)">
<path d="M11.949 1.24814C11.691 0.518389 10.6013 0.661639 10.5045 1.41689C10.3695 2.62814 9.867 3.74939 7.125 3.74939H3C1.3455 3.75014 0 5.09564 0 6.75014V8.25014C0 9.39689 0.654 10.3831 1.60125 10.8879L3.807 15.8581C4.182 16.7034 5.02125 17.2494 5.94675 17.2494C6.73875 17.2494 7.47075 16.8541 7.90425 16.1911C8.33775 15.5281 8.40825 14.7001 8.09175 13.9734L6.90525 11.2486H7.12425C9.86625 11.2486 10.3688 12.3699 10.5038 13.5811C10.6215 14.4924 11.9768 14.4114 11.9993 13.4986V1.50014C11.9835 1.41614 11.9723 1.33064 11.9483 1.24814H11.949ZM6.717 14.5734C6.8325 14.8381 6.80775 15.1284 6.6495 15.3699C6.3105 15.8896 5.43075 15.8184 5.17875 15.2499L3.4035 11.2501H5.2695L6.717 14.5734ZM7.125 9.74939H3C2.17275 9.74939 1.5 9.07664 1.5 8.24939V6.74939C1.5 5.92214 2.17275 5.24939 3 5.24939H7.125C8.56725 5.24939 9.69075 4.95164 10.5 4.36964V10.6299C9.69075 10.0479 8.56725 9.75014 7.125 9.75014V9.74939ZM16.2428 11.7421C16.0965 11.8884 15.9045 11.9619 15.7125 11.9619C15.5205 11.9619 15.3285 11.8884 15.1823 11.7421C14.889 11.4489 14.889 10.9749 15.1823 10.6816C16.9365 8.92739 16.9365 6.07214 15.1823 4.31789C14.889 4.02464 14.889 3.55064 15.1823 3.25739C15.4755 2.96414 15.9495 2.96414 16.2428 3.25739C18.582 5.59664 18.582 9.40289 16.2428 11.7421ZM14.0378 9.84014C13.8915 9.98639 13.6995 10.0599 13.5075 10.0599C13.3155 10.0599 13.1235 9.98639 12.9773 9.84014C12.684 9.54689 12.684 9.07289 12.9773 8.77964C13.683 8.07389 13.683 6.92489 12.9773 6.21914C12.684 5.92589 12.684 5.45189 12.9773 5.15864C13.2705 4.86539 13.7445 4.86539 14.0378 5.15864C15.3285 6.44939 15.3285 8.54939 14.0378 9.84014Z" fill="black"/>
</g>
<defs>
<clipPath id="clip0_76_506">
<rect width="18" height="18" fill="white"/>
</clipPath>
</defs>
</svg>
