<svg width="18" height="18" viewBox="0 0 18 18" fill="none" xmlns="http://www.w3.org/2000/svg">
<path d="M3.96691 11.0936C4.03663 11.1639 4.11958 11.2197 4.21097 11.2577C4.30237 11.2958 4.4004 11.3154 4.49941 11.3154C4.59841 11.3154 4.69644 11.2958 4.78784 11.2577C4.87923 11.2197 4.96218 11.1639 5.03191 11.0936L8.46691 7.65858C8.53663 7.58828 8.61958 7.53249 8.71097 7.49441C8.80237 7.45634 8.9004 7.43673 8.99941 7.43673C9.09841 7.43673 9.19644 7.45634 9.28784 7.49441C9.37923 7.53249 9.46218 7.58828 9.53191 7.65858L12.9669 11.0936C13.0366 11.1639 13.1196 11.2197 13.211 11.2577C13.3024 11.2958 13.4004 11.3154 13.4994 11.3154C13.5984 11.3154 13.6964 11.2958 13.7878 11.2577C13.8792 11.2197 13.9622 11.1639 14.0319 11.0936C14.1716 10.9531 14.25 10.763 14.25 10.5648C14.25 10.3667 14.1716 10.1766 14.0319 10.0361L10.5894 6.59358C10.1675 6.17223 9.59566 5.93556 8.99941 5.93556C8.40315 5.93556 7.83128 6.17223 7.40941 6.59358L3.96691 10.0361C3.82722 10.1766 3.74881 10.3667 3.74881 10.5648C3.74881 10.763 3.82722 10.9531 3.96691 11.0936Z" fill="black"/>
</svg>
