<svg width="16" height="14" viewBox="0 0 16 14" fill="none" xmlns="http://www.w3.org/2000/svg">
<path d="M12.6667 0H3.33333C1.49533 0 0 1.49533 0 3.33333V10C0 11.838 1.49533 13.3333 3.33333 13.3333H12.6667C14.5047 13.3333 16 11.838 16 10V3.33333C16 1.49533 14.5047 0 12.6667 0ZM1.33333 5.33333H4V8H1.33333V5.33333ZM5.33333 5.33333H14.6667V8H5.33333V5.33333ZM14.6667 3.33333V4H5.33333V1.33333H12.6667C13.7693 1.33333 14.6667 2.23067 14.6667 3.33333ZM3.33333 1.33333H4V4H1.33333V3.33333C1.33333 2.23067 2.23067 1.33333 3.33333 1.33333ZM1.33333 10V9.33333H4V12H3.33333C2.23067 12 1.33333 11.1027 1.33333 10ZM12.6667 12H5.33333V9.33333H14.6667V10C14.6667 11.1027 13.7693 12 12.6667 12Z" fill="white"/>
</svg>
