<svg width="18" height="18" viewBox="0 0 18 18" fill="none" xmlns="http://www.w3.org/2000/svg">
<g clip-path="url(#clip0_76_328)">
<path d="M14.9921 16.849C14.7197 16.8483 14.4501 16.7982 14.199 16.7015C13.9479 16.6047 13.7201 16.4633 13.529 16.2855L9.00039 12.1591L4.4718 16.2882C4.18096 16.5586 3.80797 16.7425 3.40145 16.8158C2.99493 16.8891 2.57374 16.8485 2.19278 16.6992C1.80805 16.5574 1.47892 16.3125 1.24838 15.9966C1.01783 15.6806 0.896592 15.3083 0.900481 14.9282V4.02588C0.900481 3.1309 1.28838 2.27258 1.97885 1.63974C2.66931 1.0069 3.60579 0.651367 4.58226 0.651367L13.4185 0.651367C13.902 0.651367 14.3808 0.738651 14.8275 0.908237C15.2742 1.07782 15.68 1.32639 16.0219 1.63974C16.3638 1.95309 16.635 2.32509 16.82 2.73451C17.0051 3.14392 17.1003 3.58273 17.1003 4.02588V14.9282C17.1044 15.308 16.9836 15.6801 16.7536 15.996C16.5236 16.3119 16.1951 16.5569 15.8109 16.6992C15.5516 16.7986 15.2732 16.8495 14.9921 16.849ZM4.58226 2.00117C3.99638 2.00117 3.43449 2.21449 3.02021 2.59419C2.60593 2.9739 2.37319 3.48889 2.37319 4.02588V14.9282C2.37293 15.0407 2.40903 15.1507 2.47694 15.2444C2.54486 15.3381 2.64154 15.4112 2.75476 15.4545C2.86799 15.4978 2.99269 15.5094 3.11311 15.4878C3.23353 15.4663 3.34427 15.4124 3.43133 15.3332L8.48494 10.7297C8.6229 10.604 8.80953 10.5334 9.00407 10.5334C9.1986 10.5334 9.38523 10.604 9.5232 10.7297L14.5709 15.3318C14.658 15.4111 14.7687 15.4649 14.8891 15.4865C15.0096 15.5081 15.1343 15.4965 15.2475 15.4531C15.3607 15.4098 15.4574 15.3367 15.5253 15.243C15.5932 15.1494 15.6293 15.0394 15.6291 14.9269V4.02588C15.6291 3.48889 15.3963 2.9739 14.982 2.59419C14.5678 2.21449 14.0059 2.00117 13.42 2.00117H4.58226Z" fill="black"/>
</g>
<defs>
<clipPath id="clip0_76_328">
<rect width="18" height="18" fill="white"/>
</clipPath>
</defs>
</svg>
