<svg width="624" height="231" viewBox="0 0 624 231" fill="none" xmlns="http://www.w3.org/2000/svg">
<path d="M320.364 1C320.364 0.447715 319.916 0 319.364 0C318.811 0 318.364 0.447715 318.364 1H320.364ZM318.364 77.9297C318.364 78.482 318.811 78.9297 319.364 78.9297C319.916 78.9297 320.364 78.482 320.364 77.9297H318.364ZM320.364 112.055C320.364 111.502 319.916 111.055 319.364 111.055C318.811 111.055 318.364 111.502 318.364 112.055H320.364ZM197.989 177.501C197.436 177.501 196.989 177.949 196.989 178.501C196.989 179.054 197.436 179.501 197.989 179.501V177.501ZM128.739 179.501C129.291 179.501 129.739 179.054 129.739 178.501C129.739 177.949 129.291 177.501 128.739 177.501V179.501ZM6.65666 230.707C7.04719 231.098 7.68035 231.098 8.07088 230.707L14.4348 224.343C14.8254 223.953 14.8254 223.319 14.4348 222.929C14.0443 222.538 13.4111 222.538 13.0206 222.929L7.36377 228.586L1.70692 222.929C1.31639 222.538 0.683226 222.538 0.292702 222.929C-0.0978227 223.319 -0.0978227 223.953 0.292702 224.343L6.65666 230.707ZM318.364 1V77.9297H320.364V1H318.364ZM318.364 112.055V154.501H320.364V112.055H318.364ZM295.364 177.501H197.989V179.501H295.364V177.501ZM128.739 177.501H31.3638V179.501H128.739V177.501ZM6.36377 202.501V230H8.36377V202.501H6.36377ZM31.3638 177.501C17.5567 177.501 6.36377 188.694 6.36377 202.501H8.36377C8.36377 189.799 18.6612 179.501 31.3638 179.501V177.501ZM318.364 154.501C318.364 167.204 308.066 177.501 295.364 177.501V179.501C309.171 179.501 320.364 168.308 320.364 154.501H318.364Z" fill="#1DBF73"/>
<path d="M135.587 182.501V173.911H141.382V174.925H136.723V177.585H140.755V178.599H136.723V182.501H135.587ZM142.205 179.39C142.205 178.237 142.525 177.384 143.166 176.829C143.701 176.368 144.353 176.138 145.123 176.138C145.978 176.138 146.677 176.419 147.22 176.981C147.763 177.54 148.035 178.313 148.035 179.302C148.035 180.103 147.914 180.733 147.671 181.194C147.433 181.651 147.084 182.007 146.623 182.261C146.166 182.515 145.666 182.642 145.123 182.642C144.252 182.642 143.546 182.362 143.007 181.804C142.472 181.245 142.205 180.44 142.205 179.39ZM143.289 179.39C143.289 180.187 143.462 180.784 143.81 181.183C144.158 181.577 144.595 181.774 145.123 181.774C145.646 181.774 146.082 181.575 146.429 181.177C146.777 180.778 146.951 180.171 146.951 179.354C146.951 178.585 146.775 178.003 146.423 177.608C146.076 177.21 145.642 177.011 145.123 177.011C144.595 177.011 144.158 177.208 143.81 177.603C143.462 177.997 143.289 178.593 143.289 179.39ZM149.133 182.501V176.278H150.082V177.222C150.325 176.78 150.547 176.489 150.75 176.349C150.957 176.208 151.184 176.138 151.43 176.138C151.786 176.138 152.147 176.251 152.514 176.478L152.151 177.456C151.893 177.304 151.635 177.228 151.377 177.228C151.147 177.228 150.94 177.298 150.756 177.438C150.573 177.575 150.442 177.767 150.364 178.013C150.247 178.388 150.188 178.798 150.188 179.243V182.501H149.133ZM156.305 182.501V173.911H159.527C160.184 173.911 160.709 173.999 161.104 174.175C161.502 174.347 161.813 174.614 162.035 174.978C162.262 175.337 162.375 175.714 162.375 176.108C162.375 176.476 162.275 176.821 162.076 177.146C161.877 177.47 161.576 177.731 161.174 177.931C161.693 178.083 162.092 178.343 162.369 178.71C162.65 179.077 162.791 179.511 162.791 180.011C162.791 180.413 162.705 180.788 162.533 181.136C162.365 181.479 162.156 181.745 161.906 181.933C161.656 182.12 161.342 182.263 160.963 182.36C160.588 182.454 160.127 182.501 159.58 182.501H156.305ZM157.441 177.521H159.299C159.803 177.521 160.164 177.487 160.383 177.421C160.672 177.335 160.889 177.192 161.033 176.993C161.182 176.794 161.256 176.544 161.256 176.243C161.256 175.958 161.188 175.708 161.051 175.493C160.914 175.274 160.719 175.126 160.465 175.048C160.211 174.966 159.775 174.925 159.158 174.925H157.441V177.521ZM157.441 181.487H159.58C159.947 181.487 160.205 181.474 160.354 181.446C160.615 181.399 160.834 181.321 161.01 181.212C161.186 181.103 161.33 180.944 161.443 180.737C161.557 180.526 161.613 180.284 161.613 180.011C161.613 179.69 161.531 179.413 161.367 179.179C161.203 178.94 160.975 178.774 160.682 178.681C160.393 178.583 159.975 178.534 159.428 178.534H157.441V181.487ZM168.167 182.501V181.587C167.683 182.29 167.024 182.642 166.192 182.642C165.825 182.642 165.481 182.571 165.161 182.431C164.845 182.29 164.608 182.114 164.452 181.903C164.3 181.688 164.192 181.427 164.13 181.118C164.087 180.911 164.065 180.583 164.065 180.134V176.278H165.12V179.729C165.12 180.28 165.142 180.651 165.184 180.843C165.251 181.12 165.392 181.339 165.606 181.499C165.821 181.655 166.087 181.733 166.403 181.733C166.72 181.733 167.017 181.653 167.294 181.493C167.571 181.329 167.767 181.108 167.88 180.831C167.997 180.55 168.056 180.144 168.056 179.612V176.278H169.11V182.501H168.167ZM170.59 184.897L170.472 183.907C170.703 183.97 170.904 184.001 171.076 184.001C171.31 184.001 171.498 183.962 171.638 183.884C171.779 183.806 171.894 183.696 171.984 183.556C172.051 183.45 172.158 183.188 172.306 182.771C172.326 182.712 172.357 182.626 172.4 182.513L170.039 176.278H171.176L172.47 179.882C172.638 180.339 172.789 180.819 172.922 181.323C173.043 180.839 173.187 180.366 173.355 179.905L174.685 176.278H175.74L173.373 182.606C173.119 183.29 172.922 183.761 172.781 184.019C172.594 184.366 172.379 184.62 172.136 184.78C171.894 184.944 171.605 185.026 171.269 185.026C171.066 185.026 170.84 184.983 170.59 184.897ZM180.764 180.497L181.854 180.632C181.682 181.269 181.364 181.763 180.899 182.114C180.434 182.466 179.84 182.642 179.118 182.642C178.208 182.642 177.485 182.362 176.95 181.804C176.419 181.241 176.153 180.454 176.153 179.442C176.153 178.396 176.422 177.583 176.962 177.005C177.501 176.427 178.2 176.138 179.059 176.138C179.891 176.138 180.571 176.421 181.098 176.987C181.626 177.554 181.889 178.351 181.889 179.378C181.889 179.44 181.887 179.534 181.883 179.659H177.243C177.282 180.343 177.475 180.866 177.823 181.229C178.17 181.593 178.604 181.774 179.124 181.774C179.51 181.774 179.84 181.673 180.114 181.47C180.387 181.267 180.604 180.942 180.764 180.497ZM177.301 178.792H180.776C180.729 178.269 180.596 177.876 180.378 177.614C180.042 177.208 179.606 177.005 179.071 177.005C178.587 177.005 178.178 177.167 177.846 177.491C177.518 177.815 177.337 178.249 177.301 178.792ZM183.04 182.501V176.278H183.99V177.222C184.232 176.78 184.455 176.489 184.658 176.349C184.865 176.208 185.091 176.138 185.337 176.138C185.693 176.138 186.054 176.251 186.421 176.478L186.058 177.456C185.8 177.304 185.542 177.228 185.285 177.228C185.054 177.228 184.847 177.298 184.663 177.438C184.48 177.575 184.349 177.767 184.271 178.013C184.154 178.388 184.095 178.798 184.095 179.243V182.501H183.04ZM186.494 180.644L187.537 180.479C187.596 180.897 187.758 181.218 188.024 181.44C188.293 181.663 188.668 181.774 189.149 181.774C189.633 181.774 189.992 181.677 190.227 181.481C190.461 181.282 190.578 181.05 190.578 180.784C190.578 180.546 190.475 180.358 190.268 180.222C190.123 180.128 189.764 180.009 189.19 179.864C188.416 179.669 187.879 179.501 187.578 179.36C187.281 179.216 187.055 179.019 186.899 178.769C186.746 178.515 186.67 178.235 186.67 177.931C186.67 177.653 186.733 177.397 186.858 177.163C186.987 176.925 187.16 176.728 187.379 176.571C187.543 176.45 187.766 176.349 188.047 176.267C188.332 176.181 188.637 176.138 188.961 176.138C189.449 176.138 189.877 176.208 190.244 176.349C190.615 176.489 190.889 176.681 191.065 176.923C191.24 177.161 191.362 177.481 191.428 177.884L190.397 178.024C190.35 177.704 190.213 177.454 189.987 177.274C189.764 177.095 189.448 177.005 189.037 177.005C188.553 177.005 188.207 177.085 188 177.245C187.793 177.405 187.69 177.593 187.69 177.808C187.69 177.944 187.733 178.067 187.819 178.177C187.905 178.29 188.039 178.384 188.223 178.458C188.328 178.497 188.639 178.587 189.155 178.728C189.901 178.927 190.42 179.091 190.713 179.22C191.01 179.345 191.242 179.528 191.41 179.771C191.578 180.013 191.662 180.313 191.662 180.673C191.662 181.024 191.559 181.356 191.352 181.669C191.149 181.978 190.854 182.218 190.467 182.39C190.08 182.558 189.643 182.642 189.155 182.642C188.346 182.642 187.729 182.474 187.303 182.138C186.881 181.802 186.612 181.304 186.494 180.644Z" fill="black" fill-opacity="0.8"/>
<path d="M320.364 1C320.364 0.447715 319.916 0 319.364 0C318.811 0 318.364 0.447715 318.364 1H320.364ZM318.364 77.9297C318.364 78.482 318.811 78.9297 319.364 78.9297C319.916 78.9297 320.364 78.482 320.364 77.9297H318.364ZM320.364 112.055C320.364 111.502 319.916 111.055 319.364 111.055C318.811 111.055 318.364 111.502 318.364 112.055H320.364ZM428.551 177.497C429.103 177.497 429.551 177.05 429.551 176.497C429.551 175.945 429.103 175.497 428.551 175.497V177.497ZM496.801 175.497C496.248 175.497 495.801 175.945 495.801 176.497C495.801 177.05 496.248 177.497 496.801 177.497V175.497ZM615.657 230.707C616.047 231.098 616.68 231.098 617.071 230.707L623.435 224.343C623.825 223.953 623.825 223.319 623.435 222.929C623.044 222.538 622.411 222.538 622.021 222.929L616.364 228.586L610.707 222.929C610.316 222.538 609.683 222.538 609.293 222.929C608.902 223.319 608.902 223.953 609.293 224.343L615.657 230.707ZM318.364 1V77.9297H320.364V1H318.364ZM318.364 112.055V152.497H320.364V112.055H318.364ZM343.364 177.497H428.551V175.497H343.364V177.497ZM496.801 177.497H592.364V175.497H496.801V177.497ZM615.364 200.497V230H617.364V200.497H615.364ZM592.364 177.497C605.066 177.497 615.364 187.795 615.364 200.497H617.364C617.364 186.69 606.171 175.497 592.364 175.497V177.497ZM318.364 152.497C318.364 166.305 329.557 177.497 343.364 177.497V175.497C330.661 175.497 320.364 165.2 320.364 152.497H318.364Z" fill="#013913"/>
<path d="M277.254 99.4922V89.4707H279.277V93.9209L283.365 89.4707H286.086L282.312 93.374L286.291 99.4922H283.673L280.918 94.7891L279.277 96.4639V99.4922H277.254ZM291.38 97.1816L293.294 97.5029C293.048 98.2048 292.658 98.7402 292.125 99.1094C291.596 99.474 290.933 99.6562 290.136 99.6562C288.874 99.6562 287.939 99.2438 287.333 98.4189C286.855 97.7581 286.615 96.9242 286.615 95.917C286.615 94.7139 286.93 93.7728 287.559 93.0938C288.188 92.4102 288.983 92.0684 289.944 92.0684C291.025 92.0684 291.877 92.4261 292.501 93.1416C293.125 93.8525 293.424 94.944 293.397 96.416H288.584C288.598 96.9857 288.753 97.43 289.049 97.749C289.345 98.0635 289.714 98.2207 290.156 98.2207C290.457 98.2207 290.71 98.1387 290.915 97.9746C291.12 97.8105 291.275 97.5462 291.38 97.1816ZM291.489 95.2402C291.476 94.6842 291.332 94.2627 291.059 93.9756C290.785 93.6839 290.453 93.5381 290.061 93.5381C289.641 93.5381 289.295 93.6908 289.022 93.9961C288.748 94.3014 288.614 94.7161 288.618 95.2402H291.489ZM293.906 92.2324H295.95L297.686 97.3867L299.381 92.2324H301.371L298.807 99.2188L298.349 100.483C298.18 100.907 298.019 101.231 297.864 101.454C297.713 101.677 297.538 101.857 297.337 101.994C297.141 102.135 296.898 102.245 296.606 102.322C296.319 102.4 295.993 102.438 295.628 102.438C295.259 102.438 294.897 102.4 294.541 102.322L294.371 100.818C294.671 100.878 294.942 100.907 295.184 100.907C295.631 100.907 295.961 100.775 296.175 100.511C296.389 100.251 296.553 99.9183 296.667 99.5127L293.906 92.2324ZM306.224 99.4922V89.4707H313.094V91.166H308.247V93.5381H312.431V95.2334H308.247V99.4922H306.224ZM318.805 97.1816L320.719 97.5029C320.473 98.2048 320.083 98.7402 319.55 99.1094C319.021 99.474 318.358 99.6562 317.561 99.6562C316.299 99.6562 315.364 99.2438 314.758 98.4189C314.28 97.7581 314.04 96.9242 314.04 95.917C314.04 94.7139 314.355 93.7728 314.984 93.0938C315.613 92.4102 316.408 92.0684 317.369 92.0684C318.45 92.0684 319.302 92.4261 319.926 93.1416C320.55 93.8525 320.849 94.944 320.822 96.416H316.009C316.023 96.9857 316.178 97.43 316.474 97.749C316.77 98.0635 317.139 98.2207 317.581 98.2207C317.882 98.2207 318.135 98.1387 318.34 97.9746C318.545 97.8105 318.7 97.5462 318.805 97.1816ZM318.914 95.2402C318.901 94.6842 318.757 94.2627 318.484 93.9756C318.21 93.6839 317.878 93.5381 317.486 93.5381C317.066 93.5381 316.72 93.6908 316.447 93.9961C316.173 94.3014 316.039 94.7161 316.043 95.2402H318.914ZM323.675 94.4473L321.932 94.1328C322.128 93.431 322.465 92.9115 322.944 92.5742C323.423 92.237 324.133 92.0684 325.077 92.0684C325.934 92.0684 326.572 92.1709 326.991 92.376C327.41 92.5765 327.704 92.834 327.873 93.1484C328.046 93.4583 328.132 94.0303 328.132 94.8643L328.112 97.1064C328.112 97.7445 328.142 98.2161 328.201 98.5215C328.265 98.8223 328.381 99.1458 328.549 99.4922H326.649C326.599 99.3646 326.537 99.1755 326.465 98.9248C326.433 98.8109 326.41 98.7357 326.396 98.6992C326.068 99.0182 325.717 99.2575 325.343 99.417C324.97 99.5765 324.571 99.6562 324.147 99.6562C323.4 99.6562 322.81 99.4535 322.377 99.0479C321.948 98.6423 321.734 98.1296 321.734 97.5098C321.734 97.0996 321.832 96.735 322.028 96.416C322.224 96.0924 322.497 95.8464 322.848 95.6777C323.204 95.5046 323.714 95.3542 324.38 95.2266C325.277 95.0579 325.899 94.9007 326.246 94.7549V94.5635C326.246 94.1943 326.155 93.9323 325.972 93.7773C325.79 93.6178 325.446 93.5381 324.94 93.5381C324.598 93.5381 324.332 93.6064 324.14 93.7432C323.949 93.8753 323.794 94.11 323.675 94.4473ZM326.246 96.0059C326 96.0879 325.61 96.1859 325.077 96.2998C324.544 96.4137 324.195 96.5254 324.031 96.6348C323.78 96.8125 323.655 97.0381 323.655 97.3115C323.655 97.5804 323.755 97.8128 323.956 98.0088C324.156 98.2048 324.411 98.3027 324.721 98.3027C325.068 98.3027 325.398 98.1888 325.713 97.9609C325.945 97.7878 326.098 97.5758 326.171 97.3252C326.221 97.1611 326.246 96.849 326.246 96.3887V96.0059ZM333.208 92.2324V93.7637H331.895V96.6895C331.895 97.2819 331.907 97.6283 331.93 97.7285C331.957 97.8242 332.014 97.904 332.101 97.9678C332.192 98.0316 332.301 98.0635 332.429 98.0635C332.606 98.0635 332.864 98.002 333.201 97.8789L333.365 99.3691C332.919 99.5605 332.413 99.6562 331.848 99.6562C331.501 99.6562 331.189 99.5993 330.911 99.4854C330.633 99.3669 330.428 99.2165 330.296 99.0342C330.168 98.8473 330.079 98.5967 330.029 98.2822C329.988 98.0589 329.968 97.6077 329.968 96.9287V93.7637H329.086V92.2324H329.968V90.79L331.895 89.6689V92.2324H333.208ZM339.165 99.4922V98.4053C338.901 98.7926 338.552 99.098 338.119 99.3213C337.691 99.5446 337.238 99.6562 336.759 99.6562C336.271 99.6562 335.834 99.5492 335.447 99.335C335.059 99.1208 334.779 98.82 334.606 98.4326C334.433 98.0452 334.346 97.5098 334.346 96.8262V92.2324H336.267V95.5684C336.267 96.5892 336.301 97.2158 336.369 97.4482C336.442 97.6761 336.572 97.8584 336.759 97.9951C336.946 98.1273 337.183 98.1934 337.47 98.1934C337.798 98.1934 338.092 98.1045 338.352 97.9268C338.612 97.7445 338.789 97.5212 338.885 97.2568C338.981 96.988 339.029 96.334 339.029 95.2949V92.2324H340.949V99.4922H339.165ZM344.63 99.4922H342.71V92.2324H344.494V93.2646C344.799 92.777 345.072 92.4557 345.314 92.3008C345.56 92.1458 345.838 92.0684 346.148 92.0684C346.586 92.0684 347.007 92.1891 347.413 92.4307L346.818 94.1055C346.494 93.8958 346.194 93.791 345.916 93.791C345.647 93.791 345.419 93.8662 345.232 94.0166C345.045 94.1624 344.897 94.429 344.788 94.8164C344.683 95.2038 344.63 96.015 344.63 97.25V99.4922ZM352.297 97.1816L354.211 97.5029C353.965 98.2048 353.575 98.7402 353.042 99.1094C352.513 99.474 351.85 99.6562 351.053 99.6562C349.79 99.6562 348.856 99.2438 348.25 98.4189C347.771 97.7581 347.532 96.9242 347.532 95.917C347.532 94.7139 347.847 93.7728 348.475 93.0938C349.104 92.4102 349.9 92.0684 350.861 92.0684C351.941 92.0684 352.793 92.4261 353.418 93.1416C354.042 93.8525 354.341 94.944 354.313 96.416H349.501C349.515 96.9857 349.669 97.43 349.966 97.749C350.262 98.0635 350.631 98.2207 351.073 98.2207C351.374 98.2207 351.627 98.1387 351.832 97.9746C352.037 97.8105 352.192 97.5462 352.297 97.1816ZM352.406 95.2402C352.392 94.6842 352.249 94.2627 351.975 93.9756C351.702 93.6839 351.369 93.5381 350.977 93.5381C350.558 93.5381 350.212 93.6908 349.938 93.9961C349.665 94.3014 349.53 94.7161 349.535 95.2402H352.406ZM355.055 97.4209L356.983 97.127C357.065 97.5007 357.231 97.7855 357.482 97.9814C357.732 98.1729 358.083 98.2686 358.534 98.2686C359.031 98.2686 359.405 98.1774 359.655 97.9951C359.824 97.8675 359.908 97.6966 359.908 97.4824C359.908 97.3366 359.863 97.2158 359.772 97.1201C359.676 97.029 359.462 96.9447 359.129 96.8672C357.58 96.5254 356.597 96.2132 356.183 95.9307C355.609 95.5387 355.321 94.9941 355.321 94.2969C355.321 93.668 355.57 93.1393 356.067 92.7109C356.563 92.2826 357.334 92.0684 358.377 92.0684C359.371 92.0684 360.109 92.2301 360.592 92.5537C361.075 92.8773 361.408 93.3558 361.59 93.9893L359.778 94.3242C359.701 94.0417 359.553 93.8252 359.334 93.6748C359.12 93.5244 358.812 93.4492 358.411 93.4492C357.905 93.4492 357.543 93.5199 357.324 93.6611C357.179 93.7614 357.106 93.8913 357.106 94.0508C357.106 94.1875 357.169 94.3037 357.297 94.3994C357.47 94.527 358.067 94.707 359.088 94.9395C360.113 95.1719 360.829 95.4567 361.235 95.7939C361.636 96.1357 361.836 96.612 361.836 97.2227C361.836 97.888 361.558 98.46 361.002 98.9385C360.446 99.417 359.624 99.6562 358.534 99.6562C357.545 99.6562 356.762 99.4557 356.183 99.0547C355.609 98.6536 355.233 98.109 355.055 97.4209Z" fill="black" fill-opacity="0.8"/>
<path d="M320.364 1C320.364 0.447715 319.916 0 319.364 0C318.811 0 318.364 0.447715 318.364 1H320.364ZM318.364 77.9297C318.364 78.482 318.811 78.9297 319.364 78.9297C319.916 78.9297 320.364 78.482 320.364 77.9297H318.364ZM320.364 112.055C320.364 111.502 319.916 111.055 319.364 111.055C318.811 111.055 318.364 111.502 318.364 112.055H320.364ZM428.551 177.498C429.103 177.498 429.551 177.05 429.551 176.498C429.551 175.946 429.103 175.498 428.551 175.498V177.498ZM496.801 175.498C496.248 175.498 495.801 175.946 495.801 176.498C495.801 177.05 496.248 177.498 496.801 177.498V175.498ZM615.657 230.707C616.047 231.098 616.68 231.098 617.071 230.707L623.435 224.343C623.825 223.953 623.825 223.319 623.435 222.929C623.044 222.538 622.411 222.538 622.021 222.929L616.364 228.586L610.707 222.929C610.316 222.538 609.683 222.538 609.293 222.929C608.902 223.319 608.902 223.953 609.293 224.343L615.657 230.707ZM318.364 1V77.9297H320.364V1H318.364ZM318.364 112.055V152.498H320.364V112.055H318.364ZM343.364 177.498H428.551V175.498H343.364V177.498ZM496.801 177.498H592.364V175.498H496.801V177.498ZM615.364 200.498V230H617.364V200.498H615.364ZM592.364 177.498C605.066 177.498 615.364 187.795 615.364 200.498H617.364C617.364 186.691 606.171 175.498 592.364 175.498V177.498ZM318.364 152.498C318.364 166.305 329.557 177.498 343.364 177.498V175.498C330.661 175.498 320.364 165.2 320.364 152.498H318.364Z" fill="#013913"/>
<path d="M435.293 180.498V171.908H441.088V172.922H436.43V175.582H440.461V176.596H436.43V180.498H435.293ZM441.911 177.387C441.911 176.234 442.231 175.381 442.872 174.826C443.407 174.365 444.059 174.135 444.829 174.135C445.684 174.135 446.383 174.416 446.926 174.979C447.469 175.537 447.741 176.311 447.741 177.299C447.741 178.1 447.62 178.73 447.378 179.191C447.139 179.648 446.79 180.004 446.329 180.258C445.872 180.512 445.372 180.639 444.829 180.639C443.958 180.639 443.253 180.359 442.714 179.801C442.178 179.242 441.911 178.438 441.911 177.387ZM442.995 177.387C442.995 178.184 443.169 178.781 443.516 179.18C443.864 179.574 444.301 179.771 444.829 179.771C445.352 179.771 445.788 179.572 446.135 179.174C446.483 178.775 446.657 178.168 446.657 177.352C446.657 176.582 446.481 176 446.13 175.605C445.782 175.207 445.348 175.008 444.829 175.008C444.301 175.008 443.864 175.205 443.516 175.6C443.169 175.994 442.995 176.59 442.995 177.387ZM448.839 180.498V174.275H449.789V175.219C450.031 174.777 450.253 174.486 450.457 174.346C450.664 174.205 450.89 174.135 451.136 174.135C451.492 174.135 451.853 174.248 452.22 174.475L451.857 175.453C451.599 175.301 451.341 175.225 451.083 175.225C450.853 175.225 450.646 175.295 450.462 175.436C450.279 175.572 450.148 175.764 450.07 176.01C449.953 176.385 449.894 176.795 449.894 177.24V180.498H448.839ZM455.671 177.738L456.743 177.645C456.794 178.074 456.911 178.428 457.095 178.705C457.282 178.979 457.571 179.201 457.962 179.373C458.353 179.541 458.792 179.625 459.28 179.625C459.714 179.625 460.097 179.561 460.429 179.432C460.761 179.303 461.007 179.127 461.167 178.904C461.331 178.678 461.413 178.432 461.413 178.166C461.413 177.896 461.335 177.662 461.179 177.463C461.023 177.26 460.765 177.09 460.405 176.953C460.175 176.863 459.665 176.725 458.876 176.537C458.087 176.346 457.534 176.166 457.218 175.998C456.808 175.783 456.501 175.518 456.298 175.201C456.099 174.881 455.999 174.523 455.999 174.129C455.999 173.695 456.122 173.291 456.368 172.916C456.614 172.537 456.974 172.25 457.446 172.055C457.919 171.859 458.444 171.762 459.023 171.762C459.659 171.762 460.22 171.865 460.704 172.072C461.193 172.275 461.568 172.576 461.829 172.975C462.091 173.373 462.232 173.824 462.251 174.328L461.161 174.41C461.103 173.867 460.903 173.457 460.564 173.18C460.228 172.902 459.73 172.764 459.069 172.764C458.382 172.764 457.88 172.891 457.564 173.145C457.251 173.395 457.095 173.697 457.095 174.053C457.095 174.361 457.206 174.615 457.429 174.814C457.648 175.014 458.218 175.219 459.14 175.43C460.066 175.637 460.7 175.818 461.044 175.975C461.544 176.205 461.913 176.498 462.152 176.854C462.39 177.205 462.509 177.611 462.509 178.072C462.509 178.529 462.378 178.961 462.116 179.367C461.855 179.77 461.478 180.084 460.986 180.311C460.497 180.533 459.946 180.645 459.333 180.645C458.556 180.645 457.903 180.531 457.376 180.305C456.853 180.078 456.441 179.738 456.14 179.285C455.843 178.828 455.687 178.312 455.671 177.738ZM468.055 178.494L469.145 178.629C468.973 179.266 468.654 179.76 468.189 180.111C467.725 180.463 467.131 180.639 466.408 180.639C465.498 180.639 464.775 180.359 464.24 179.801C463.709 179.238 463.443 178.451 463.443 177.439C463.443 176.393 463.713 175.58 464.252 175.002C464.791 174.424 465.49 174.135 466.35 174.135C467.182 174.135 467.861 174.418 468.389 174.984C468.916 175.551 469.18 176.348 469.18 177.375C469.18 177.438 469.178 177.531 469.174 177.656H464.533C464.572 178.34 464.766 178.863 465.113 179.227C465.461 179.59 465.895 179.771 466.414 179.771C466.801 179.771 467.131 179.67 467.404 179.467C467.678 179.264 467.895 178.939 468.055 178.494ZM464.592 176.789H468.066C468.02 176.266 467.887 175.873 467.668 175.611C467.332 175.205 466.896 175.002 466.361 175.002C465.877 175.002 465.469 175.164 465.137 175.488C464.809 175.812 464.627 176.246 464.592 176.789ZM470.319 180.498V171.908H471.374V180.498H470.319ZM472.859 180.498V171.908H473.914V180.498H472.859ZM479.682 178.494L480.772 178.629C480.6 179.266 480.282 179.76 479.817 180.111C479.352 180.463 478.758 180.639 478.036 180.639C477.125 180.639 476.403 180.359 475.868 179.801C475.336 179.238 475.071 178.451 475.071 177.439C475.071 176.393 475.34 175.58 475.879 175.002C476.418 174.424 477.118 174.135 477.977 174.135C478.809 174.135 479.489 174.418 480.016 174.984C480.543 175.551 480.807 176.348 480.807 177.375C480.807 177.438 480.805 177.531 480.801 177.656H476.161C476.2 178.34 476.393 178.863 476.741 179.227C477.088 179.59 477.522 179.771 478.042 179.771C478.428 179.771 478.758 179.67 479.032 179.467C479.305 179.264 479.522 178.939 479.682 178.494ZM476.219 176.789H479.694C479.647 176.266 479.514 175.873 479.295 175.611C478.959 175.205 478.524 175.002 477.989 175.002C477.504 175.002 477.096 175.164 476.764 175.488C476.436 175.812 476.254 176.246 476.219 176.789ZM481.958 180.498V174.275H482.908V175.219C483.15 174.777 483.372 174.486 483.576 174.346C483.783 174.205 484.009 174.135 484.255 174.135C484.611 174.135 484.972 174.248 485.339 174.475L484.976 175.453C484.718 175.301 484.46 175.225 484.202 175.225C483.972 175.225 483.765 175.295 483.581 175.436C483.398 175.572 483.267 175.764 483.189 176.01C483.072 176.385 483.013 176.795 483.013 177.24V180.498H481.958ZM485.412 178.641L486.455 178.477C486.514 178.895 486.676 179.215 486.942 179.438C487.211 179.66 487.586 179.771 488.067 179.771C488.551 179.771 488.91 179.674 489.145 179.479C489.379 179.279 489.496 179.047 489.496 178.781C489.496 178.543 489.393 178.355 489.186 178.219C489.041 178.125 488.682 178.006 488.108 177.861C487.334 177.666 486.797 177.498 486.496 177.357C486.199 177.213 485.973 177.016 485.817 176.766C485.664 176.512 485.588 176.232 485.588 175.928C485.588 175.65 485.651 175.395 485.776 175.16C485.904 174.922 486.078 174.725 486.297 174.568C486.461 174.447 486.684 174.346 486.965 174.264C487.25 174.178 487.555 174.135 487.879 174.135C488.367 174.135 488.795 174.205 489.162 174.346C489.533 174.486 489.807 174.678 489.983 174.92C490.158 175.158 490.279 175.479 490.346 175.881L489.315 176.021C489.268 175.701 489.131 175.451 488.904 175.271C488.682 175.092 488.365 175.002 487.955 175.002C487.471 175.002 487.125 175.082 486.918 175.242C486.711 175.402 486.608 175.59 486.608 175.805C486.608 175.941 486.651 176.064 486.736 176.174C486.822 176.287 486.957 176.381 487.141 176.455C487.246 176.494 487.557 176.584 488.072 176.725C488.819 176.924 489.338 177.088 489.631 177.217C489.928 177.342 490.16 177.525 490.328 177.768C490.496 178.01 490.58 178.311 490.58 178.67C490.58 179.021 490.477 179.354 490.27 179.666C490.067 179.975 489.772 180.215 489.385 180.387C488.998 180.555 488.561 180.639 488.072 180.639C487.264 180.639 486.647 180.471 486.221 180.135C485.799 179.799 485.529 179.301 485.412 178.641Z" fill="black" fill-opacity="0.8"/>
</svg>
