<svg width="321" height="231" viewBox="0 0 321 231" fill="none" xmlns="http://www.w3.org/2000/svg">
<path d="M320.364 1C320.364 0.447715 319.916 0 319.364 0C318.811 0 318.364 0.447715 318.364 1H320.364ZM318.364 77.9297C318.364 78.482 318.811 78.9297 319.364 78.9297C319.916 78.9297 320.364 78.482 320.364 77.9297H318.364ZM320.364 112.055C320.364 111.502 319.916 111.055 319.364 111.055C318.811 111.055 318.364 111.502 318.364 112.055H320.364ZM197.989 177.501C197.436 177.501 196.989 177.949 196.989 178.501C196.989 179.054 197.436 179.501 197.989 179.501V177.501ZM128.739 179.501C129.291 179.501 129.739 179.054 129.739 178.501C129.739 177.949 129.291 177.501 128.739 177.501V179.501ZM6.65666 230.707C7.04719 231.098 7.68035 231.098 8.07088 230.707L14.4348 224.343C14.8254 223.953 14.8254 223.319 14.4348 222.929C14.0443 222.538 13.4111 222.538 13.0206 222.929L7.36377 228.586L1.70692 222.929C1.31639 222.538 0.683226 222.538 0.292702 222.929C-0.0978227 223.319 -0.0978227 223.953 0.292702 224.343L6.65666 230.707ZM318.364 1V77.9297H320.364V1H318.364ZM318.364 112.055V154.501H320.364V112.055H318.364ZM295.364 177.501H197.989V179.501H295.364V177.501ZM128.739 177.501H31.3638V179.501H128.739V177.501ZM6.36377 202.501V230H8.36377V202.501H6.36377ZM31.3638 177.501C17.5567 177.501 6.36377 188.694 6.36377 202.501H8.36377C8.36377 189.799 18.6612 179.501 31.3638 179.501V177.501ZM318.364 154.501C318.364 167.204 308.066 177.501 295.364 177.501V179.501C309.171 179.501 320.364 168.308 320.364 154.501H318.364Z" fill="#1DBF73"/>
<path d="M135.587 182.501V173.911H141.382V174.925H136.723V177.585H140.755V178.599H136.723V182.501H135.587ZM142.205 179.39C142.205 178.237 142.525 177.384 143.166 176.829C143.701 176.368 144.353 176.138 145.123 176.138C145.978 176.138 146.677 176.419 147.22 176.981C147.763 177.54 148.035 178.313 148.035 179.302C148.035 180.103 147.914 180.733 147.671 181.194C147.433 181.651 147.084 182.007 146.623 182.261C146.166 182.515 145.666 182.642 145.123 182.642C144.252 182.642 143.546 182.362 143.007 181.804C142.472 181.245 142.205 180.44 142.205 179.39ZM143.289 179.39C143.289 180.187 143.462 180.784 143.81 181.183C144.158 181.577 144.595 181.774 145.123 181.774C145.646 181.774 146.082 181.575 146.429 181.177C146.777 180.778 146.951 180.171 146.951 179.354C146.951 178.585 146.775 178.003 146.423 177.608C146.076 177.21 145.642 177.011 145.123 177.011C144.595 177.011 144.158 177.208 143.81 177.603C143.462 177.997 143.289 178.593 143.289 179.39ZM149.133 182.501V176.278H150.082V177.222C150.325 176.78 150.547 176.489 150.75 176.349C150.957 176.208 151.184 176.138 151.43 176.138C151.786 176.138 152.147 176.251 152.514 176.478L152.151 177.456C151.893 177.304 151.635 177.228 151.377 177.228C151.147 177.228 150.94 177.298 150.756 177.438C150.573 177.575 150.442 177.767 150.364 178.013C150.247 178.388 150.188 178.798 150.188 179.243V182.501H149.133ZM156.305 182.501V173.911H159.527C160.184 173.911 160.709 173.999 161.104 174.175C161.502 174.347 161.813 174.614 162.035 174.978C162.262 175.337 162.375 175.714 162.375 176.108C162.375 176.476 162.275 176.821 162.076 177.146C161.877 177.47 161.576 177.731 161.174 177.931C161.693 178.083 162.092 178.343 162.369 178.71C162.65 179.077 162.791 179.511 162.791 180.011C162.791 180.413 162.705 180.788 162.533 181.136C162.365 181.479 162.156 181.745 161.906 181.933C161.656 182.12 161.342 182.263 160.963 182.36C160.588 182.454 160.127 182.501 159.58 182.501H156.305ZM157.441 177.521H159.299C159.803 177.521 160.164 177.487 160.383 177.421C160.672 177.335 160.889 177.192 161.033 176.993C161.182 176.794 161.256 176.544 161.256 176.243C161.256 175.958 161.188 175.708 161.051 175.493C160.914 175.274 160.719 175.126 160.465 175.048C160.211 174.966 159.775 174.925 159.158 174.925H157.441V177.521ZM157.441 181.487H159.58C159.947 181.487 160.205 181.474 160.354 181.446C160.615 181.399 160.834 181.321 161.01 181.212C161.186 181.103 161.33 180.944 161.443 180.737C161.557 180.526 161.613 180.284 161.613 180.011C161.613 179.69 161.531 179.413 161.367 179.179C161.203 178.94 160.975 178.774 160.682 178.681C160.393 178.583 159.975 178.534 159.428 178.534H157.441V181.487ZM168.167 182.501V181.587C167.683 182.29 167.024 182.642 166.192 182.642C165.825 182.642 165.481 182.571 165.161 182.431C164.845 182.29 164.608 182.114 164.452 181.903C164.3 181.688 164.192 181.427 164.13 181.118C164.087 180.911 164.065 180.583 164.065 180.134V176.278H165.12V179.729C165.12 180.28 165.142 180.651 165.184 180.843C165.251 181.12 165.392 181.339 165.606 181.499C165.821 181.655 166.087 181.733 166.403 181.733C166.72 181.733 167.017 181.653 167.294 181.493C167.571 181.329 167.767 181.108 167.88 180.831C167.997 180.55 168.056 180.144 168.056 179.612V176.278H169.11V182.501H168.167ZM170.59 184.897L170.472 183.907C170.703 183.97 170.904 184.001 171.076 184.001C171.31 184.001 171.498 183.962 171.638 183.884C171.779 183.806 171.894 183.696 171.984 183.556C172.051 183.45 172.158 183.188 172.306 182.771C172.326 182.712 172.357 182.626 172.4 182.513L170.039 176.278H171.176L172.47 179.882C172.638 180.339 172.789 180.819 172.922 181.323C173.043 180.839 173.187 180.366 173.355 179.905L174.685 176.278H175.74L173.373 182.606C173.119 183.29 172.922 183.761 172.781 184.019C172.594 184.366 172.379 184.62 172.136 184.78C171.894 184.944 171.605 185.026 171.269 185.026C171.066 185.026 170.84 184.983 170.59 184.897ZM180.764 180.497L181.854 180.632C181.682 181.269 181.364 181.763 180.899 182.114C180.434 182.466 179.84 182.642 179.118 182.642C178.208 182.642 177.485 182.362 176.95 181.804C176.419 181.241 176.153 180.454 176.153 179.442C176.153 178.396 176.422 177.583 176.962 177.005C177.501 176.427 178.2 176.138 179.059 176.138C179.891 176.138 180.571 176.421 181.098 176.987C181.626 177.554 181.889 178.351 181.889 179.378C181.889 179.44 181.887 179.534 181.883 179.659H177.243C177.282 180.343 177.475 180.866 177.823 181.229C178.17 181.593 178.604 181.774 179.124 181.774C179.51 181.774 179.84 181.673 180.114 181.47C180.387 181.267 180.604 180.942 180.764 180.497ZM177.301 178.792H180.776C180.729 178.269 180.596 177.876 180.378 177.614C180.042 177.208 179.606 177.005 179.071 177.005C178.587 177.005 178.178 177.167 177.846 177.491C177.518 177.815 177.337 178.249 177.301 178.792ZM183.04 182.501V176.278H183.99V177.222C184.232 176.78 184.455 176.489 184.658 176.349C184.865 176.208 185.091 176.138 185.337 176.138C185.693 176.138 186.054 176.251 186.421 176.478L186.058 177.456C185.8 177.304 185.542 177.228 185.285 177.228C185.054 177.228 184.847 177.298 184.663 177.438C184.48 177.575 184.349 177.767 184.271 178.013C184.154 178.388 184.095 178.798 184.095 179.243V182.501H183.04ZM186.494 180.644L187.537 180.479C187.596 180.897 187.758 181.218 188.024 181.44C188.293 181.663 188.668 181.774 189.149 181.774C189.633 181.774 189.992 181.677 190.227 181.481C190.461 181.282 190.578 181.05 190.578 180.784C190.578 180.546 190.475 180.358 190.268 180.222C190.123 180.128 189.764 180.009 189.19 179.864C188.416 179.669 187.879 179.501 187.578 179.36C187.281 179.216 187.055 179.019 186.899 178.769C186.746 178.515 186.67 178.235 186.67 177.931C186.67 177.653 186.733 177.397 186.858 177.163C186.987 176.925 187.16 176.728 187.379 176.571C187.543 176.45 187.766 176.349 188.047 176.267C188.332 176.181 188.637 176.138 188.961 176.138C189.449 176.138 189.877 176.208 190.244 176.349C190.615 176.489 190.889 176.681 191.065 176.923C191.24 177.161 191.362 177.481 191.428 177.884L190.397 178.024C190.35 177.704 190.213 177.454 189.987 177.274C189.764 177.095 189.448 177.005 189.037 177.005C188.553 177.005 188.207 177.085 188 177.245C187.793 177.405 187.69 177.593 187.69 177.808C187.69 177.944 187.733 178.067 187.819 178.177C187.905 178.29 188.039 178.384 188.223 178.458C188.328 178.497 188.639 178.587 189.155 178.728C189.901 178.927 190.42 179.091 190.713 179.22C191.01 179.345 191.242 179.528 191.41 179.771C191.578 180.013 191.662 180.313 191.662 180.673C191.662 181.024 191.559 181.356 191.352 181.669C191.149 181.978 190.854 182.218 190.467 182.39C190.08 182.558 189.643 182.642 189.155 182.642C188.346 182.642 187.729 182.474 187.303 182.138C186.881 181.802 186.612 181.304 186.494 180.644Z" fill="black" fill-opacity="0.8"/>
</svg>
