<svg width="24" height="24" viewBox="0 0 24 24" fill="none" xmlns="http://www.w3.org/2000/svg">
<path d="M16.7128 13.8025C17.0968 14.1955 17.0938 14.8225 16.7038 15.2085C16.6298 15.2815 14.8638 16.9985 11.9998 16.9985C9.13583 16.9985 7.36983 15.2825 7.29583 15.2085C6.90383 14.8195 6.89983 14.1875 7.28883 13.7945C7.67883 13.4025 8.30983 13.3985 8.70383 13.7875C8.74983 13.8325 9.98383 14.9975 11.9998 14.9975C14.0158 14.9975 15.2498 13.8315 15.3018 13.7825C15.6978 13.4005 16.3298 13.4085 16.7128 13.8025ZM8.49983 10.9985C9.32783 10.9985 9.99983 10.3265 9.99983 9.49846C9.99983 8.67046 9.32783 7.99846 8.49983 7.99846C7.67183 7.99846 6.99983 8.67046 6.99983 9.49846C6.99983 10.3265 7.67183 10.9985 8.49983 10.9985ZM15.4998 7.99846C14.6718 7.99846 13.9998 8.67046 13.9998 9.49846C13.9998 10.3265 14.6718 10.9985 15.4998 10.9985C16.3278 10.9985 16.9998 10.3265 16.9998 9.49846C16.9998 8.67046 16.3278 7.99846 15.4998 7.99846ZM23.9998 12.3385V18.9985C23.9998 21.7555 21.7568 23.9985 18.9998 23.9985H13.0828C6.08183 23.9985 0.470831 19.2065 0.0288309 12.8525C-0.211169 9.37646 1.05583 5.97446 3.50783 3.51946C5.96183 1.06346 9.37083 -0.206543 12.8358 0.0274568C19.0968 0.452457 23.9998 5.85946 23.9998 12.3385ZM21.9998 12.3385C21.9998 6.90746 17.9148 2.37646 12.7008 2.02246C12.4718 2.00646 12.2428 1.99946 12.0138 1.99946C9.35783 1.99946 6.80483 3.04746 4.92283 4.93246C2.87983 6.97846 1.82283 9.81546 2.02483 12.7145C2.39683 18.0945 7.04783 21.9995 13.0828 21.9995H18.9998C20.6538 21.9995 21.9998 20.6535 21.9998 18.9995V12.3385Z" fill="black"/>
</svg>
