<svg width="18" height="18" viewBox="0 0 18 18" fill="none" xmlns="http://www.w3.org/2000/svg">
<g clip-path="url(#clip0_479_1675)">
<path d="M15.375 4.5H13.875C12.4275 4.5 11.25 5.6775 11.25 7.125V10.125C11.25 11.1683 11.8665 12.0638 12.75 12.4867V17.25C12.75 17.664 13.086 18 13.5 18C13.914 18 14.25 17.664 14.25 17.25V12.75H15V17.25C15 17.664 15.336 18 15.75 18C16.164 18 16.5 17.664 16.5 17.25V12.4867C17.3835 12.0638 18 11.1683 18 10.125V7.125C18 5.6775 16.8225 4.5 15.375 4.5ZM16.5 10.125C16.5 10.7452 15.9952 11.25 15.375 11.25H13.875C13.2548 11.25 12.75 10.7452 12.75 10.125V7.125C12.75 6.50475 13.2548 6 13.875 6H15.375C15.9952 6 16.5 6.50475 16.5 7.125V10.125ZM10.485 5.13825C10.5675 5.544 10.305 5.94 9.89925 6.0225C9.378 6.12825 9 6.5925 9 7.125V10.125C9 10.4827 9.16425 10.8105 9.45075 11.025C9.639 11.1667 9.75 11.3888 9.75 11.625V16.5C9.75 16.914 9.414 17.25 9 17.25C8.586 17.25 8.25 16.914 8.25 16.5V11.9618C7.77525 11.475 7.5 10.8127 7.5 10.125V7.125C7.5 5.8815 8.3835 4.8 9.60075 4.5525C10.0065 4.46775 10.4025 4.73175 10.485 5.13825ZM6.735 5.13825C6.8175 5.544 6.555 5.94 6.14925 6.0225C5.628 6.12825 5.25 6.5925 5.25 7.125V9.375C5.25 9.73275 5.41425 10.0605 5.70075 10.275C5.889 10.4167 6 10.6388 6 10.875V15C6 15.414 5.664 15.75 5.25 15.75C4.836 15.75 4.5 15.414 4.5 15V11.2118C4.02525 10.725 3.75 10.0627 3.75 9.375V7.125C3.75 5.8815 4.6335 4.8 5.85075 4.5525C6.25725 4.46775 6.6525 4.73175 6.735 5.13825ZM2.985 5.13825C3.0675 5.544 2.805 5.94 2.39925 6.0225C1.878 6.12825 1.5 6.5925 1.5 7.125V8.625C1.5 8.98275 1.66425 9.3105 1.95075 9.525C2.139 9.66675 2.25 9.88875 2.25 10.125V13.5C2.25 13.914 1.914 14.25 1.5 14.25C1.086 14.25 0.75 13.914 0.75 13.5V10.4618C0.27525 9.975 0 9.31275 0 8.625V7.125C0 5.8815 0.8835 4.8 2.10075 4.5525C2.50875 4.46775 2.9025 4.73175 2.985 5.13825ZM12.75 1.875C12.75 0.83925 13.5892 0 14.625 0C15.6608 0 16.5 0.83925 16.5 1.875C16.5 2.91075 15.6608 3.75 14.625 3.75C13.5892 3.75 12.75 2.91075 12.75 1.875ZM11.7113 3.54525C11.4585 3.672 11.1772 3.75 10.875 3.75C9.83925 3.75 9 2.91075 9 1.875C9 0.83925 9.83925 0 10.875 0C11.1765 0 11.4578 0.078 11.7105 0.20475C11.4255 0.699 11.25 1.2645 11.25 1.875C11.25 2.4855 11.4255 3.051 11.7113 3.54525ZM7.96125 3.54525C7.7085 3.672 7.42725 3.75 7.125 3.75C6.08925 3.75 5.25 2.91075 5.25 1.875C5.25 0.83925 6.08925 0 7.125 0C7.4265 0 7.70775 0.078 7.9605 0.20475C7.6755 0.699 7.5 1.2645 7.5 1.875C7.5 2.4855 7.6755 3.051 7.96125 3.54525ZM4.21125 3.54525C3.9585 3.672 3.67725 3.75 3.375 3.75C2.33925 3.75 1.5 2.91075 1.5 1.875C1.5 0.83925 2.33925 0 3.375 0C3.6765 0 3.95775 0.078 4.2105 0.20475C3.9255 0.699 3.75 1.2645 3.75 1.875C3.75 2.4855 3.9255 3.051 4.21125 3.54525Z" fill="#013913"/>
</g>
<defs>
<clipPath id="clip0_479_1675">
<rect width="18" height="18" fill="white"/>
</clipPath>
</defs>
</svg>
