<svg width="149" height="745" viewBox="0 0 149 745" fill="none" xmlns="http://www.w3.org/2000/svg">
<path d="M148.5 1C148.776 1 149 0.776142 149 0.5C149 0.223858 148.776 0 148.5 0V1ZM68.8536 741.354C69.0488 741.158 69.0488 740.842 68.8536 740.646L65.6716 737.464C65.4763 737.269 65.1597 737.269 64.9645 737.464C64.7692 737.66 64.7692 737.976 64.9645 738.172L67.7929 741L64.9645 743.828C64.7692 744.024 64.7692 744.34 64.9645 744.536C65.1597 744.731 65.4763 744.731 65.6716 744.536L68.8536 741.354ZM66.6667 740.5C66.3905 740.5 66.1667 740.724 66.1667 741C66.1667 741.276 66.3905 741.5 66.6667 741.5V740.5ZM63 741.5C63.2761 741.5 63.5 741.276 63.5 741C63.5 740.724 63.2761 740.5 63 740.5V741.5ZM59.3333 740.5C59.0572 740.5 58.8333 740.724 58.8333 741C58.8333 741.276 59.0572 741.5 59.3333 741.5V740.5ZM55.6667 741.5C55.9428 741.5 56.1667 741.276 56.1667 741C56.1667 740.724 55.9428 740.5 55.6667 740.5V741.5ZM52 740.5C51.7239 740.5 51.5 740.724 51.5 741C51.5 741.276 51.7239 741.5 52 741.5V740.5ZM48.3333 741.5C48.6095 741.5 48.8333 741.276 48.8333 741C48.8333 740.724 48.6095 740.5 48.3333 740.5V741.5ZM44.6667 740.5C44.3905 740.5 44.1667 740.724 44.1667 741C44.1667 741.276 44.3905 741.5 44.6667 741.5V740.5ZM41 741.5C41.2761 741.5 41.5 741.276 41.5 741C41.5 740.724 41.2761 740.5 41 740.5V741.5ZM37.3333 740.5C37.0572 740.5 36.8333 740.724 36.8333 741C36.8333 741.276 37.0572 741.5 37.3333 741.5V740.5ZM33.6667 741.5C33.9428 741.5 34.1667 741.276 34.1667 741C34.1667 740.724 33.9428 740.5 33.6667 740.5V741.5ZM30 740.5C29.7239 740.5 29.5 740.724 29.5 741C29.5 741.276 29.7239 741.5 30 741.5V740.5ZM26.3333 741.5C26.6095 741.5 26.8333 741.276 26.8333 741C26.8333 740.724 26.6095 740.5 26.3333 740.5V741.5ZM22.6538 740.429C22.3785 740.407 22.138 740.613 22.1166 740.888C22.0952 741.164 22.3011 741.404 22.5764 741.426L22.6538 740.429ZM18.7785 740.828C19.0471 740.892 19.3169 740.727 19.3812 740.458C19.4454 740.19 19.2798 739.92 19.0112 739.856L18.7785 740.828ZM15.5046 738.717C15.2495 738.611 14.957 738.732 14.8512 738.987C14.7454 739.242 14.8665 739.535 15.1216 739.641L15.5046 738.717ZM11.6969 737.893C11.9322 738.037 12.2401 737.963 12.3846 737.728C12.5291 737.493 12.4555 737.185 12.2202 737.04L11.6969 737.893ZM9.23797 734.87C9.02807 734.691 8.71245 734.715 8.53302 734.925C8.35358 735.135 8.37827 735.451 8.58817 735.63L9.23797 734.87ZM5.86976 732.912C6.04919 733.122 6.36481 733.146 6.57471 732.967C6.78461 732.788 6.8093 732.472 6.62986 732.262L5.86976 732.912ZM4.45962 729.28C4.31511 729.044 4.00721 728.971 3.77189 729.115C3.53658 729.26 3.46296 729.568 3.60747 729.803L4.45962 729.28ZM1.85927 726.378C1.96505 726.633 2.25758 726.755 2.51266 726.649C2.76774 726.543 2.88877 726.25 2.78299 725.995L1.85927 726.378ZM1.64433 722.489C1.58008 722.22 1.31027 722.055 1.04171 722.119C0.773148 722.183 0.607523 722.453 0.671778 722.721L1.64433 722.489ZM0.0744292 718.924C0.0958175 719.199 0.336341 719.405 0.611654 719.383C0.886967 719.362 1.09281 719.121 1.07143 718.846L0.0744292 718.924ZM1 715.01C1 714.734 0.776142 714.51 0.5 714.51C0.223858 714.51 0 714.734 0 715.01H1ZM0 711.03C0 711.306 0.223858 711.53 0.5 711.53C0.776142 711.53 1 711.306 1 711.03H0ZM1 707.05C1 706.774 0.776142 706.55 0.5 706.55C0.223858 706.55 0 706.774 0 707.05H1ZM0 703.07C0 703.346 0.223858 703.57 0.5 703.57C0.776142 703.57 1 703.346 1 703.07H0ZM1 699.091C1 698.814 0.776142 698.591 0.5 698.591C0.223858 698.591 0 698.814 0 699.091H1ZM0 695.111C0 695.387 0.223858 695.611 0.5 695.611C0.776142 695.611 1 695.387 1 695.111H0ZM1 691.131C1 690.855 0.776142 690.631 0.5 690.631C0.223858 690.631 0 690.855 0 691.131H1ZM0 687.151C0 687.427 0.223858 687.651 0.5 687.651C0.776142 687.651 1 687.427 1 687.151H0ZM1 683.171C1 682.895 0.776142 682.671 0.5 682.671C0.223858 682.671 0 682.895 0 683.171H1ZM0 679.191C0 679.467 0.223858 679.691 0.5 679.691C0.776142 679.691 1 679.467 1 679.191H0ZM1 675.211C1 674.935 0.776142 674.711 0.5 674.711C0.223858 674.711 0 674.935 0 675.211H1ZM0 671.231C0 671.507 0.223858 671.731 0.5 671.731C0.776142 671.731 1 671.507 1 671.231H0ZM1 667.251C1 666.975 0.776142 666.751 0.5 666.751C0.223858 666.751 0 666.975 0 667.251H1ZM0 663.272C0 663.548 0.223858 663.772 0.5 663.772C0.776142 663.772 1 663.548 1 663.272H0ZM1 659.292C1 659.016 0.776142 658.792 0.5 658.792C0.223858 658.792 0 659.016 0 659.292H1ZM0 655.312C0 655.588 0.223858 655.812 0.5 655.812C0.776142 655.812 1 655.588 1 655.312H0ZM1 651.332C1 651.056 0.776142 650.832 0.5 650.832C0.223858 650.832 0 651.056 0 651.332H1ZM0 647.352C0 647.628 0.223858 647.852 0.5 647.852C0.776142 647.852 1 647.628 1 647.352H0ZM1 643.372C1 643.096 0.776142 642.872 0.5 642.872C0.223858 642.872 0 643.096 0 643.372H1ZM0 639.392C0 639.668 0.223858 639.892 0.5 639.892C0.776142 639.892 1 639.668 1 639.392H0ZM1 635.412C1 635.136 0.776142 634.912 0.5 634.912C0.223858 634.912 0 635.136 0 635.412H1ZM0 631.432C0 631.709 0.223858 631.932 0.5 631.932C0.776142 631.932 1 631.709 1 631.432H0ZM1 627.453C1 627.176 0.776142 626.953 0.5 626.953C0.223858 626.953 0 627.176 0 627.453H1ZM0 623.473C0 623.749 0.223858 623.973 0.5 623.973C0.776142 623.973 1 623.749 1 623.473H0ZM1 619.493C1 619.217 0.776142 618.993 0.5 618.993C0.223858 618.993 0 619.217 0 619.493H1ZM0 615.513C0 615.789 0.223858 616.013 0.5 616.013C0.776142 616.013 1 615.789 1 615.513H0ZM1 611.533C1 611.257 0.776142 611.033 0.5 611.033C0.223858 611.033 0 611.257 0 611.533H1ZM0 607.553C0 607.829 0.223858 608.053 0.5 608.053C0.776142 608.053 1 607.829 1 607.553H0ZM1 603.573C1 603.297 0.776142 603.073 0.5 603.073C0.223858 603.073 0 603.297 0 603.573H1ZM0 599.593C0 599.869 0.223858 600.093 0.5 600.093C0.776142 600.093 1 599.869 1 599.593H0ZM1 595.613C1 595.337 0.776142 595.113 0.5 595.113C0.223858 595.113 0 595.337 0 595.613H1ZM0 591.634C0 591.91 0.223858 592.134 0.5 592.134C0.776142 592.134 1 591.91 1 591.634H0ZM1 587.654C1 587.378 0.776142 587.154 0.5 587.154C0.223858 587.154 0 587.378 0 587.654H1ZM0 583.674C0 583.95 0.223858 584.174 0.5 584.174C0.776142 584.174 1 583.95 1 583.674H0ZM1 579.694C1 579.418 0.776142 579.194 0.5 579.194C0.223858 579.194 0 579.418 0 579.694H1ZM0 575.714C0 575.99 0.223858 576.214 0.5 576.214C0.776142 576.214 1 575.99 1 575.714H0ZM1 571.734C1 571.458 0.776142 571.234 0.5 571.234C0.223858 571.234 0 571.458 0 571.734H1ZM0 567.754C0 568.03 0.223858 568.254 0.5 568.254C0.776142 568.254 1 568.03 1 567.754H0ZM1 563.774C1 563.498 0.776142 563.274 0.5 563.274C0.223858 563.274 0 563.498 0 563.774H1ZM0 559.794C0 560.071 0.223858 560.294 0.5 560.294C0.776142 560.294 1 560.071 1 559.794H0ZM1 555.815C1 555.538 0.776142 555.315 0.5 555.315C0.223858 555.315 0 555.538 0 555.815H1ZM0 551.835C0 552.111 0.223858 552.335 0.5 552.335C0.776142 552.335 1 552.111 1 551.835H0ZM1 547.855C1 547.579 0.776142 547.355 0.5 547.355C0.223858 547.355 0 547.579 0 547.855H1ZM0 543.875C0 544.151 0.223858 544.375 0.5 544.375C0.776142 544.375 1 544.151 1 543.875H0ZM1 539.895C1 539.619 0.776142 539.395 0.5 539.395C0.223858 539.395 0 539.619 0 539.895H1ZM0 535.915C0 536.191 0.223858 536.415 0.5 536.415C0.776142 536.415 1 536.191 1 535.915H0ZM1 531.935C1 531.659 0.776142 531.435 0.5 531.435C0.223858 531.435 0 531.659 0 531.935H1ZM0 527.955C0 528.231 0.223858 528.455 0.5 528.455C0.776142 528.455 1 528.231 1 527.955H0ZM1 523.975C1 523.699 0.776142 523.475 0.5 523.475C0.223858 523.475 0 523.699 0 523.975H1ZM0 519.996C0 520.272 0.223858 520.496 0.5 520.496C0.776142 520.496 1 520.272 1 519.996H0ZM1 516.016C1 515.74 0.776142 515.516 0.5 515.516C0.223858 515.516 0 515.74 0 516.016H1ZM0 512.036C0 512.312 0.223858 512.536 0.5 512.536C0.776142 512.536 1 512.312 1 512.036H0ZM1 508.056C1 507.78 0.776142 507.556 0.5 507.556C0.223858 507.556 0 507.78 0 508.056H1ZM0 504.076C0 504.352 0.223858 504.576 0.5 504.576C0.776142 504.576 1 504.352 1 504.076H0ZM1 500.096C1 499.82 0.776142 499.596 0.5 499.596C0.223858 499.596 0 499.82 0 500.096H1ZM0 496.116C0 496.392 0.223858 496.616 0.5 496.616C0.776142 496.616 1 496.392 1 496.116H0ZM1 492.136C1 491.86 0.776142 491.636 0.5 491.636C0.223858 491.636 0 491.86 0 492.136H1ZM0 488.156C0 488.433 0.223858 488.656 0.5 488.656C0.776142 488.656 1 488.433 1 488.156H0ZM1 484.177C1 483.9 0.776142 483.677 0.5 483.677C0.223858 483.677 0 483.9 0 484.177H1ZM0 480.197C0 480.473 0.223858 480.697 0.5 480.697C0.776142 480.697 1 480.473 1 480.197H0ZM1 476.217C1 475.941 0.776142 475.717 0.5 475.717C0.223858 475.717 0 475.941 0 476.217H1ZM0 472.237C0 472.513 0.223858 472.737 0.5 472.737C0.776142 472.737 1 472.513 1 472.237H0ZM1 468.257C1 467.981 0.776142 467.757 0.5 467.757C0.223858 467.757 0 467.981 0 468.257H1ZM0 464.277C0 464.553 0.223858 464.777 0.5 464.777C0.776142 464.777 1 464.553 1 464.277H0ZM1 460.297C1 460.021 0.776142 459.797 0.5 459.797C0.223858 459.797 0 460.021 0 460.297H1ZM0 456.317C0 456.593 0.223858 456.817 0.5 456.817C0.776142 456.817 1 456.593 1 456.317H0ZM1 452.337C1 452.061 0.776142 451.837 0.5 451.837C0.223858 451.837 0 452.061 0 452.337H1ZM0 448.358C0 448.634 0.223858 448.858 0.5 448.858C0.776142 448.858 1 448.634 1 448.358H0ZM1 444.378C1 444.102 0.776142 443.878 0.5 443.878C0.223858 443.878 0 444.102 0 444.378H1ZM0 440.398C0 440.674 0.223858 440.898 0.5 440.898C0.776142 440.898 1 440.674 1 440.398H0ZM1 436.418C1 436.142 0.776142 435.918 0.5 435.918C0.223858 435.918 0 436.142 0 436.418H1ZM0 432.438C0 432.714 0.223858 432.938 0.5 432.938C0.776142 432.938 1 432.714 1 432.438H0ZM1 428.458C1 428.182 0.776142 427.958 0.5 427.958C0.223858 427.958 0 428.182 0 428.458H1ZM0 424.478C0 424.754 0.223858 424.978 0.5 424.978C0.776142 424.978 1 424.754 1 424.478H0ZM1 420.498C1 420.222 0.776142 419.998 0.5 419.998C0.223858 419.998 0 420.222 0 420.498H1ZM0 416.518C0 416.795 0.223858 417.018 0.5 417.018C0.776142 417.018 1 416.795 1 416.518H0ZM1 412.539C1 412.262 0.776142 412.039 0.5 412.039C0.223858 412.039 0 412.262 0 412.539H1ZM0 408.559C0 408.835 0.223858 409.059 0.5 409.059C0.776142 409.059 1 408.835 1 408.559H0ZM1 404.579C1 404.303 0.776142 404.079 0.5 404.079C0.223858 404.079 0 404.303 0 404.579H1ZM0 400.599C0 400.875 0.223858 401.099 0.5 401.099C0.776142 401.099 1 400.875 1 400.599H0ZM1 396.619C1 396.343 0.776142 396.119 0.5 396.119C0.223858 396.119 0 396.343 0 396.619H1ZM0 392.639C0 392.915 0.223858 393.139 0.5 393.139C0.776142 393.139 1 392.915 1 392.639H0ZM1 388.659C1 388.383 0.776142 388.159 0.5 388.159C0.223858 388.159 0 388.383 0 388.659H1ZM0 384.679C0 384.956 0.223858 385.179 0.5 385.179C0.776142 385.179 1 384.956 1 384.679H0ZM1 380.699C1 380.423 0.776142 380.199 0.5 380.199C0.223858 380.199 0 380.423 0 380.699H1ZM0 376.72C0 376.996 0.223858 377.22 0.5 377.22C0.776142 377.22 1 376.996 1 376.72H0ZM1 372.74C1 372.464 0.776142 372.24 0.5 372.24C0.223858 372.24 0 372.464 0 372.74H1ZM0 368.76C0 369.036 0.223858 369.26 0.5 369.26C0.776142 369.26 1 369.036 1 368.76H0ZM1 364.78C1 364.504 0.776142 364.28 0.5 364.28C0.223858 364.28 0 364.504 0 364.78H1ZM0 360.8C0 361.076 0.223858 361.3 0.5 361.3C0.776142 361.3 1 361.076 1 360.8H0ZM1 356.82C1 356.544 0.776142 356.32 0.5 356.32C0.223858 356.32 0 356.544 0 356.82H1ZM0 352.84C0 353.116 0.223858 353.34 0.5 353.34C0.776142 353.34 1 353.116 1 352.84H0ZM1 348.86C1 348.584 0.776142 348.36 0.5 348.36C0.223858 348.36 0 348.584 0 348.86H1ZM0 344.88C0 345.157 0.223858 345.38 0.5 345.38C0.776142 345.38 1 345.157 1 344.88H0ZM1 340.901C1 340.624 0.776142 340.401 0.5 340.401C0.223858 340.401 0 340.624 0 340.901H1ZM0 336.921C0 337.197 0.223858 337.421 0.5 337.421C0.776142 337.421 1 337.197 1 336.921H0ZM1 332.941C1 332.665 0.776142 332.441 0.5 332.441C0.223858 332.441 0 332.665 0 332.941H1ZM0 328.961C0 329.237 0.223858 329.461 0.5 329.461C0.776142 329.461 1 329.237 1 328.961H0ZM1 324.981C1 324.705 0.776142 324.481 0.5 324.481C0.223858 324.481 0 324.705 0 324.981H1ZM0 321.001C0 321.277 0.223858 321.501 0.5 321.501C0.776142 321.501 1 321.277 1 321.001H0ZM1 317.021C1 316.745 0.776142 316.521 0.5 316.521C0.223858 316.521 0 316.745 0 317.021H1ZM0 313.041C0 313.317 0.223858 313.541 0.5 313.541C0.776142 313.541 1 313.317 1 313.041H0ZM1 309.061C1 308.785 0.776142 308.561 0.5 308.561C0.223858 308.561 0 308.785 0 309.061H1ZM0 305.082C0 305.358 0.223858 305.582 0.5 305.582C0.776142 305.582 1 305.358 1 305.082H0ZM1 301.102C1 300.826 0.776142 300.602 0.5 300.602C0.223858 300.602 0 300.826 0 301.102H1ZM0 297.122C0 297.398 0.223858 297.622 0.5 297.622C0.776142 297.622 1 297.398 1 297.122H0ZM1 293.142C1 292.866 0.776142 292.642 0.5 292.642C0.223858 292.642 0 292.866 0 293.142H1ZM0 289.162C0 289.438 0.223858 289.662 0.5 289.662C0.776142 289.662 1 289.438 1 289.162H0ZM1 285.182C1 284.906 0.776142 284.682 0.5 284.682C0.223858 284.682 0 284.906 0 285.182H1ZM0 281.202C0 281.478 0.223858 281.702 0.5 281.702C0.776142 281.702 1 281.478 1 281.202H0ZM1 277.222C1 276.946 0.776142 276.722 0.5 276.722C0.223858 276.722 0 276.946 0 277.222H1ZM0 273.242C0 273.519 0.223858 273.742 0.5 273.742C0.776142 273.742 1 273.519 1 273.242H0ZM1 269.263C1 268.986 0.776142 268.763 0.5 268.763C0.223858 268.763 0 268.986 0 269.263H1ZM0 265.283C0 265.559 0.223858 265.783 0.5 265.783C0.776142 265.783 1 265.559 1 265.283H0ZM1 261.303C1 261.027 0.776142 260.803 0.5 260.803C0.223858 260.803 0 261.027 0 261.303H1ZM0 257.323C0 257.599 0.223858 257.823 0.5 257.823C0.776142 257.823 1 257.599 1 257.323H0ZM1 253.343C1 253.067 0.776142 252.843 0.5 252.843C0.223858 252.843 0 253.067 0 253.343H1ZM0 249.363C0 249.639 0.223858 249.863 0.5 249.863C0.776142 249.863 1 249.639 1 249.363H0ZM1 245.383C1 245.107 0.776142 244.883 0.5 244.883C0.223858 244.883 0 245.107 0 245.383H1ZM0 241.403C0 241.679 0.223858 241.903 0.5 241.903C0.776142 241.903 1 241.679 1 241.403H0ZM1 237.423C1 237.147 0.776142 236.923 0.5 236.923C0.223858 236.923 0 237.147 0 237.423H1ZM0 233.444C0 233.72 0.223858 233.944 0.5 233.944C0.776142 233.944 1 233.72 1 233.444H0ZM1 229.464C1 229.188 0.776142 228.964 0.5 228.964C0.223858 228.964 0 229.188 0 229.464H1ZM0 225.484C0 225.76 0.223858 225.984 0.5 225.984C0.776142 225.984 1 225.76 1 225.484H0ZM1 221.504C1 221.228 0.776142 221.004 0.5 221.004C0.223858 221.004 0 221.228 0 221.504H1ZM0 217.524C0 217.8 0.223858 218.024 0.5 218.024C0.776142 218.024 1 217.8 1 217.524H0ZM1 213.544C1 213.268 0.776142 213.044 0.5 213.044C0.223858 213.044 0 213.268 0 213.544H1ZM0 209.564C0 209.84 0.223858 210.064 0.5 210.064C0.776142 210.064 1 209.84 1 209.564H0ZM1 205.584C1 205.308 0.776142 205.084 0.5 205.084C0.223858 205.084 0 205.308 0 205.584H1ZM0 201.604C0 201.881 0.223858 202.104 0.5 202.104C0.776142 202.104 1 201.881 1 201.604H0ZM1 197.625C1 197.348 0.776142 197.125 0.5 197.125C0.223858 197.125 0 197.348 0 197.625H1ZM0 193.645C0 193.921 0.223858 194.145 0.5 194.145C0.776142 194.145 1 193.921 1 193.645H0ZM1 189.665C1 189.389 0.776142 189.165 0.5 189.165C0.223858 189.165 0 189.389 0 189.665H1ZM0 185.685C0 185.961 0.223858 186.185 0.5 186.185C0.776142 186.185 1 185.961 1 185.685H0ZM1 181.705C1 181.429 0.776142 181.205 0.5 181.205C0.223858 181.205 0 181.429 0 181.705H1ZM0 177.725C0 178.001 0.223858 178.225 0.5 178.225C0.776142 178.225 1 178.001 1 177.725H0ZM1 173.745C1 173.469 0.776142 173.245 0.5 173.245C0.223858 173.245 0 173.469 0 173.745H1ZM0 169.766C0 170.042 0.223858 170.266 0.5 170.266C0.776142 170.266 1 170.042 1 169.766H0ZM1 165.786C1 165.51 0.776142 165.286 0.5 165.286C0.223858 165.286 0 165.51 0 165.786H1ZM0 161.806C0 162.082 0.223858 162.306 0.5 162.306C0.776142 162.306 1 162.082 1 161.806H0ZM1 157.826C1 157.55 0.776142 157.326 0.5 157.326C0.223858 157.326 0 157.55 0 157.826H1ZM0 153.846C0 154.122 0.223858 154.346 0.5 154.346C0.776142 154.346 1 154.122 1 153.846H0ZM1 149.866C1 149.59 0.776142 149.366 0.5 149.366C0.223858 149.366 0 149.59 0 149.866H1ZM0 145.886C0 146.163 0.223858 146.386 0.5 146.386C0.776142 146.386 1 146.163 1 145.886H0ZM1 141.907C1 141.63 0.776142 141.407 0.5 141.407C0.223858 141.407 0 141.63 0 141.907H1ZM0 137.927C0 138.203 0.223858 138.427 0.5 138.427C0.776142 138.427 1 138.203 1 137.927H0ZM1 133.947C1 133.671 0.776142 133.447 0.5 133.447C0.223858 133.447 0 133.671 0 133.947H1ZM0 129.967C0 130.243 0.223858 130.467 0.5 130.467C0.776142 130.467 1 130.243 1 129.967H0ZM1 125.987C1 125.711 0.776142 125.487 0.5 125.487C0.223858 125.487 0 125.711 0 125.987H1ZM0 122.007C0 122.283 0.223858 122.507 0.5 122.507C0.776142 122.507 1 122.283 1 122.007H0ZM1 118.027C1 117.751 0.776142 117.527 0.5 117.527C0.223858 117.527 0 117.751 0 118.027H1ZM0 114.048C0 114.324 0.223858 114.548 0.5 114.548C0.776142 114.548 1 114.324 1 114.048H0ZM1 110.068C1 109.792 0.776142 109.568 0.5 109.568C0.223858 109.568 0 109.792 0 110.068H1ZM0 106.088C0 106.364 0.223858 106.588 0.5 106.588C0.776142 106.588 1 106.364 1 106.088H0ZM1 102.108C1 101.832 0.776142 101.608 0.5 101.608C0.223858 101.608 0 101.832 0 102.108H1ZM0 98.1282C0 98.4043 0.223858 98.6282 0.5 98.6282C0.776142 98.6282 1 98.4043 1 98.1282H0ZM1 94.1483C1 93.8722 0.776142 93.6483 0.5 93.6483C0.223858 93.6483 0 93.8722 0 94.1483H1ZM0 90.1684C0 90.4446 0.223858 90.6684 0.5 90.6684C0.776142 90.6684 1 90.4446 1 90.1684H0ZM1 86.1886C1 85.9124 0.776142 85.6886 0.5 85.6886C0.223858 85.6886 0 85.9124 0 86.1886H1ZM0 82.2087C0 82.4849 0.223858 82.7087 0.5 82.7087C0.776142 82.7087 1 82.4849 1 82.2087H0ZM1 78.2289C1 77.9527 0.776142 77.7289 0.5 77.7289C0.223858 77.7289 0 77.9527 0 78.2289H1ZM0 74.249C0 74.5252 0.223858 74.749 0.5 74.749C0.776142 74.749 1 74.5252 1 74.249H0ZM1 70.2692C1 69.993 0.776142 69.7692 0.5 69.7692C0.223858 69.7692 0 69.993 0 70.2692H1ZM0 66.2893C0 66.5655 0.223858 66.7893 0.5 66.7893C0.776142 66.7893 1 66.5655 1 66.2893H0ZM1 62.3095C1 62.0333 0.776142 61.8095 0.5 61.8095C0.223858 61.8095 0 62.0333 0 62.3095H1ZM0 58.3296C0 58.6057 0.223858 58.8296 0.5 58.8296C0.776142 58.8296 1 58.6057 1 58.3296H0ZM1 54.3497C1 54.0736 0.776142 53.8497 0.5 53.8497C0.223858 53.8497 0 54.0736 0 54.3497H1ZM0 50.3699C0 50.646 0.223858 50.8699 0.5 50.8699C0.776142 50.8699 1 50.646 1 50.3699H0ZM1 46.39C1 46.1139 0.776142 45.89 0.5 45.89C0.223858 45.89 0 46.1139 0 46.39H1ZM0 42.4102C0 42.6863 0.223858 42.9102 0.5 42.9102C0.776142 42.9102 1 42.6863 1 42.4102H0ZM1 38.4303C1 38.1542 0.776142 37.9303 0.5 37.9303C0.223858 37.9303 0 38.1542 0 38.4303H1ZM0 34.4505C0 34.7266 0.223858 34.9505 0.5 34.9505C0.776142 34.9505 1 34.7266 1 34.4505H0ZM1 30.4706C1 30.1944 0.776142 29.9706 0.5 29.9706C0.223858 29.9706 0 30.1944 0 30.4706H1ZM0 26.4907C0 26.7669 0.223858 26.9907 0.5 26.9907C0.776142 26.9907 1 26.7669 1 26.4907H0ZM1.07143 22.6538C1.09281 22.3785 0.886967 22.138 0.611655 22.1166C0.336342 22.0952 0.0958179 22.3011 0.0744295 22.5764L1.07143 22.6538ZM0.671779 18.7785C0.607524 19.0471 0.773149 19.3169 1.04171 19.3812C1.31027 19.4454 1.58008 19.2798 1.64433 19.0112L0.671779 18.7785ZM2.783 15.5046C2.88877 15.2495 2.76774 14.957 2.51266 14.8512C2.25758 14.7455 1.96505 14.8665 1.85927 15.1216L2.783 15.5046ZM3.60747 11.6969C3.46297 11.9322 3.53658 12.2401 3.7719 12.3846C4.00721 12.5291 4.31512 12.4555 4.45962 12.2202L3.60747 11.6969ZM6.62987 9.23797C6.80931 9.02807 6.78461 8.71245 6.57472 8.53302C6.36482 8.35358 6.0492 8.37827 5.86976 8.58817L6.62987 9.23797ZM8.58817 5.86976C8.37828 6.0492 8.35358 6.36481 8.53302 6.57471C8.71246 6.78461 9.02808 6.8093 9.23797 6.62986L8.58817 5.86976ZM12.2202 4.45962C12.4555 4.31511 12.5292 4.00721 12.3846 3.77189C12.2401 3.53658 11.9322 3.46296 11.6969 3.60747L12.2202 4.45962ZM15.1216 1.85927C14.8665 1.96505 14.7455 2.25758 14.8512 2.51266C14.957 2.76774 15.2495 2.88877 15.5046 2.78299L15.1216 1.85927ZM19.0112 1.64433C19.2798 1.58007 19.4454 1.31027 19.3812 1.04171C19.3169 0.773148 19.0471 0.607523 18.7786 0.671778L19.0112 1.64433ZM22.5764 0.0744291C22.3011 0.0958175 22.0952 0.336341 22.1166 0.611654C22.138 0.886967 22.3785 1.09281 22.6539 1.07143L22.5764 0.0744291ZM26.4375 1C26.7136 1 26.9375 0.776142 26.9375 0.5C26.9375 0.223858 26.7136 0 26.4375 0V1ZM30.3125 0C30.0364 0 29.8125 0.223858 29.8125 0.5C29.8125 0.776142 30.0364 1 30.3125 1V0ZM34.1875 1C34.4636 1 34.6875 0.776142 34.6875 0.5C34.6875 0.223858 34.4636 0 34.1875 0V1ZM38.0625 0C37.7864 0 37.5625 0.223858 37.5625 0.5C37.5625 0.776142 37.7864 1 38.0625 1V0ZM41.9375 1C42.2136 1 42.4375 0.776142 42.4375 0.5C42.4375 0.223858 42.2136 0 41.9375 0V1ZM45.8125 0C45.5364 0 45.3125 0.223858 45.3125 0.5C45.3125 0.776142 45.5364 1 45.8125 1V0ZM49.6875 1C49.9636 1 50.1875 0.776142 50.1875 0.5C50.1875 0.223858 49.9636 0 49.6875 0V1ZM53.5625 0C53.2864 0 53.0625 0.223858 53.0625 0.5C53.0625 0.776142 53.2864 1 53.5625 1V0ZM57.4375 1C57.7136 1 57.9375 0.776142 57.9375 0.5C57.9375 0.223858 57.7136 0 57.4375 0V1ZM61.3125 0C61.0364 0 60.8125 0.223858 60.8125 0.5C60.8125 0.776142 61.0364 1 61.3125 1V0ZM65.1875 1C65.4636 1 65.6875 0.776142 65.6875 0.5C65.6875 0.223858 65.4636 0 65.1875 0V1ZM69.0625 0C68.7864 0 68.5625 0.223858 68.5625 0.5C68.5625 0.776142 68.7864 1 69.0625 1V0ZM72.9375 1C73.2136 1 73.4375 0.776142 73.4375 0.5C73.4375 0.223858 73.2136 0 72.9375 0V1ZM76.8125 0C76.5364 0 76.3125 0.223858 76.3125 0.5C76.3125 0.776142 76.5364 1 76.8125 1V0ZM80.6875 1C80.9636 1 81.1875 0.776142 81.1875 0.5C81.1875 0.223858 80.9636 0 80.6875 0V1ZM84.5625 0C84.2864 0 84.0625 0.223858 84.0625 0.5C84.0625 0.776142 84.2864 1 84.5625 1V0ZM88.4375 1C88.7136 1 88.9375 0.776142 88.9375 0.5C88.9375 0.223858 88.7136 0 88.4375 0V1ZM92.3125 0C92.0364 0 91.8125 0.223858 91.8125 0.5C91.8125 0.776142 92.0364 1 92.3125 1V0ZM96.1875 1C96.4636 1 96.6875 0.776142 96.6875 0.5C96.6875 0.223858 96.4636 0 96.1875 0V1ZM100.062 0C99.7864 0 99.5625 0.223858 99.5625 0.5C99.5625 0.776142 99.7864 1 100.062 1V0ZM103.938 1C104.214 1 104.438 0.776142 104.438 0.5C104.438 0.223858 104.214 0 103.938 0V1ZM107.812 0C107.536 0 107.312 0.223858 107.312 0.5C107.312 0.776142 107.536 1 107.812 1V0ZM111.688 1C111.964 1 112.188 0.776142 112.188 0.5C112.188 0.223858 111.964 0 111.688 0V1ZM115.562 0C115.286 0 115.062 0.223858 115.062 0.5C115.062 0.776142 115.286 1 115.562 1V0ZM119.438 1C119.714 1 119.938 0.776142 119.938 0.5C119.938 0.223858 119.714 0 119.438 0V1ZM123.312 0C123.036 0 122.812 0.223858 122.812 0.5C122.812 0.776142 123.036 1 123.312 1V0ZM127.188 1C127.464 1 127.688 0.776142 127.688 0.5C127.688 0.223858 127.464 0 127.188 0V1ZM131.062 0C130.786 0 130.562 0.223858 130.562 0.5C130.562 0.776142 130.786 1 131.062 1V0ZM134.938 1C135.214 1 135.438 0.776142 135.438 0.5C135.438 0.223858 135.214 0 134.938 0V1ZM138.812 0C138.536 0 138.312 0.223858 138.312 0.5C138.312 0.776142 138.536 1 138.812 1V0ZM142.688 1C142.964 1 143.188 0.776142 143.188 0.5C143.188 0.223858 142.964 0 142.688 0V1ZM146.562 0C146.286 0 146.062 0.223858 146.062 0.5C146.062 0.776142 146.286 1 146.562 1V0ZM68.5 740.5H66.6667V741.5H68.5V740.5ZM63 740.5H59.3333V741.5H63V740.5ZM55.6667 740.5H52V741.5H55.6667V740.5ZM48.3333 740.5H44.6667V741.5H48.3333V740.5ZM41 740.5H37.3333V741.5H41V740.5ZM33.6667 740.5H30V741.5H33.6667V740.5ZM26.3333 740.5H24.5V741.5H26.3333V740.5ZM24.5 740.5C23.8786 740.5 23.2629 740.476 22.6538 740.429L22.5764 741.426C23.2112 741.475 23.8527 741.5 24.5 741.5V740.5ZM19.0112 739.856C17.8034 739.567 16.6319 739.184 15.5046 738.717L15.1216 739.641C16.2972 740.128 17.519 740.527 18.7785 740.828L19.0112 739.856ZM12.2202 737.04C11.1686 736.395 10.1717 735.668 9.23797 734.87L8.58817 735.63C9.56136 736.462 10.6006 737.219 11.6969 737.893L12.2202 737.04ZM6.62986 732.262C5.83166 731.328 5.10539 730.331 4.45962 729.28L3.60747 729.803C4.28071 730.899 5.03779 731.939 5.86976 732.912L6.62986 732.262ZM2.78299 725.995C2.31553 724.868 1.9333 723.697 1.64433 722.489L0.671778 722.721C0.973137 723.981 1.37177 725.203 1.85927 726.378L2.78299 725.995ZM1.07143 718.846C1.02411 718.237 1 717.621 1 717H0C0 717.647 0.025112 718.289 0.0744292 718.924L1.07143 718.846ZM1 717V715.01H0V717H1ZM1 711.03V707.05H0V711.03H1ZM1 703.07V699.091H0V703.07H1ZM1 695.111V691.131H0V695.111H1ZM1 687.151V683.171H0V687.151H1ZM1 679.191V675.211H0V679.191H1ZM1 671.231V667.251H0V671.231H1ZM1 663.272V659.292H0V663.272H1ZM1 655.312V651.332H0V655.312H1ZM1 647.352V643.372H0V647.352H1ZM1 639.392V635.412H0V639.392H1ZM1 631.432V627.453H0V631.432H1ZM1 623.473V619.493H0V623.473H1ZM1 615.513V611.533H0V615.513H1ZM1 607.553V603.573H0V607.553H1ZM1 599.593V595.613H0V599.593H1ZM1 591.634V587.654H0V591.634H1ZM1 583.674V579.694H0V583.674H1ZM1 575.714V571.734H0V575.714H1ZM1 567.754V563.774H0V567.754H1ZM1 559.794V555.815H0V559.794H1ZM1 551.835V547.855H0V551.835H1ZM1 543.875V539.895H0V543.875H1ZM1 535.915V531.935H0V535.915H1ZM1 527.955V523.975H0V527.955H1ZM1 519.996V516.016H0V519.996H1ZM1 512.036V508.056H0V512.036H1ZM1 504.076V500.096H0V504.076H1ZM1 496.116V492.136H0V496.116H1ZM1 488.156V484.177H0V488.156H1ZM1 480.197V476.217H0V480.197H1ZM1 472.237V468.257H0V472.237H1ZM1 464.277V460.297H0V464.277H1ZM1 456.317V452.337H0V456.317H1ZM1 448.358V444.378H0V448.358H1ZM1 440.398V436.418H0V440.398H1ZM1 432.438V428.458H0V432.438H1ZM1 424.478V420.498H0V424.478H1ZM1 416.518V412.539H0V416.518H1ZM1 408.559V404.579H0V408.559H1ZM1 400.599V396.619H0V400.599H1ZM1 392.639V388.659H0V392.639H1ZM1 384.679V380.699H0V384.679H1ZM1 376.72V372.74H0V376.72H1ZM1 368.76V364.78H0V368.76H1ZM1 360.8V356.82H0V360.8H1ZM1 352.84V348.86H0V352.84H1ZM1 344.88V340.901H0V344.88H1ZM1 336.921V332.941H0V336.921H1ZM1 328.961V324.981H0V328.961H1ZM1 321.001V317.021H0V321.001H1ZM1 313.041V309.061H0V313.041H1ZM1 305.082V301.102H0V305.082H1ZM1 297.122V293.142H0V297.122H1ZM1 289.162V285.182H0V289.162H1ZM1 281.202V277.222H0V281.202H1ZM1 273.242V269.263H0V273.242H1ZM1 265.283V261.303H0V265.283H1ZM1 257.323V253.343H0V257.323H1ZM1 249.363V245.383H0V249.363H1ZM1 241.403V237.423H0V241.403H1ZM1 233.444V229.464H0V233.444H1ZM1 225.484V221.504H0V225.484H1ZM1 217.524V213.544H0V217.524H1ZM1 209.564V205.584H0V209.564H1ZM1 201.604V197.625H0V201.604H1ZM1 193.645V189.665H0V193.645H1ZM1 185.685V181.705H0V185.685H1ZM1 177.725V173.745H0V177.725H1ZM1 169.766V165.786H0V169.766H1ZM1 161.806V157.826H0V161.806H1ZM1 153.846V149.866H0V153.846H1ZM1 145.886V141.907H0V145.886H1ZM1 137.927V133.947H0V137.927H1ZM1 129.967V125.987H0V129.967H1ZM1 122.007V118.027H0V122.007H1ZM1 114.048V110.068H0V114.048H1ZM1 106.088V102.108H0V106.088H1ZM1 98.1282V94.1483H0V98.1282H1ZM1 90.1684V86.1886H0V90.1684H1ZM1 82.2087V78.2289H0V82.2087H1ZM1 74.249V70.2692H0V74.249H1ZM1 66.2893V62.3095H0V66.2893H1ZM1 58.3296V54.3497H0V58.3296H1ZM1 50.3699V46.39H0V50.3699H1ZM1 42.4102V38.4303H0V42.4102H1ZM1 34.4505V30.4706H0V34.4505H1ZM1 26.4907V24.5H0V26.4907H1ZM1 24.5C1 23.8786 1.02411 23.2629 1.07143 22.6538L0.0744295 22.5764C0.0251122 23.2112 0 23.8527 0 24.5H1ZM1.64433 19.0112C1.9333 17.8034 2.31553 16.6319 2.783 15.5046L1.85927 15.1216C1.37177 16.2972 0.973139 17.519 0.671779 18.7785L1.64433 19.0112ZM4.45962 12.2202C5.1054 11.1686 5.83167 10.1717 6.62987 9.23797L5.86976 8.58817C5.0378 9.56136 4.28072 10.6006 3.60747 11.6969L4.45962 12.2202ZM9.23797 6.62986C10.1717 5.83166 11.1686 5.10539 12.2202 4.45962L11.6969 3.60747C10.6006 4.28071 9.56137 5.03779 8.58817 5.86976L9.23797 6.62986ZM15.5046 2.78299C16.6319 2.31553 17.8035 1.9333 19.0112 1.64433L18.7786 0.671778C17.519 0.973137 16.2972 1.37177 15.1216 1.85927L15.5046 2.78299ZM22.6539 1.07143C23.2629 1.02411 23.8786 1 24.5 1V0C23.8527 0 23.2112 0.025112 22.5764 0.0744291L22.6539 1.07143ZM24.5 1H26.4375V0H24.5V1ZM30.3125 1H34.1875V0H30.3125V1ZM38.0625 1H41.9375V0H38.0625V1ZM45.8125 1H49.6875V0H45.8125V1ZM53.5625 1H57.4375V0H53.5625V1ZM61.3125 1H65.1875V0H61.3125V1ZM69.0625 1H72.9375V0H69.0625V1ZM76.8125 1H80.6875V0H76.8125V1ZM84.5625 1H88.4375V0H84.5625V1ZM92.3125 1H96.1875V0H92.3125V1ZM100.062 1H103.938V0H100.062V1ZM107.812 1H111.688V0H107.812V1ZM115.562 1H119.438V0H115.562V1ZM123.312 1H127.188V0H123.312V1ZM131.062 1H134.938V0H131.062V1ZM138.812 1H142.688V0H138.812V1ZM146.562 1H148.5V0H146.562V1Z" fill="#97DBBB"/>
</svg>
