<svg width="31" height="30" viewBox="0 0 31 30" fill="none" xmlns="http://www.w3.org/2000/svg">
<rect width="31" height="29.3333" rx="10" fill="white"/>
<path d="M5.83333 11.6667C5.61232 11.6667 5.40036 11.5789 5.24408 11.4226C5.0878 11.2663 5 11.0543 5 10.8333V9.16667C5.00132 8.062 5.44073 7.00296 6.22185 6.22185C7.00296 5.44073 8.062 5.00132 9.16667 5H10.8333C11.0543 5 11.2663 5.0878 11.4226 5.24408C11.5789 5.40036 11.6667 5.61232 11.6667 5.83333C11.6667 6.05435 11.5789 6.26631 11.4226 6.42259C11.2663 6.57887 11.0543 6.66667 10.8333 6.66667H9.16667C8.50363 6.66667 7.86774 6.93006 7.3989 7.3989C6.93006 7.86774 6.66667 8.50363 6.66667 9.16667V10.8333C6.66667 11.0543 6.57887 11.2663 6.42259 11.4226C6.26631 11.5789 6.05435 11.6667 5.83333 11.6667Z" fill="#484848"/>
<path d="M24.5003 11.6667C24.2793 11.6667 24.0673 11.5789 23.9111 11.4226C23.7548 11.2663 23.667 11.0543 23.667 10.8333V9.16667C23.667 8.50363 23.4036 7.86774 22.9348 7.3989C22.4659 6.93006 21.83 6.66667 21.167 6.66667H19.5003C19.2793 6.66667 19.0673 6.57887 18.9111 6.42259C18.7548 6.26631 18.667 6.05435 18.667 5.83333C18.667 5.61232 18.7548 5.40036 18.9111 5.24408C19.0673 5.0878 19.2793 5 19.5003 5H21.167C22.2717 5.00132 23.3307 5.44073 24.1118 6.22185C24.8929 7.00296 25.3323 8.062 25.3337 9.16667V10.8333C25.3337 11.0543 25.2459 11.2663 25.0896 11.4226C24.9333 11.5789 24.7213 11.6667 24.5003 11.6667Z" fill="#484848"/>
<path d="M10.8333 24.3337H9.16667C8.062 24.3323 7.00296 23.8929 6.22185 23.1118C5.44073 22.3307 5.00132 21.2717 5 20.167V18.5003C5 18.2793 5.0878 18.0673 5.24408 17.9111C5.40036 17.7548 5.61232 17.667 5.83333 17.667C6.05435 17.667 6.26631 17.7548 6.42259 17.9111C6.57887 18.0673 6.66667 18.2793 6.66667 18.5003V20.167C6.66667 20.83 6.93006 21.4659 7.3989 21.9348C7.86774 22.4036 8.50363 22.667 9.16667 22.667H10.8333C11.0543 22.667 11.2663 22.7548 11.4226 22.9111C11.5789 23.0673 11.6667 23.2793 11.6667 23.5003C11.6667 23.7213 11.5789 23.9333 11.4226 24.0896C11.2663 24.2459 11.0543 24.3337 10.8333 24.3337Z" fill="#484848"/>
<path d="M21.167 24.3337H19.5003C19.2793 24.3337 19.0673 24.2459 18.9111 24.0896C18.7548 23.9333 18.667 23.7213 18.667 23.5003C18.667 23.2793 18.7548 23.0673 18.9111 22.9111C19.0673 22.7548 19.2793 22.667 19.5003 22.667H21.167C21.83 22.667 22.4659 22.4036 22.9348 21.9348C23.4036 21.4659 23.667 20.83 23.667 20.167V18.5003C23.667 18.2793 23.7548 18.0673 23.9111 17.9111C24.0673 17.7548 24.2793 17.667 24.5003 17.667C24.7213 17.667 24.9333 17.7548 25.0896 17.9111C25.2459 18.0673 25.3337 18.2793 25.3337 18.5003V20.167C25.3323 21.2717 24.8929 22.3307 24.1118 23.1118C23.3307 23.8929 22.2717 24.3323 21.167 24.3337Z" fill="#484848"/>
</svg>
