<svg width="32" height="32" viewBox="0 0 32 32" fill="none" xmlns="http://www.w3.org/2000/svg">
<path d="M6.66667 4C5.196 4 4 5.196 4 6.66667V25.3333C4 26.804 5.196 28 6.66667 28H15.4948H19.2187H25.3333C26.804 28 28 26.804 28 25.3333V6.66667C28 5.196 26.804 4 25.3333 4H6.66667ZM6.66667 6.66667H25.3333L25.3359 25.3333H19.2187V20.0469H22.3724L22.8411 16.4141H19.2396V14.099C19.2396 13.0483 19.5324 12.3385 21.0391 12.3385H22.9427V9.09635C22.016 9.00169 21.0856 8.95567 20.1536 8.95833C17.3883 8.95833 15.4948 10.6461 15.4948 13.7448V16.4193H12.3698V20.0521H15.4948V25.3333H6.66667V6.66667Z" fill="url(#paint0_linear_235_104)"/>
<defs>
<linearGradient id="paint0_linear_235_104" x1="4" y1="16" x2="28" y2="16" gradientUnits="userSpaceOnUse">
<stop stop-color="#1DBF73"/>
<stop offset="1" stop-color="#013913"/>
</linearGradient>
</defs>
</svg>
