<svg width="24" height="24" viewBox="0 0 24 24" fill="none" xmlns="http://www.w3.org/2000/svg">
<path d="M17.5048 1.91699C16.3788 1.93451 15.2773 2.24885 14.3116 2.82826C13.3459 3.40768 12.5502 4.23166 12.0048 5.21699C11.4595 4.23166 10.6638 3.40768 9.69808 2.82826C8.73238 2.24885 7.63089 1.93451 6.50484 1.91699C4.70978 1.99498 3.01855 2.78025 1.80062 4.10122C0.582701 5.4222 -0.0629094 7.17152 0.0048411 8.96699C0.0048411 13.514 4.79084 18.48 8.80484 21.847C9.70106 22.6001 10.8342 23.013 12.0048 23.013C13.1755 23.013 14.3086 22.6001 15.2048 21.847C19.2188 18.48 24.0048 13.514 24.0048 8.96699C24.0726 7.17152 23.427 5.4222 22.2091 4.10122C20.9911 2.78025 19.2999 1.99498 17.5048 1.91699Z" fill="#FF0000"/>
</svg>
