<svg width="24" height="24" viewBox="0 0 24 24" fill="none" xmlns="http://www.w3.org/2000/svg">
<path d="M17.5048 1.91699C16.3788 1.93451 15.2773 2.24885 14.3116 2.82826C13.3459 3.40768 12.5502 4.23166 12.0048 5.21699C11.4595 4.23166 10.6638 3.40768 9.69808 2.82826C8.73238 2.24885 7.63089 1.93451 6.50484 1.91699C4.70978 1.99498 3.01855 2.78025 1.80062 4.10122C0.582701 5.4222 -0.0629094 7.17152 0.0048411 8.96699C0.0048411 13.514 4.79084 18.48 8.80484 21.847C9.70106 22.6001 10.8342 23.013 12.0048 23.013C13.1755 23.013 14.3086 22.6001 15.2048 21.847C19.2188 18.48 24.0048 13.514 24.0048 8.96699C24.0726 7.17152 23.427 5.4222 22.2091 4.10122C20.9911 2.78025 19.2999 1.99498 17.5048 1.91699ZM13.9198 20.317C13.3838 20.7684 12.7056 21.0159 12.0048 21.0159C11.3041 21.0159 10.6259 20.7684 10.0898 20.317C4.95184 16.006 2.00484 11.87 2.00484 8.96699C1.93648 7.70171 2.37121 6.46072 3.2142 5.51469C4.0572 4.56866 5.24008 3.99434 6.50484 3.91699C7.76961 3.99434 8.95248 4.56866 9.79548 5.51469C10.6385 6.46072 11.0732 7.70171 11.0048 8.96699C11.0048 9.23221 11.1102 9.48656 11.2977 9.6741C11.4853 9.86164 11.7396 9.96699 12.0048 9.96699C12.2701 9.96699 12.5244 9.86164 12.7119 9.6741C12.8995 9.48656 13.0048 9.23221 13.0048 8.96699C12.9365 7.70171 13.3712 6.46072 14.2142 5.51469C15.0572 4.56866 16.2401 3.99434 17.5048 3.91699C18.7696 3.99434 19.9525 4.56866 20.7955 5.51469C21.6385 6.46072 22.0732 7.70171 22.0048 8.96699C22.0048 11.87 19.0578 16.006 13.9198 20.313V20.317Z" fill="black"/>
</svg>
