<svg width="17" height="18" viewBox="0 0 17 18" fill="none" xmlns="http://www.w3.org/2000/svg">
<path fill-rule="evenodd" clip-rule="evenodd" d="M3.375 17.1H12.825C14.686 17.1 16.2 15.5015 16.2 13.5375V6.9297C16.2 5.74363 15.6445 4.64019 14.7137 3.97699L9.98865 0.612537C8.84115 -0.204535 7.35818 -0.203823 6.21203 0.612537L1.48703 3.9777C0.555525 4.64162 0 5.74506 0 6.93042V13.5382C0 15.5022 1.51403 17.1 3.375 17.1ZM6.96735 1.79433C7.3116 1.54928 7.7058 1.42676 8.10068 1.42676C8.49488 1.42676 8.88908 1.54928 9.23333 1.79433L13.9583 5.15879C14.5166 5.55628 14.85 6.21877 14.85 6.93042V13.5382C14.85 14.7165 13.9415 15.6753 12.825 15.6753H3.375C2.25855 15.6753 1.35 14.7165 1.35 13.5382V6.93042C1.35 6.21877 1.68345 5.55699 2.24235 5.15879L6.96735 1.79433Z" fill="#013913"/>
</svg>
