<svg width="355" height="231" viewBox="0 0 355 231" fill="none" xmlns="http://www.w3.org/2000/svg">
<path d="M51.0625 1C51.0625 0.447715 50.6148 0 50.0625 0C49.5102 0 49.0625 0.447715 49.0625 1H51.0625ZM49.0625 77.9297C49.0625 78.482 49.5102 78.9297 50.0625 78.9297C50.6148 78.9297 51.0625 78.482 51.0625 77.9297H49.0625ZM51.0625 112.055C51.0625 111.502 50.6148 111.055 50.0625 111.055C49.5102 111.055 49.0625 111.502 49.0625 112.055H51.0625ZM159.25 177.497C159.802 177.497 160.25 177.05 160.25 176.497C160.25 175.945 159.802 175.497 159.25 175.497V177.497ZM227.5 175.497C226.947 175.497 226.5 175.945 226.5 176.497C226.5 177.05 226.947 177.497 227.5 177.497V175.497ZM346.355 230.707C346.746 231.098 347.379 231.098 347.77 230.707L354.134 224.343C354.524 223.953 354.524 223.319 354.134 222.929C353.743 222.538 353.11 222.538 352.719 222.929L347.062 228.586L341.406 222.929C341.015 222.538 340.382 222.538 339.991 222.929C339.601 223.319 339.601 223.953 339.991 224.343L346.355 230.707ZM49.0625 1V77.9297H51.0625V1H49.0625ZM49.0625 112.055V152.497H51.0625V112.055H49.0625ZM74.0625 177.497H159.25V175.497H74.0625V177.497ZM227.5 177.497H323.062V175.497H227.5V177.497ZM346.062 200.497V230H348.062V200.497H346.062ZM323.062 177.497C335.765 177.497 346.062 187.795 346.062 200.497H348.062C348.062 186.69 336.87 175.497 323.062 175.497V177.497ZM49.0625 152.497C49.0625 166.305 60.2554 177.497 74.0625 177.497V175.497C61.36 175.497 51.0625 165.2 51.0625 152.497H49.0625Z" fill="#013913"/>
<path d="M7.95247 99.4922V89.4707H9.97591V93.9209L14.0638 89.4707H16.7845L13.0111 93.374L16.9896 99.4922H14.3714L11.6165 94.7891L9.97591 96.4639V99.4922H7.95247ZM22.0787 97.1816L23.9928 97.5029C23.7467 98.2048 23.3571 98.7402 22.8239 99.1094C22.2952 99.474 21.6321 99.6562 20.8346 99.6562C19.5722 99.6562 18.638 99.2438 18.0319 98.4189C17.5534 97.7581 17.3141 96.9242 17.3141 95.917C17.3141 94.7139 17.6285 93.7728 18.2575 93.0938C18.8864 92.4102 19.6816 92.0684 20.6432 92.0684C21.7233 92.0684 22.5755 92.4261 23.1998 93.1416C23.8242 93.8525 24.1227 94.944 24.0953 96.416H19.2828C19.2965 96.9857 19.4515 97.43 19.7477 97.749C20.0439 98.0635 20.4131 98.2207 20.8551 98.2207C21.1559 98.2207 21.4088 98.1387 21.6139 97.9746C21.819 97.8105 21.9739 97.5462 22.0787 97.1816ZM22.1881 95.2402C22.1744 94.6842 22.0309 94.2627 21.7575 93.9756C21.484 93.6839 21.1513 93.5381 20.7594 93.5381C20.3401 93.5381 19.9938 93.6908 19.7203 93.9961C19.4469 94.3014 19.3125 94.7161 19.317 95.2402H22.1881ZM24.6044 92.2324H26.6484L28.3847 97.3867L30.08 92.2324H32.0693L29.5058 99.2188L29.0478 100.483C28.8792 100.907 28.7174 101.231 28.5624 101.454C28.412 101.677 28.2366 101.857 28.0361 101.994C27.8401 102.135 27.5963 102.245 27.3046 102.322C27.0175 102.4 26.6917 102.438 26.3271 102.438C25.9579 102.438 25.5956 102.4 25.2402 102.322L25.0693 100.818C25.3701 100.878 25.6412 100.907 25.8827 100.907C26.3294 100.907 26.6598 100.775 26.874 100.511C27.0882 100.251 27.2522 99.9183 27.3661 99.5127L24.6044 92.2324ZM36.9224 99.4922V89.4707H43.7925V91.166H38.9458V93.5381H43.1294V95.2334H38.9458V99.4922H36.9224ZM49.5038 97.1816L51.4178 97.5029C51.1717 98.2048 50.7821 98.7402 50.2489 99.1094C49.7202 99.474 49.0571 99.6562 48.2596 99.6562C46.9972 99.6562 46.063 99.2438 45.4569 98.4189C44.9784 97.7581 44.7391 96.9242 44.7391 95.917C44.7391 94.7139 45.0536 93.7728 45.6825 93.0938C46.3114 92.4102 47.1066 92.0684 48.0682 92.0684C49.1483 92.0684 50.0005 92.4261 50.6249 93.1416C51.2492 93.8525 51.5477 94.944 51.5204 96.416H46.7079C46.7215 96.9857 46.8765 97.43 47.1727 97.749C47.4689 98.0635 47.8381 98.2207 48.2801 98.2207C48.5809 98.2207 48.8338 98.1387 49.0389 97.9746C49.244 97.8105 49.3989 97.5462 49.5038 97.1816ZM49.6131 95.2402C49.5995 94.6842 49.4559 94.2627 49.1825 93.9756C48.909 93.6839 48.5763 93.5381 48.1844 93.5381C47.7652 93.5381 47.4188 93.6908 47.1454 93.9961C46.8719 94.3014 46.7375 94.7161 46.742 95.2402H49.6131ZM54.3742 94.4473L52.631 94.1328C52.827 93.431 53.1642 92.9115 53.6427 92.5742C54.1212 92.237 54.8322 92.0684 55.7755 92.0684C56.6323 92.0684 57.2703 92.1709 57.6896 92.376C58.1089 92.5765 58.4028 92.834 58.5714 93.1484C58.7446 93.4583 58.8312 94.0303 58.8312 94.8643L58.8107 97.1064C58.8107 97.7445 58.8403 98.2161 58.8996 98.5215C58.9634 98.8223 59.0796 99.1458 59.2482 99.4922H57.3478C57.2977 99.3646 57.2362 99.1755 57.1632 98.9248C57.1313 98.8109 57.1085 98.7357 57.0949 98.6992C56.7668 99.0182 56.4158 99.2575 56.0421 99.417C55.6684 99.5765 55.2697 99.6562 54.8459 99.6562C54.0985 99.6562 53.5083 99.4535 53.0753 99.0479C52.647 98.6423 52.4328 98.1296 52.4328 97.5098C52.4328 97.0996 52.5307 96.735 52.7267 96.416C52.9227 96.0924 53.1961 95.8464 53.547 95.6777C53.9025 95.5046 54.4129 95.3542 55.0783 95.2266C55.9761 95.0579 56.5981 94.9007 56.9445 94.7549V94.5635C56.9445 94.1943 56.8533 93.9323 56.671 93.7773C56.4888 93.6178 56.1447 93.5381 55.6388 93.5381C55.297 93.5381 55.0304 93.6064 54.839 93.7432C54.6476 93.8753 54.4927 94.11 54.3742 94.4473ZM56.9445 96.0059C56.6984 96.0879 56.3087 96.1859 55.7755 96.2998C55.2423 96.4137 54.8937 96.5254 54.7296 96.6348C54.479 96.8125 54.3537 97.0381 54.3537 97.3115C54.3537 97.5804 54.4539 97.8128 54.6544 98.0088C54.855 98.2048 55.1102 98.3027 55.4201 98.3027C55.7664 98.3027 56.0968 98.1888 56.4113 97.9609C56.6437 97.7878 56.7964 97.5758 56.8693 97.3252C56.9194 97.1611 56.9445 96.849 56.9445 96.3887V96.0059ZM63.9067 92.2324V93.7637H62.5942V96.6895C62.5942 97.2819 62.6056 97.6283 62.6284 97.7285C62.6557 97.8242 62.7127 97.904 62.7993 97.9678C62.8904 98.0316 62.9998 98.0635 63.1274 98.0635C63.3051 98.0635 63.5626 98.002 63.8999 97.8789L64.0639 99.3691C63.6173 99.5605 63.1114 99.6562 62.5463 99.6562C62.2 99.6562 61.8878 99.5993 61.6098 99.4854C61.3318 99.3669 61.1267 99.2165 60.9946 99.0342C60.867 98.8473 60.7781 98.5967 60.728 98.2822C60.687 98.0589 60.6665 97.6077 60.6665 96.9287V93.7637H59.7846V92.2324H60.6665V90.79L62.5942 89.6689V92.2324H63.9067ZM69.864 99.4922V98.4053C69.5997 98.7926 69.2511 99.098 68.8181 99.3213C68.3897 99.5446 67.9363 99.6562 67.4578 99.6562C66.9701 99.6562 66.5326 99.5492 66.1453 99.335C65.7579 99.1208 65.4776 98.82 65.3045 98.4326C65.1313 98.0452 65.0447 97.5098 65.0447 96.8262V92.2324H66.9656V95.5684C66.9656 96.5892 66.9998 97.2158 67.0681 97.4482C67.141 97.6761 67.2709 97.8584 67.4578 97.9951C67.6446 98.1273 67.8816 98.1934 68.1687 98.1934C68.4968 98.1934 68.7908 98.1045 69.0505 97.9268C69.3103 97.7445 69.488 97.5212 69.5838 97.2568C69.6795 96.988 69.7273 96.334 69.7273 95.2949V92.2324H71.6482V99.4922H69.864ZM75.3292 99.4922H73.4083V92.2324H75.1924V93.2646C75.4978 92.777 75.7712 92.4557 76.0128 92.3008C76.2589 92.1458 76.5368 92.0684 76.8467 92.0684C77.2842 92.0684 77.7058 92.1891 78.1114 92.4307L77.5167 94.1055C77.1931 93.8958 76.8923 93.791 76.6143 93.791C76.3454 93.791 76.1176 93.8662 75.9307 94.0166C75.7439 94.1624 75.5958 94.429 75.4864 94.8164C75.3816 95.2038 75.3292 96.015 75.3292 97.25V99.4922ZM82.9955 97.1816L84.9095 97.5029C84.6634 98.2048 84.2738 98.7402 83.7406 99.1094C83.2119 99.474 82.5489 99.6562 81.7513 99.6562C80.489 99.6562 79.5547 99.2438 78.9486 98.4189C78.4701 97.7581 78.2308 96.9242 78.2308 95.917C78.2308 94.7139 78.5453 93.7728 79.1742 93.0938C79.8031 92.4102 80.5983 92.0684 81.5599 92.0684C82.64 92.0684 83.4922 92.4261 84.1166 93.1416C84.7409 93.8525 85.0394 94.944 85.0121 96.416H80.1996C80.2132 96.9857 80.3682 97.43 80.6644 97.749C80.9606 98.0635 81.3298 98.2207 81.7718 98.2207C82.0726 98.2207 82.3256 98.1387 82.5306 97.9746C82.7357 97.8105 82.8907 97.5462 82.9955 97.1816ZM83.1049 95.2402C83.0912 94.6842 82.9476 94.2627 82.6742 93.9756C82.4007 93.6839 82.0681 93.5381 81.6761 93.5381C81.2569 93.5381 80.9105 93.6908 80.6371 93.9961C80.3636 94.3014 80.2292 94.7161 80.2338 95.2402H83.1049ZM85.7536 97.4209L87.6813 97.127C87.7634 97.5007 87.9297 97.7855 88.1803 97.9814C88.431 98.1729 88.7819 98.2686 89.2331 98.2686C89.7298 98.2686 90.1035 98.1774 90.3542 97.9951C90.5228 97.8675 90.6071 97.6966 90.6071 97.4824C90.6071 97.3366 90.5615 97.2158 90.4704 97.1201C90.3747 97.029 90.1605 96.9447 89.8278 96.8672C88.2783 96.5254 87.2962 96.2132 86.8815 95.9307C86.3073 95.5387 86.0202 94.9941 86.0202 94.2969C86.0202 93.668 86.2686 93.1393 86.7653 92.7109C87.262 92.2826 88.0322 92.0684 89.0759 92.0684C90.0693 92.0684 90.8076 92.2301 91.2907 92.5537C91.7738 92.8773 92.1065 93.3558 92.2887 93.9893L90.4772 94.3242C90.3997 94.0417 90.2516 93.8252 90.0329 93.6748C89.8187 93.5244 89.5111 93.4492 89.11 93.4492C88.6042 93.4492 88.2419 93.5199 88.0231 93.6611C87.8773 93.7614 87.8044 93.8913 87.8044 94.0508C87.8044 94.1875 87.8682 94.3037 87.9958 94.3994C88.169 94.527 88.766 94.707 89.7868 94.9395C90.8122 95.1719 91.5277 95.4567 91.9333 95.7939C92.3343 96.1357 92.5348 96.612 92.5348 97.2227C92.5348 97.888 92.2568 98.46 91.7009 98.9385C91.1449 99.417 90.3223 99.6562 89.2331 99.6562C88.2441 99.6562 87.4603 99.4557 86.8815 99.0547C86.3073 98.6536 85.9313 98.109 85.7536 97.4209Z" fill="black" fill-opacity="0.8"/>
</svg>
