<svg width="50" height="50" viewBox="0 0 50 50" fill="none" xmlns="http://www.w3.org/2000/svg">
<g clip-path="url(#clip0_167_274)">
<path d="M27.125 1.125V5.375C27.125 5.93859 26.9011 6.47909 26.5026 6.8776C26.1041 7.27612 25.5636 7.5 25 7.5C24.4364 7.5 23.8959 7.27612 23.4974 6.8776C23.0989 6.47909 22.875 5.93859 22.875 5.375V1.125C22.875 0.561415 23.0989 0.0209129 23.4974 -0.377602C23.8959 -0.776117 24.4364 -1 25 -1C25.5636 -1 26.1041 -0.776117 26.5026 -0.377602C26.9011 0.0209129 27.125 0.561415 27.125 1.125ZM25 41.5C24.4364 41.5 23.8959 41.7239 23.4974 42.1224C23.0989 42.5209 22.875 43.0614 22.875 43.625V47.875C22.875 48.4386 23.0989 48.9791 23.4974 49.3776C23.8959 49.7761 24.4364 50 25 50C25.5636 50 26.1041 49.7761 26.5026 49.3776C26.9011 48.9791 27.125 48.4386 27.125 47.875V43.625C27.125 43.0614 26.9011 42.5209 26.5026 42.1224C26.1041 41.7239 25.5636 41.5 25 41.5ZM8 24.5C8 23.9364 7.77612 23.3959 7.3776 22.9974C6.97909 22.5989 6.43859 22.375 5.875 22.375H1.625C1.06141 22.375 0.520913 22.5989 0.122398 22.9974C-0.276117 23.3959 -0.5 23.9364 -0.5 24.5C-0.5 25.0636 -0.276117 25.6041 0.122398 26.0026C0.520913 26.4011 1.06141 26.625 1.625 26.625H5.875C6.43859 26.625 6.97909 26.4011 7.3776 26.0026C7.77612 25.6041 8 25.0636 8 24.5ZM48.375 22.375H44.125C43.5614 22.375 43.0209 22.5989 42.6224 22.9974C42.2239 23.3959 42 23.9364 42 24.5C42 25.0636 42.2239 25.6041 42.6224 26.0026C43.0209 26.4011 43.5614 26.625 44.125 26.625H48.375C48.9386 26.625 49.4791 26.4011 49.8776 26.0026C50.2761 25.6041 50.5 25.0636 50.5 24.5C50.5 23.9364 50.2761 23.3959 49.8776 22.9974C49.4791 22.5989 48.9386 22.375 48.375 22.375ZM37.7882 2.43825C37.5467 2.29822 37.28 2.20715 37.0033 2.17023C36.7266 2.13332 36.4453 2.1513 36.1755 2.22313C35.9058 2.29496 35.6528 2.41924 35.4311 2.58888C35.2094 2.75851 35.0233 2.97016 34.8834 3.21175L32.7584 6.89013C32.4764 7.37794 32.3997 7.95775 32.5452 8.50209C32.6906 9.04643 33.0463 9.51072 33.534 9.79288C33.8563 9.98137 34.2231 10.0804 34.5965 10.0798C34.9695 10.0797 35.3359 9.98155 35.659 9.79504C35.982 9.60853 36.2502 9.34028 36.4367 9.01725L38.5617 5.33888C38.8432 4.85151 38.9198 4.2724 38.7748 3.72861C38.6298 3.18481 38.275 2.72075 37.7882 2.43825ZM16.4724 39.2071C15.9848 38.925 15.4052 38.848 14.8609 38.993C14.3166 39.1381 13.8521 39.4933 13.5696 39.9806L11.4446 43.659C11.1625 44.1466 11.0855 44.7262 11.2305 45.2705C11.3756 45.8148 11.7308 46.2792 12.2181 46.5617C12.5405 46.7501 12.9073 46.8491 13.2806 46.8486C13.654 46.849 14.0209 46.751 14.3443 46.5644C14.6677 46.3779 14.9363 46.1095 15.123 45.7861L17.248 42.1077C17.5293 41.6201 17.6056 41.0408 17.4602 40.497C17.3148 39.9532 16.9595 39.4893 16.4724 39.2071ZM9.51937 13.0696L5.841 10.9446C5.35449 10.6828 4.78513 10.6208 4.25365 10.7717C3.72217 10.9225 3.27034 11.2745 2.99397 11.7529C2.71761 12.2313 2.63842 12.7985 2.77321 13.3343C2.908 13.8701 3.24616 14.3323 3.716 14.623L7.39437 16.748C7.88089 17.0098 8.45024 17.0719 8.98173 16.921C9.51321 16.7701 9.96503 16.4181 10.2414 15.9397C10.5178 15.4613 10.597 14.8941 10.4622 14.3583C10.3274 13.8225 9.98922 13.3603 9.51937 13.0696ZM46.2819 34.3834L42.6035 32.2584C42.117 31.9966 41.5476 31.9345 41.0162 32.0854C40.4847 32.2363 40.0328 32.5882 39.7565 33.0666C39.4801 33.545 39.4009 34.1123 39.5357 34.6481C39.6705 35.1838 40.0087 35.6461 40.4785 35.9367L44.1569 38.0617C44.4792 38.2502 44.846 38.3493 45.2194 38.3486C45.6871 38.3486 46.1418 38.1942 46.5129 37.9095C46.884 37.6247 47.1508 37.2254 47.2719 36.7736C47.3929 36.3218 47.3615 35.8426 47.1825 35.4105C47.0036 34.9783 46.687 34.6173 46.2819 34.3834ZM15.1166 3.21175C14.826 2.74191 14.3637 2.40375 13.8279 2.26896C13.2921 2.13417 12.7249 2.21336 12.2465 2.48972C11.7681 2.76609 11.4162 3.21792 11.2653 3.7494C11.1144 4.28088 11.1764 4.85024 11.4382 5.33675L13.5632 9.01512C13.7498 9.33816 14.018 9.60641 14.341 9.79292C14.6641 9.97942 15.0305 10.0776 15.4035 10.0776C15.7769 10.0783 16.1437 9.97925 16.466 9.79075C16.9537 9.50859 17.3094 9.0443 17.4548 8.49997C17.6003 7.95563 17.5236 7.37581 17.2416 6.888L15.1166 3.21175ZM36.4304 39.9743C36.1397 39.5044 35.6775 39.1662 35.1417 39.0315C34.6059 38.8967 34.0387 38.9759 33.5603 39.2522C33.0819 39.5286 32.7299 39.9804 32.579 40.5119C32.4281 41.0434 32.4902 41.6127 32.752 42.0993L34.877 45.7776C35.1677 46.2475 35.6299 46.5856 36.1657 46.7204C36.7015 46.8552 37.2687 46.776 37.7471 46.4997C38.2255 46.2233 38.5775 45.7715 38.7283 45.24C38.8792 44.7085 38.8172 44.1391 38.5554 43.6526L36.4304 39.9743ZM41.5474 17.0243C41.9204 17.0242 42.2868 16.926 42.6099 16.7395L46.2882 14.6145C46.7581 14.3238 47.0963 13.8616 47.231 13.3258C47.3658 12.79 47.2866 12.2228 47.0103 11.7444C46.7339 11.266 46.2821 10.914 45.7506 10.7632C45.2191 10.6123 44.6498 10.6743 44.1632 10.9361L40.4849 13.0611C40.0808 13.2955 39.7653 13.6565 39.587 14.0882C39.4087 14.5199 39.3777 14.9984 39.4986 15.4495C39.6196 15.9007 39.8858 16.2994 40.2561 16.5841C40.6265 16.8687 41.0803 17.0234 41.5474 17.0243ZM7.39013 32.252L3.71175 34.377C3.30666 34.6109 2.99007 34.9719 2.81108 35.4041C2.63208 35.8363 2.60068 36.3154 2.72175 36.7672C2.84282 37.2191 3.10959 37.6183 3.48069 37.9031C3.85179 38.1879 4.30648 38.3422 4.77425 38.3423C5.14764 38.3429 5.51443 38.2439 5.83675 38.0554L9.51512 35.9304C9.98497 35.6397 10.3231 35.1775 10.4579 34.6417C10.5927 34.1059 10.5135 33.5387 10.2372 33.0603C9.96078 32.5819 9.50896 32.2299 8.97748 32.079C8.44599 31.9281 7.87664 31.9902 7.39013 32.252Z" fill="white"/>
</g>
<defs>
<clipPath id="clip0_167_274">
<rect width="50" height="50" fill="white"/>
</clipPath>
</defs>
</svg>
