<svg width="18" height="18" viewBox="0 0 18 18" fill="none" xmlns="http://www.w3.org/2000/svg">
<g clip-path="url(#clip0_76_511)">
<path d="M9 18C7.7805 18 6.63 17.4645 5.844 16.5308C4.689 16.6635 3.49875 16.2262 2.63625 15.3645C1.7745 14.502 1.3395 13.3095 1.44375 12.093C0.5355 11.37 0 10.2195 0 9C0 7.7805 0.5355 6.63 1.47 5.844C1.33875 4.69125 1.77375 3.49875 2.63625 2.63625C3.49875 1.773 4.689 1.33875 5.907 1.44375C6.63 0.53625 7.7805 0 9 0C10.2195 0 11.37 0.5355 12.156 1.46925C13.3125 1.33725 14.5013 1.77375 15.3638 2.6355C16.2255 3.498 16.6605 4.6905 16.5563 5.907C17.4645 6.63 18 7.7805 18 9C18 10.2195 17.4645 11.37 16.53 12.156C16.6613 13.3088 16.2262 14.5013 15.3638 15.3638C14.5005 16.2262 13.308 16.6605 12.093 16.5563C11.37 17.4638 10.2195 18 9 18ZM5.90475 15.057C6.3255 15.057 6.7155 15.2378 6.99075 15.564C7.49175 16.1588 8.22375 16.5 9 16.5C9.77625 16.5 10.5083 16.1588 11.0092 15.564C11.3115 15.2048 11.7517 15.0233 12.2213 15.0615C12.9967 15.1268 13.7542 14.8515 14.3032 14.3025C14.8515 13.7542 15.1283 12.9953 15.0623 12.2205C15.0218 11.7525 15.2048 11.3108 15.5648 11.0077C16.1588 10.5075 16.5 9.77475 16.5 8.99925C16.5 8.22375 16.1588 7.491 15.5648 6.99075C15.2055 6.6885 15.0218 6.246 15.0623 5.778C15.1283 5.00325 14.8522 4.24425 14.3032 3.696C13.7542 3.14775 12.9922 2.874 12.222 2.937C11.7525 2.97975 11.3115 2.79375 11.0092 2.43525C10.5083 1.8405 9.77625 1.49925 9 1.49925C8.22375 1.49925 7.49175 1.8405 6.99075 2.43525C6.68775 2.7945 6.246 2.9745 5.77875 2.93775C4.9995 2.87025 4.24575 3.14775 3.69675 3.69675C3.1485 4.245 2.87175 5.004 2.93775 5.77875C2.97825 6.24675 2.79525 6.6885 2.43525 6.9915C1.84125 7.49175 1.5 8.2245 1.5 9C1.5 9.7755 1.84125 10.5083 2.43525 11.0085C2.7945 11.3108 2.97825 11.7533 2.93775 12.2213C2.87175 12.996 3.14775 13.755 3.69675 14.3032C4.24575 14.8522 5.0115 15.1267 5.778 15.0623C5.82075 15.0585 5.86275 15.057 5.90475 15.057ZM6.75 6C6.336 6 6 6.336 6 6.75C6 7.164 6.336 7.5 6.75 7.5C7.164 7.5 7.5 7.164 7.5 6.75C7.5 6.336 7.164 6 6.75 6ZM11.25 10.5C10.836 10.5 10.5 10.836 10.5 11.25C10.5 11.664 10.836 12 11.25 12C11.664 12 12 11.664 12 11.25C12 10.836 11.664 10.5 11.25 10.5ZM8.124 11.6663L11.124 7.16625C11.3542 6.822 11.2613 6.3555 10.9163 6.126C10.5705 5.895 10.1055 5.9895 9.876 6.33375L6.876 10.8337C6.64575 11.178 6.73875 11.6445 7.08375 11.874C7.212 11.9595 7.356 12 7.49925 12C7.7415 12 7.98 11.883 8.124 11.6663Z" fill="black"/>
</g>
<defs>
<clipPath id="clip0_76_511">
<rect width="18" height="18" fill="white"/>
</clipPath>
</defs>
</svg>
