<svg width="18" height="18" viewBox="0 0 18 18" fill="none" xmlns="http://www.w3.org/2000/svg">
<g clip-path="url(#clip0_117_395)">
<path d="M8.92728 11.9999C9.54828 11.9999 10.0523 12.5039 10.0523 13.1249C10.0523 13.7459 9.54828 14.2499 8.92728 14.2499C8.30628 14.2499 7.80228 13.7459 7.80228 13.1249C7.80228 12.5039 8.30628 11.9999 8.92728 11.9999ZM9.67728 10.4999C9.67728 10.0792 9.98328 9.5812 10.3733 9.36595C11.4983 8.74645 12.1035 7.4737 11.88 6.1987C11.6678 4.98895 10.6748 3.9952 9.46428 3.78295C8.57778 3.62995 7.67928 3.86695 6.99753 4.43845C6.31728 5.0107 5.92653 5.8477 5.92653 6.7357C5.92653 7.15045 6.26253 7.4857 6.67653 7.4857C7.09053 7.4857 7.42653 7.15045 7.42653 6.7357C7.42653 6.2917 7.62153 5.8732 7.96203 5.5867C8.30778 5.2972 8.75103 5.1802 9.20478 5.26045C9.79503 5.36395 10.2983 5.86795 10.4018 6.45745C10.5165 7.1107 10.221 7.7362 9.64878 8.0512C8.78178 8.52895 8.17653 9.53545 8.17653 10.4992C8.17653 10.9139 8.51253 11.2492 8.92653 11.2492C9.34053 11.2492 9.67653 10.9139 9.67653 10.4992L9.67728 10.4999ZM17.9993 14.2499V9.25495C17.9993 4.3957 14.3213 0.340447 9.62628 0.0209474C7.02003 -0.151553 4.47003 0.799447 2.63103 2.6407C0.792026 4.4827 -0.158974 7.03345 0.0217762 9.64045C0.351776 14.4059 4.56078 17.9999 9.81228 17.9999H14.25C16.3178 17.9999 17.9993 16.3177 17.9993 14.2499ZM9.52503 1.51795C13.4363 1.78345 16.4993 5.1817 16.4993 9.2542V14.2492C16.4993 15.4897 15.4898 16.4992 14.2493 16.4992H9.81153C5.28528 16.4992 1.79703 13.5712 1.51728 9.5362C1.36653 7.36195 2.15853 5.23495 3.69153 3.70045C5.10303 2.2867 7.01778 1.49995 9.01053 1.49995C9.18153 1.49995 9.35328 1.50595 9.52428 1.5172L9.52503 1.51795Z" fill="#013913"/>
</g>
<defs>
<clipPath id="clip0_117_395">
<rect width="18" height="18" fill="white"/>
</clipPath>
</defs>
</svg>
