<svg width="11" height="9" viewBox="0 0 11 9" fill="none" xmlns="http://www.w3.org/2000/svg">
<path d="M10.5 4.49309C10.4964 4.09852 10.3374 3.72127 10.0575 3.44309L6.84 0.218095C6.69948 0.0784065 6.50939 0 6.31125 0C6.11311 0 5.92302 0.0784065 5.7825 0.218095C5.7122 0.287817 5.65641 0.370768 5.61833 0.462162C5.58026 0.553557 5.56065 0.651586 5.56065 0.750595C5.56065 0.849604 5.58026 0.947633 5.61833 1.03903C5.65641 1.13042 5.7122 1.21337 5.7825 1.28309L8.25 3.74309H0.75C0.551088 3.74309 0.360322 3.82211 0.21967 3.96276C0.0790178 4.10342 0 4.29418 0 4.49309C0 4.69201 0.0790178 4.88277 0.21967 5.02342C0.360322 5.16408 0.551088 5.24309 0.75 5.24309H8.25L5.7825 7.7106C5.64127 7.85083 5.56154 8.04142 5.56083 8.24044C5.56013 8.43947 5.63852 8.63062 5.77875 8.77184C5.91898 8.91307 6.10958 8.99281 6.3086 8.99351C6.50762 8.99422 6.69877 8.91583 6.84 8.77559L10.0575 5.55059C10.3392 5.27058 10.4983 4.89028 10.5 4.49309Z" fill="#013913"/>
</svg>
