<svg width="19" height="18" viewBox="0 0 19 18" fill="none" xmlns="http://www.w3.org/2000/svg">
<path d="M17.8137 16.5917L14.2034 13.0018C15.1726 11.7207 15.6889 9.98241 15.7291 7.8075C15.6429 2.80522 12.8508 0.0328288 7.86003 0C2.80932 0.0320081 0 2.96444 0 7.80668C0 12.891 2.81178 15.6134 7.86988 15.6429C10.0275 15.6298 11.7593 15.1291 13.0429 14.1615L16.6565 17.7554C17.0816 18.1592 17.5847 17.9943 17.817 17.7522C18.1313 17.4255 18.1354 16.9109 17.8137 16.5917ZM1.64144 7.82146C1.72105 3.68913 3.75807 1.66688 7.85921 1.64144C11.9209 1.6677 14.0171 3.75151 14.0876 7.80668C14.0105 12.0088 12.0317 13.9769 7.86988 14.0015C3.70309 13.9769 1.72351 12.0137 1.64144 7.82146Z" fill="black"/>
</svg>
