<svg width="355" height="231" viewBox="0 0 355 231" fill="none" xmlns="http://www.w3.org/2000/svg">
<path d="M51.0625 1C51.0625 0.447715 50.6148 0 50.0625 0C49.5102 0 49.0625 0.447715 49.0625 1H51.0625ZM49.0625 77.9297C49.0625 78.482 49.5102 78.9297 50.0625 78.9297C50.6148 78.9297 51.0625 78.482 51.0625 77.9297H49.0625ZM51.0625 112.055C51.0625 111.502 50.6148 111.055 50.0625 111.055C49.5102 111.055 49.0625 111.502 49.0625 112.055H51.0625ZM159.25 177.497C159.802 177.497 160.25 177.05 160.25 176.497C160.25 175.945 159.802 175.497 159.25 175.497V177.497ZM227.5 175.497C226.947 175.497 226.5 175.945 226.5 176.497C226.5 177.05 226.947 177.497 227.5 177.497V175.497ZM346.355 230.707C346.746 231.098 347.379 231.098 347.77 230.707L354.134 224.343C354.524 223.953 354.524 223.319 354.134 222.929C353.743 222.538 353.11 222.538 352.719 222.929L347.062 228.586L341.406 222.929C341.015 222.538 340.382 222.538 339.991 222.929C339.601 223.319 339.601 223.953 339.991 224.343L346.355 230.707ZM49.0625 1V77.9297H51.0625V1H49.0625ZM49.0625 112.055V152.497H51.0625V112.055H49.0625ZM74.0625 177.497H159.25V175.497H74.0625V177.497ZM227.5 177.497H323.062V175.497H227.5V177.497ZM346.062 200.497V230H348.062V200.497H346.062ZM323.062 177.497C335.765 177.497 346.062 187.795 346.062 200.497H348.062C348.062 186.69 336.87 175.497 323.062 175.497V177.497ZM49.0625 152.497C49.0625 166.305 60.2554 177.497 74.0625 177.497V175.497C61.36 175.497 51.0625 165.2 51.0625 152.497H49.0625Z" fill="#013913"/>
<path d="M7.95247 99.4922V89.4707H9.97591V93.9209L14.0638 89.4707H16.7845L13.0111 93.374L16.9896 99.4922H14.3714L11.6165 94.7891L9.97591 96.4639V99.4922H7.95247ZM22.0787 97.1816L23.9928 97.5029C23.7467 98.2048 23.3571 98.7402 22.8239 99.1094C22.2952 99.474 21.6321 99.6562 20.8346 99.6562C19.5722 99.6562 18.638 99.2438 18.0319 98.4189C17.5534 97.7581 17.3141 96.9242 17.3141 95.917C17.3141 94.7139 17.6285 93.7728 18.2575 93.0938C18.8864 92.4102 19.6816 92.0684 20.6432 92.0684C21.7233 92.0684 22.5755 92.4261 23.1998 93.1416C23.8242 93.8525 24.1227 94.944 24.0953 96.416H19.2828C19.2965 96.9857 19.4515 97.43 19.7477 97.749C20.0439 98.0635 20.4131 98.2207 20.8551 98.2207C21.1559 98.2207 21.4088 98.1387 21.6139 97.9746C21.819 97.8105 21.9739 97.5462 22.0787 97.1816ZM22.1881 95.2402C22.1744 94.6842 22.0309 94.2627 21.7575 93.9756C21.484 93.6839 21.1513 93.5381 20.7594 93.5381C20.3401 93.5381 19.9938 93.6908 19.7203 93.9961C19.4469 94.3014 19.3125 94.7161 19.317 95.2402H22.1881ZM24.6044 92.2324H26.6484L28.3847 97.3867L30.08 92.2324H32.0693L29.5058 99.2188L29.0478 100.483C28.8792 100.907 28.7174 101.231 28.5624 101.454C28.412 101.677 28.2366 101.857 28.0361 101.994C27.8401 102.135 27.5963 102.245 27.3046 102.322C27.0175 102.4 26.6917 102.438 26.3271 102.438C25.9579 102.438 25.5956 102.4 25.2402 102.322L25.0693 100.818C25.3701 100.878 25.6412 100.907 25.8827 100.907C26.3294 100.907 26.6598 100.775 26.874 100.511C27.0882 100.251 27.2522 99.9183 27.3661 99.5127L24.6044 92.2324ZM36.9224 99.4922V89.4707H43.7925V91.166H38.9458V93.5381H43.1294V95.2334H38.9458V99.4922H36.9224ZM49.5038 97.1816L51.4178 97.5029C51.1717 98.2048 50.7821 98.7402 50.2489 99.1094C49.7202 99.474 49.0571 99.6562 48.2596 99.6562C46.9972 99.6562 46.063 99.2438 45.4569 98.4189C44.9784 97.7581 44.7391 96.9242 44.7391 95.917C44.7391 94.7139 45.0536 93.7728 45.6825 93.0938C46.3114 92.4102 47.1066 92.0684 48.0682 92.0684C49.1483 92.0684 50.0005 92.4261 50.6249 93.1416C51.2492 93.8525 51.5477 94.944 51.5204 96.416H46.7079C46.7215 96.9857 46.8765 97.43 47.1727 97.749C47.4689 98.0635 47.8381 98.2207 48.2801 98.2207C48.5809 98.2207 48.8338 98.1387 49.0389 97.9746C49.244 97.8105 49.3989 97.5462 49.5038 97.1816ZM49.6131 95.2402C49.5995 94.6842 49.4559 94.2627 49.1825 93.9756C48.909 93.6839 48.5763 93.5381 48.1844 93.5381C47.7652 93.5381 47.4188 93.6908 47.1454 93.9961C46.8719 94.3014 46.7375 94.7161 46.742 95.2402H49.6131ZM54.3742 94.4473L52.631 94.1328C52.827 93.431 53.1642 92.9115 53.6427 92.5742C54.1212 92.237 54.8322 92.0684 55.7755 92.0684C56.6323 92.0684 57.2703 92.1709 57.6896 92.376C58.1089 92.5765 58.4028 92.834 58.5714 93.1484C58.7446 93.4583 58.8312 94.0303 58.8312 94.8643L58.8107 97.1064C58.8107 97.7445 58.8403 98.2161 58.8996 98.5215C58.9634 98.8223 59.0796 99.1458 59.2482 99.4922H57.3478C57.2977 99.3646 57.2362 99.1755 57.1632 98.9248C57.1313 98.8109 57.1085 98.7357 57.0949 98.6992C56.7668 99.0182 56.4158 99.2575 56.0421 99.417C55.6684 99.5765 55.2697 99.6562 54.8459 99.6562C54.0985 99.6562 53.5083 99.4535 53.0753 99.0479C52.647 98.6423 52.4328 98.1296 52.4328 97.5098C52.4328 97.0996 52.5307 96.735 52.7267 96.416C52.9227 96.0924 53.1961 95.8464 53.547 95.6777C53.9025 95.5046 54.4129 95.3542 55.0783 95.2266C55.9761 95.0579 56.5981 94.9007 56.9445 94.7549V94.5635C56.9445 94.1943 56.8533 93.9323 56.671 93.7773C56.4888 93.6178 56.1447 93.5381 55.6388 93.5381C55.297 93.5381 55.0304 93.6064 54.839 93.7432C54.6476 93.8753 54.4927 94.11 54.3742 94.4473ZM56.9445 96.0059C56.6984 96.0879 56.3087 96.1859 55.7755 96.2998C55.2423 96.4137 54.8937 96.5254 54.7296 96.6348C54.479 96.8125 54.3537 97.0381 54.3537 97.3115C54.3537 97.5804 54.4539 97.8128 54.6544 98.0088C54.855 98.2048 55.1102 98.3027 55.4201 98.3027C55.7664 98.3027 56.0968 98.1888 56.4113 97.9609C56.6437 97.7878 56.7964 97.5758 56.8693 97.3252C56.9194 97.1611 56.9445 96.849 56.9445 96.3887V96.0059ZM63.9067 92.2324V93.7637H62.5942V96.6895C62.5942 97.2819 62.6056 97.6283 62.6284 97.7285C62.6557 97.8242 62.7127 97.904 62.7993 97.9678C62.8904 98.0316 62.9998 98.0635 63.1274 98.0635C63.3051 98.0635 63.5626 98.002 63.8999 97.8789L64.0639 99.3691C63.6173 99.5605 63.1114 99.6562 62.5463 99.6562C62.2 99.6562 61.8878 99.5993 61.6098 99.4854C61.3318 99.3669 61.1267 99.2165 60.9946 99.0342C60.867 98.8473 60.7781 98.5967 60.728 98.2822C60.687 98.0589 60.6665 97.6077 60.6665 96.9287V93.7637H59.7846V92.2324H60.6665V90.79L62.5942 89.6689V92.2324H63.9067ZM69.864 99.4922V98.4053C69.5997 98.7926 69.2511 99.098 68.8181 99.3213C68.3897 99.5446 67.9363 99.6562 67.4578 99.6562C66.9701 99.6562 66.5326 99.5492 66.1453 99.335C65.7579 99.1208 65.4776 98.82 65.3045 98.4326C65.1313 98.0452 65.0447 97.5098 65.0447 96.8262V92.2324H66.9656V95.5684C66.9656 96.5892 66.9998 97.2158 67.0681 97.4482C67.141 97.6761 67.2709 97.8584 67.4578 97.9951C67.6446 98.1273 67.8816 98.1934 68.1687 98.1934C68.4968 98.1934 68.7908 98.1045 69.0505 97.9268C69.3103 97.7445 69.488 97.5212 69.5838 97.2568C69.6795 96.988 69.7273 96.334 69.7273 95.2949V92.2324H71.6482V99.4922H69.864ZM75.3292 99.4922H73.4083V92.2324H75.1924V93.2646C75.4978 92.777 75.7712 92.4557 76.0128 92.3008C76.2589 92.1458 76.5368 92.0684 76.8467 92.0684C77.2842 92.0684 77.7058 92.1891 78.1114 92.4307L77.5167 94.1055C77.1931 93.8958 76.8923 93.791 76.6143 93.791C76.3454 93.791 76.1176 93.8662 75.9307 94.0166C75.7439 94.1624 75.5958 94.429 75.4864 94.8164C75.3816 95.2038 75.3292 96.015 75.3292 97.25V99.4922ZM82.9955 97.1816L84.9095 97.5029C84.6634 98.2048 84.2738 98.7402 83.7406 99.1094C83.2119 99.474 82.5489 99.6562 81.7513 99.6562C80.489 99.6562 79.5547 99.2438 78.9486 98.4189C78.4701 97.7581 78.2308 96.9242 78.2308 95.917C78.2308 94.7139 78.5453 93.7728 79.1742 93.0938C79.8031 92.4102 80.5983 92.0684 81.5599 92.0684C82.64 92.0684 83.4922 92.4261 84.1166 93.1416C84.7409 93.8525 85.0394 94.944 85.0121 96.416H80.1996C80.2132 96.9857 80.3682 97.43 80.6644 97.749C80.9606 98.0635 81.3298 98.2207 81.7718 98.2207C82.0726 98.2207 82.3256 98.1387 82.5306 97.9746C82.7357 97.8105 82.8907 97.5462 82.9955 97.1816ZM83.1049 95.2402C83.0912 94.6842 82.9476 94.2627 82.6742 93.9756C82.4007 93.6839 82.0681 93.5381 81.6761 93.5381C81.2569 93.5381 80.9105 93.6908 80.6371 93.9961C80.3636 94.3014 80.2292 94.7161 80.2338 95.2402H83.1049ZM85.7536 97.4209L87.6813 97.127C87.7634 97.5007 87.9297 97.7855 88.1803 97.9814C88.431 98.1729 88.7819 98.2686 89.2331 98.2686C89.7298 98.2686 90.1035 98.1774 90.3542 97.9951C90.5228 97.8675 90.6071 97.6966 90.6071 97.4824C90.6071 97.3366 90.5615 97.2158 90.4704 97.1201C90.3747 97.029 90.1605 96.9447 89.8278 96.8672C88.2783 96.5254 87.2962 96.2132 86.8815 95.9307C86.3073 95.5387 86.0202 94.9941 86.0202 94.2969C86.0202 93.668 86.2686 93.1393 86.7653 92.7109C87.262 92.2826 88.0322 92.0684 89.0759 92.0684C90.0693 92.0684 90.8076 92.2301 91.2907 92.5537C91.7738 92.8773 92.1065 93.3558 92.2887 93.9893L90.4772 94.3242C90.3997 94.0417 90.2516 93.8252 90.0329 93.6748C89.8187 93.5244 89.5111 93.4492 89.11 93.4492C88.6042 93.4492 88.2419 93.5199 88.0231 93.6611C87.8773 93.7614 87.8044 93.8913 87.8044 94.0508C87.8044 94.1875 87.8682 94.3037 87.9958 94.3994C88.169 94.527 88.766 94.707 89.7868 94.9395C90.8122 95.1719 91.5277 95.4567 91.9333 95.7939C92.3343 96.1357 92.5348 96.612 92.5348 97.2227C92.5348 97.888 92.2568 98.46 91.7009 98.9385C91.1449 99.417 90.3223 99.6562 89.2331 99.6562C88.2441 99.6562 87.4603 99.4557 86.8815 99.0547C86.3073 98.6536 85.9313 98.109 85.7536 97.4209Z" fill="black" fill-opacity="0.8"/>
<path d="M51.0625 1C51.0625 0.447715 50.6148 0 50.0625 0C49.5102 0 49.0625 0.447715 49.0625 1H51.0625ZM49.0625 77.9297C49.0625 78.482 49.5102 78.9297 50.0625 78.9297C50.6148 78.9297 51.0625 78.482 51.0625 77.9297H49.0625ZM51.0625 112.055C51.0625 111.502 50.6148 111.055 50.0625 111.055C49.5102 111.055 49.0625 111.502 49.0625 112.055H51.0625ZM159.25 177.498C159.802 177.498 160.25 177.05 160.25 176.498C160.25 175.946 159.802 175.498 159.25 175.498V177.498ZM227.5 175.498C226.947 175.498 226.5 175.946 226.5 176.498C226.5 177.05 226.947 177.498 227.5 177.498V175.498ZM346.355 230.707C346.746 231.098 347.379 231.098 347.77 230.707L354.134 224.343C354.524 223.953 354.524 223.319 354.134 222.929C353.743 222.538 353.11 222.538 352.719 222.929L347.062 228.586L341.406 222.929C341.015 222.538 340.382 222.538 339.991 222.929C339.601 223.319 339.601 223.953 339.991 224.343L346.355 230.707ZM49.0625 1V77.9297H51.0625V1H49.0625ZM49.0625 112.055V152.498H51.0625V112.055H49.0625ZM74.0625 177.498H159.25V175.498H74.0625V177.498ZM227.5 177.498H323.062V175.498H227.5V177.498ZM346.062 200.498V230H348.062V200.498H346.062ZM323.062 177.498C335.765 177.498 346.062 187.795 346.062 200.498H348.062C348.062 186.691 336.87 175.498 323.062 175.498V177.498ZM49.0625 152.498C49.0625 166.305 60.2554 177.498 74.0625 177.498V175.498C61.36 175.498 51.0625 165.2 51.0625 152.498H49.0625Z" fill="#013913"/>
<path d="M165.992 180.498V171.908H171.786V172.922H167.128V175.582H171.16V176.596H167.128V180.498H165.992ZM172.61 177.387C172.61 176.234 172.93 175.381 173.57 174.826C174.106 174.365 174.758 174.135 175.528 174.135C176.383 174.135 177.082 174.416 177.625 174.979C178.168 175.537 178.44 176.311 178.44 177.299C178.44 178.1 178.319 178.73 178.076 179.191C177.838 179.648 177.488 180.004 177.028 180.258C176.57 180.512 176.07 180.639 175.528 180.639C174.656 180.639 173.951 180.359 173.412 179.801C172.877 179.242 172.61 178.438 172.61 177.387ZM173.694 177.387C173.694 178.184 173.867 178.781 174.215 179.18C174.563 179.574 175 179.771 175.528 179.771C176.051 179.771 176.486 179.572 176.834 179.174C177.182 178.775 177.356 178.168 177.356 177.352C177.356 176.582 177.18 176 176.828 175.605C176.481 175.207 176.047 175.008 175.528 175.008C175 175.008 174.563 175.205 174.215 175.6C173.867 175.994 173.694 176.59 173.694 177.387ZM179.538 180.498V174.275H180.487V175.219C180.729 174.777 180.952 174.486 181.155 174.346C181.362 174.205 181.589 174.135 181.835 174.135C182.19 174.135 182.552 174.248 182.919 174.475L182.556 175.453C182.298 175.301 182.04 175.225 181.782 175.225C181.552 175.225 181.345 175.295 181.161 175.436C180.978 175.572 180.847 175.764 180.769 176.01C180.651 176.385 180.593 176.795 180.593 177.24V180.498H179.538ZM186.37 177.738L187.442 177.645C187.493 178.074 187.61 178.428 187.794 178.705C187.981 178.979 188.27 179.201 188.661 179.373C189.051 179.541 189.491 179.625 189.979 179.625C190.413 179.625 190.796 179.561 191.128 179.432C191.46 179.303 191.706 179.127 191.866 178.904C192.03 178.678 192.112 178.432 192.112 178.166C192.112 177.896 192.034 177.662 191.878 177.463C191.721 177.26 191.464 177.09 191.104 176.953C190.874 176.863 190.364 176.725 189.575 176.537C188.786 176.346 188.233 176.166 187.917 175.998C187.507 175.783 187.2 175.518 186.997 175.201C186.798 174.881 186.698 174.523 186.698 174.129C186.698 173.695 186.821 173.291 187.067 172.916C187.313 172.537 187.673 172.25 188.145 172.055C188.618 171.859 189.143 171.762 189.721 171.762C190.358 171.762 190.919 171.865 191.403 172.072C191.891 172.275 192.266 172.576 192.528 172.975C192.79 173.373 192.93 173.824 192.95 174.328L191.86 174.41C191.801 173.867 191.602 173.457 191.262 173.18C190.926 172.902 190.428 172.764 189.768 172.764C189.081 172.764 188.579 172.891 188.262 173.145C187.95 173.395 187.794 173.697 187.794 174.053C187.794 174.361 187.905 174.615 188.128 174.814C188.346 175.014 188.917 175.219 189.839 175.43C190.764 175.637 191.399 175.818 191.743 175.975C192.243 176.205 192.612 176.498 192.85 176.854C193.089 177.205 193.208 177.611 193.208 178.072C193.208 178.529 193.077 178.961 192.815 179.367C192.553 179.77 192.176 180.084 191.684 180.311C191.196 180.533 190.645 180.645 190.032 180.645C189.255 180.645 188.602 180.531 188.075 180.305C187.551 180.078 187.139 179.738 186.839 179.285C186.542 178.828 186.385 178.312 186.37 177.738ZM198.753 178.494L199.843 178.629C199.671 179.266 199.353 179.76 198.888 180.111C198.423 180.463 197.83 180.639 197.107 180.639C196.197 180.639 195.474 180.359 194.939 179.801C194.408 179.238 194.142 178.451 194.142 177.439C194.142 176.393 194.412 175.58 194.951 175.002C195.49 174.424 196.189 174.135 197.048 174.135C197.88 174.135 198.56 174.418 199.087 174.984C199.615 175.551 199.878 176.348 199.878 177.375C199.878 177.438 199.876 177.531 199.873 177.656H195.232C195.271 178.34 195.464 178.863 195.812 179.227C196.16 179.59 196.593 179.771 197.113 179.771C197.5 179.771 197.83 179.67 198.103 179.467C198.376 179.264 198.593 178.939 198.753 178.494ZM195.291 176.789H198.765C198.718 176.266 198.585 175.873 198.367 175.611C198.031 175.205 197.595 175.002 197.06 175.002C196.576 175.002 196.167 175.164 195.835 175.488C195.507 175.812 195.326 176.246 195.291 176.789ZM201.018 180.498V171.908H202.073V180.498H201.018ZM203.558 180.498V171.908H204.612V180.498H203.558ZM210.381 178.494L211.471 178.629C211.299 179.266 210.98 179.76 210.516 180.111C210.051 180.463 209.457 180.639 208.734 180.639C207.824 180.639 207.102 180.359 206.566 179.801C206.035 179.238 205.77 178.451 205.77 177.439C205.77 176.393 206.039 175.58 206.578 175.002C207.117 174.424 207.816 174.135 208.676 174.135C209.508 174.135 210.187 174.418 210.715 174.984C211.242 175.551 211.506 176.348 211.506 177.375C211.506 177.438 211.504 177.531 211.5 177.656H206.859C206.898 178.34 207.092 178.863 207.439 179.227C207.787 179.59 208.221 179.771 208.74 179.771C209.127 179.771 209.457 179.67 209.73 179.467C210.004 179.264 210.221 178.939 210.381 178.494ZM206.918 176.789H210.393C210.346 176.266 210.213 175.873 209.994 175.611C209.658 175.205 209.223 175.002 208.687 175.002C208.203 175.002 207.795 175.164 207.463 175.488C207.135 175.812 206.953 176.246 206.918 176.789ZM212.657 180.498V174.275H213.606V175.219C213.848 174.777 214.071 174.486 214.274 174.346C214.481 174.205 214.708 174.135 214.954 174.135C215.309 174.135 215.671 174.248 216.038 174.475L215.675 175.453C215.417 175.301 215.159 175.225 214.901 175.225C214.671 175.225 214.464 175.295 214.28 175.436C214.097 175.572 213.966 175.764 213.888 176.01C213.77 176.385 213.712 176.795 213.712 177.24V180.498H212.657ZM216.111 178.641L217.154 178.477C217.213 178.895 217.375 179.215 217.64 179.438C217.91 179.66 218.285 179.771 218.765 179.771C219.25 179.771 219.609 179.674 219.843 179.479C220.078 179.279 220.195 179.047 220.195 178.781C220.195 178.543 220.091 178.355 219.884 178.219C219.74 178.125 219.381 178.006 218.806 177.861C218.033 177.666 217.496 177.498 217.195 177.357C216.898 177.213 216.672 177.016 216.515 176.766C216.363 176.512 216.287 176.232 216.287 175.928C216.287 175.65 216.349 175.395 216.474 175.16C216.603 174.922 216.777 174.725 216.996 174.568C217.16 174.447 217.382 174.346 217.664 174.264C217.949 174.178 218.254 174.135 218.578 174.135C219.066 174.135 219.494 174.205 219.861 174.346C220.232 174.486 220.506 174.678 220.681 174.92C220.857 175.158 220.978 175.479 221.045 175.881L220.013 176.021C219.966 175.701 219.83 175.451 219.603 175.271C219.381 175.092 219.064 175.002 218.654 175.002C218.17 175.002 217.824 175.082 217.617 175.242C217.41 175.402 217.306 175.59 217.306 175.805C217.306 175.941 217.349 176.064 217.435 176.174C217.521 176.287 217.656 176.381 217.84 176.455C217.945 176.494 218.256 176.584 218.771 176.725C219.517 176.924 220.037 177.088 220.33 177.217C220.627 177.342 220.859 177.525 221.027 177.768C221.195 178.01 221.279 178.311 221.279 178.67C221.279 179.021 221.175 179.354 220.968 179.666C220.765 179.975 220.47 180.215 220.084 180.387C219.697 180.555 219.259 180.639 218.771 180.639C217.963 180.639 217.345 180.471 216.92 180.135C216.498 179.799 216.228 179.301 216.111 178.641Z" fill="black" fill-opacity="0.8"/>
</svg>
