<svg width="18" height="18" viewBox="0 0 18 18" fill="none" xmlns="http://www.w3.org/2000/svg">
<g clip-path="url(#clip0_101_140)">
<path d="M13.9358 1.60518L9.237 0.0384306C9.08316 -0.0128102 8.91685 -0.0128102 8.763 0.0384306L4.06425 1.60518C3.31718 1.85334 2.66731 2.33062 2.20698 2.96921C1.74666 3.6078 1.49928 4.37522 1.5 5.16243V9.00018C1.5 14.6724 8.4 17.8052 8.6955 17.9357C8.79137 17.9783 8.8951 18.0003 9 18.0003C9.1049 18.0003 9.20864 17.9783 9.3045 17.9357C9.6 17.8052 16.5 14.6724 16.5 9.00018V5.16243C16.5007 4.37522 16.2533 3.6078 15.793 2.96921C15.3327 2.33062 14.6828 1.85334 13.9358 1.60518ZM15 9.00018C15 13.0914 10.2608 15.7749 9 16.4169C7.73775 15.7772 3 13.1019 3 9.00018V5.16243C3.00005 4.69014 3.14871 4.22983 3.42493 3.84674C3.70114 3.46364 4.09091 3.17718 4.539 3.02793L9 1.54068L13.461 3.02793C13.9091 3.17718 14.2989 3.46364 14.5751 3.84674C14.8513 4.22983 15 4.69014 15 5.16243V9.00018Z" fill="black"/>
<path d="M11.4751 6.22481L8.33409 9.37481L6.65109 7.61981C6.58355 7.54596 6.50191 7.48638 6.41098 7.44457C6.32006 7.40276 6.22169 7.37957 6.12166 7.37637C6.02164 7.37317 5.92198 7.39002 5.82857 7.42592C5.73515 7.46183 5.64987 7.51607 5.57774 7.58544C5.50561 7.65482 5.4481 7.73792 5.40859 7.82987C5.36908 7.92182 5.34836 8.02074 5.34767 8.12082C5.34698 8.22089 5.36633 8.32009 5.40457 8.41257C5.44281 8.50506 5.49917 8.58895 5.57034 8.65931L7.29984 10.4593C7.42882 10.5986 7.58472 10.7103 7.7581 10.7877C7.93149 10.865 8.11876 10.9064 8.30859 10.9093H8.33334C8.51938 10.9099 8.70369 10.8736 8.87557 10.8024C9.04745 10.7312 9.20348 10.6266 9.33459 10.4946L12.5386 7.29056C12.6086 7.22073 12.6641 7.1378 12.702 7.04651C12.74 6.95521 12.7595 6.85734 12.7596 6.75848C12.7597 6.65962 12.7404 6.56171 12.7026 6.47034C12.6649 6.37896 12.6095 6.29592 12.5397 6.22594C12.4699 6.15596 12.387 6.10042 12.2957 6.06249C12.2044 6.02456 12.1065 6.00499 12.0076 6.00488C11.9088 6.00478 11.8109 6.02415 11.7195 6.06188C11.6281 6.09962 11.5451 6.15498 11.4751 6.22481Z" fill="black"/>
</g>
<defs>
<clipPath id="clip0_101_140">
<rect width="18" height="18" fill="white"/>
</clipPath>
</defs>
</svg>
