<svg width="18" height="18" viewBox="0 0 18 18" fill="none" xmlns="http://www.w3.org/2000/svg">
<path d="M12.5346 10.3528C12.8226 10.6476 12.8204 11.1178 12.5279 11.4073C12.4724 11.4621 11.1479 12.7498 8.99987 12.7498C6.85187 12.7498 5.52737 11.4628 5.47187 11.4073C5.17787 11.1156 5.17487 10.6416 5.46662 10.3468C5.75912 10.0528 6.23237 10.0498 6.52787 10.3416C6.56237 10.3753 7.48787 11.2491 8.99987 11.2491C10.5119 11.2491 11.4374 10.3746 11.4764 10.3378C11.7734 10.0513 12.2474 10.0573 12.5346 10.3528ZM6.37487 8.24982C6.99587 8.24982 7.49987 7.74582 7.49987 7.12482C7.49987 6.50382 6.99587 5.99982 6.37487 5.99982C5.75387 5.99982 5.24987 6.50382 5.24987 7.12482C5.24987 7.74582 5.75387 8.24982 6.37487 8.24982ZM11.6249 5.99982C11.0039 5.99982 10.4999 6.50382 10.4999 7.12482C10.4999 7.74582 11.0039 8.24982 11.6249 8.24982C12.2459 8.24982 12.7499 7.74582 12.7499 7.12482C12.7499 6.50382 12.2459 5.99982 11.6249 5.99982ZM17.9999 9.25482V14.2498C17.9999 16.3176 16.3176 17.9998 14.2499 17.9998H9.81212C4.56137 17.9998 0.353123 14.4058 0.0216232 9.64032C-0.158377 7.03332 0.791873 4.48182 2.63087 2.64057C4.47137 0.798569 7.02812 -0.153931 9.62687 0.0215691C14.3226 0.340319 17.9999 4.39557 17.9999 9.25482ZM16.4999 9.25482C16.4999 5.18157 13.4361 1.78332 9.52562 1.51782C9.35387 1.50582 9.18212 1.50057 9.01037 1.50057C7.01837 1.50057 5.10362 2.28657 3.69212 3.70032C2.15987 5.23482 1.36712 7.36257 1.51862 9.53682C1.79762 13.5718 5.28587 16.5006 9.81212 16.5006H14.2499C15.4904 16.5006 16.4999 15.4911 16.4999 14.2506V9.25482Z" fill="#013913"/>
</svg>
