<svg width="214" height="194" viewBox="0 0 214 194" fill="none" xmlns="http://www.w3.org/2000/svg">
<path d="M213.707 97.3321C214.098 96.9416 214.098 96.3084 213.707 95.9179L207.343 89.5539C206.953 89.1634 206.319 89.1634 205.929 89.5539C205.538 89.9445 205.538 90.5776 205.929 90.9681L211.586 96.625L205.929 102.282C205.538 102.672 205.538 103.306 205.929 103.696C206.319 104.087 206.953 104.087 207.343 103.696L213.707 97.3321ZM93.5015 177.625C92.9492 177.625 92.5015 178.073 92.5015 178.625C92.5015 179.177 92.9492 179.625 93.5015 179.625V177.625ZM41.2515 179.625C41.8037 179.625 42.2515 179.177 42.2515 178.625C42.2515 178.073 41.8037 177.625 41.2515 177.625V179.625ZM1 177.625C0.447715 177.625 0 178.073 0 178.625C0 179.177 0.447715 179.625 1 179.625V177.625ZM213 95.625H182.5V97.625H213V95.625ZM157.5 120.625V154.625H159.5V120.625H157.5ZM134.5 177.625H93.5015V179.625H134.5V177.625ZM41.2515 177.625H1V179.625H41.2515V177.625ZM157.5 154.625C157.5 167.328 147.203 177.625 134.5 177.625V179.625C148.307 179.625 159.5 168.432 159.5 154.625H157.5ZM182.5 95.625C168.693 95.625 157.5 106.818 157.5 120.625H159.5C159.5 107.922 169.797 97.625 182.5 97.625V95.625Z" fill="white"/>
<path d="M47.6104 179.865L48.6826 179.771C48.7334 180.201 48.8506 180.555 49.0342 180.832C49.2217 181.105 49.5107 181.328 49.9014 181.5C50.292 181.668 50.7314 181.752 51.2197 181.752C51.6533 181.752 52.0361 181.688 52.3682 181.559C52.7002 181.43 52.9463 181.254 53.1064 181.031C53.2705 180.805 53.3525 180.559 53.3525 180.293C53.3525 180.023 53.2744 179.789 53.1182 179.59C52.9619 179.387 52.7041 179.217 52.3447 179.08C52.1143 178.99 51.6045 178.852 50.8154 178.664C50.0264 178.473 49.4736 178.293 49.1572 178.125C48.7471 177.91 48.4404 177.645 48.2373 177.328C48.0381 177.008 47.9385 176.65 47.9385 176.256C47.9385 175.822 48.0615 175.418 48.3076 175.043C48.5537 174.664 48.9131 174.377 49.3857 174.182C49.8584 173.986 50.3838 173.889 50.9619 173.889C51.5986 173.889 52.1592 173.992 52.6436 174.199C53.1318 174.402 53.5068 174.703 53.7686 175.102C54.0303 175.5 54.1709 175.951 54.1904 176.455L53.1006 176.537C53.042 175.994 52.8428 175.584 52.5029 175.307C52.167 175.029 51.6689 174.891 51.0088 174.891C50.3213 174.891 49.8193 175.018 49.5029 175.271C49.1904 175.521 49.0342 175.824 49.0342 176.18C49.0342 176.488 49.1455 176.742 49.3682 176.941C49.5869 177.141 50.1572 177.346 51.0791 177.557C52.0049 177.764 52.6397 177.945 52.9834 178.102C53.4834 178.332 53.8525 178.625 54.0908 178.98C54.3291 179.332 54.4482 179.738 54.4482 180.199C54.4482 180.656 54.3174 181.088 54.0557 181.494C53.7939 181.896 53.417 182.211 52.9248 182.438C52.4365 182.66 51.8857 182.771 51.2725 182.771C50.4951 182.771 49.8428 182.658 49.3154 182.432C48.792 182.205 48.3799 181.865 48.0791 181.412C47.7822 180.955 47.626 180.439 47.6104 179.865ZM58.0369 181.682L58.1893 182.613C57.8924 182.676 57.6268 182.707 57.3924 182.707C57.0096 182.707 56.7127 182.646 56.5018 182.525C56.2909 182.404 56.1424 182.246 56.0565 182.051C55.9705 181.852 55.9276 181.436 55.9276 180.803V177.223H55.1541V176.402H55.9276V174.861L56.9764 174.229V176.402H58.0369V177.223H56.9764V180.861C56.9764 181.162 56.994 181.355 57.0291 181.441C57.0682 181.527 57.1287 181.596 57.2108 181.646C57.2967 181.697 57.4178 181.723 57.5741 181.723C57.6912 181.723 57.8455 181.709 58.0369 181.682ZM63.2018 180.621L64.2917 180.756C64.1198 181.393 63.8014 181.887 63.3366 182.238C62.8717 182.59 62.278 182.766 61.5553 182.766C60.6452 182.766 59.9225 182.486 59.3874 181.928C58.8561 181.365 58.5905 180.578 58.5905 179.566C58.5905 178.52 58.86 177.707 59.3991 177.129C59.9382 176.551 60.6374 176.262 61.4967 176.262C62.3288 176.262 63.0085 176.545 63.5358 177.111C64.0632 177.678 64.3268 178.475 64.3268 179.502C64.3268 179.564 64.3249 179.658 64.321 179.783H59.6803C59.7194 180.467 59.9128 180.99 60.2604 181.354C60.6081 181.717 61.0417 181.898 61.5612 181.898C61.9479 181.898 62.278 181.797 62.5514 181.594C62.8249 181.391 63.0417 181.066 63.2018 180.621ZM59.7389 178.916H63.2135C63.1667 178.393 63.0339 178 62.8151 177.738C62.4792 177.332 62.0436 177.129 61.5085 177.129C61.0241 177.129 60.6159 177.291 60.2839 177.615C59.9557 177.939 59.7741 178.373 59.7389 178.916ZM65.4897 185.01V176.402H66.4507V177.211C66.6772 176.895 66.9331 176.658 67.2183 176.502C67.5034 176.342 67.8491 176.262 68.2554 176.262C68.7866 176.262 69.2554 176.398 69.6616 176.672C70.0679 176.945 70.3745 177.332 70.5815 177.832C70.7886 178.328 70.8921 178.873 70.8921 179.467C70.8921 180.104 70.7769 180.678 70.5464 181.189C70.3198 181.697 69.9878 182.088 69.5503 182.361C69.1167 182.631 68.6597 182.766 68.1792 182.766C67.8276 182.766 67.5112 182.691 67.23 182.543C66.9526 182.395 66.7241 182.207 66.5444 181.98V185.01H65.4897ZM66.4448 179.549C66.4448 180.35 66.6069 180.941 66.9312 181.324C67.2554 181.707 67.6479 181.898 68.1089 181.898C68.5776 181.898 68.978 181.701 69.3101 181.307C69.646 180.908 69.814 180.293 69.814 179.461C69.814 178.668 69.6499 178.074 69.3218 177.68C68.9976 177.285 68.6089 177.088 68.1558 177.088C67.7065 177.088 67.3081 177.299 66.9604 177.721C66.6167 178.139 66.4448 178.748 66.4448 179.549ZM74.9523 178.389C74.9523 177.373 75.0558 176.557 75.2629 175.939C75.4738 175.318 75.7843 174.84 76.1945 174.504C76.6086 174.168 77.1281 174 77.7531 174C78.214 174 78.6183 174.094 78.966 174.281C79.3136 174.465 79.6007 174.732 79.8273 175.084C80.0539 175.432 80.2316 175.857 80.3605 176.361C80.4894 176.861 80.5539 177.537 80.5539 178.389C80.5539 179.396 80.4504 180.211 80.2433 180.832C80.0363 181.449 79.7257 181.928 79.3117 182.268C78.9015 182.604 78.382 182.771 77.7531 182.771C76.925 182.771 76.2746 182.475 75.8019 181.881C75.2355 181.166 74.9523 180.002 74.9523 178.389ZM76.0363 178.389C76.0363 179.799 76.2004 180.738 76.5285 181.207C76.8605 181.672 77.2687 181.904 77.7531 181.904C78.2375 181.904 78.6437 181.67 78.9718 181.201C79.3039 180.732 79.4699 179.795 79.4699 178.389C79.4699 176.975 79.3039 176.035 78.9718 175.57C78.6437 175.105 78.2336 174.873 77.7414 174.873C77.257 174.873 76.8703 175.078 76.5812 175.488C76.2179 176.012 76.0363 176.979 76.0363 178.389ZM81.5059 180.357L82.5605 180.217C82.6816 180.814 82.8867 181.246 83.1758 181.512C83.4687 181.773 83.8242 181.904 84.2422 181.904C84.7383 181.904 85.1562 181.732 85.4961 181.389C85.8398 181.045 86.0117 180.619 86.0117 180.111C86.0117 179.627 85.8535 179.229 85.5371 178.916C85.2207 178.6 84.8184 178.441 84.3301 178.441C84.1309 178.441 83.8828 178.48 83.5859 178.559L83.7031 177.633C83.7734 177.641 83.8301 177.645 83.873 177.645C84.3223 177.645 84.7266 177.527 85.0859 177.293C85.4453 177.059 85.625 176.697 85.625 176.209C85.625 175.822 85.4941 175.502 85.2324 175.248C84.9707 174.994 84.6328 174.867 84.2187 174.867C83.8086 174.867 83.4668 174.996 83.1934 175.254C82.9199 175.512 82.7441 175.898 82.666 176.414L81.6113 176.227C81.7402 175.52 82.0332 174.973 82.4902 174.586C82.9473 174.195 83.5156 174 84.1953 174C84.6641 174 85.0957 174.102 85.4902 174.305C85.8848 174.504 86.1855 174.777 86.3926 175.125C86.6035 175.473 86.709 175.842 86.709 176.232C86.709 176.604 86.6094 176.941 86.4102 177.246C86.2109 177.551 85.916 177.793 85.5254 177.973C86.0332 178.09 86.4277 178.334 86.709 178.705C86.9902 179.072 87.1309 179.533 87.1309 180.088C87.1309 180.838 86.8574 181.475 86.3105 181.998C85.7637 182.518 85.0723 182.777 84.2363 182.777C83.4824 182.777 82.8555 182.553 82.3555 182.104C81.8594 181.654 81.5762 181.072 81.5059 180.357Z" fill="#013913"/>
<path d="M213.707 97.3321C214.098 96.9416 214.098 96.3084 213.707 95.9179L207.343 89.5539C206.953 89.1634 206.319 89.1634 205.929 89.5539C205.538 89.9445 205.538 90.5776 205.929 90.9681L211.586 96.625L205.929 102.282C205.538 102.672 205.538 103.306 205.929 103.696C206.319 104.087 206.953 104.087 207.343 103.696L213.707 97.3321ZM93.6372 95.625C93.0849 95.625 92.6372 96.0727 92.6372 96.625C92.6372 97.1773 93.0849 97.625 93.6372 97.625V95.625ZM41.3872 97.625C41.9395 97.625 42.3872 97.1773 42.3872 96.625C42.3872 96.0727 41.9395 95.625 41.3872 95.625V97.625ZM1 95.625C0.447715 95.625 0 96.0727 0 96.625C0 97.1773 0.447715 97.625 1 97.625V95.625ZM213 95.625H93.6372V97.625H213V95.625ZM41.3872 95.625H1V97.625H41.3872V95.625Z" fill="white"/>
<path d="M47.7461 97.8652L48.8184 97.7715C48.8691 98.2012 48.9863 98.5547 49.1699 98.832C49.3574 99.1055 49.6465 99.3281 50.0371 99.5C50.4277 99.668 50.8672 99.752 51.3555 99.752C51.7891 99.752 52.1719 99.6875 52.5039 99.5586C52.8359 99.4297 53.082 99.2539 53.2422 99.0312C53.4063 98.8047 53.4883 98.5586 53.4883 98.293C53.4883 98.0234 53.4102 97.7891 53.2539 97.5898C53.0977 97.3867 52.8398 97.2168 52.4805 97.0801C52.25 96.9902 51.7402 96.8516 50.9512 96.6641C50.1621 96.4727 49.6094 96.293 49.293 96.125C48.8828 95.9102 48.5762 95.6445 48.3731 95.3281C48.1738 95.0078 48.0742 94.6504 48.0742 94.2559C48.0742 93.8223 48.1973 93.418 48.4434 93.043C48.6895 92.6641 49.0488 92.377 49.5215 92.1816C49.9941 91.9863 50.5195 91.8887 51.0977 91.8887C51.7344 91.8887 52.2949 91.9922 52.7793 92.1992C53.2676 92.4023 53.6426 92.7031 53.9043 93.1016C54.166 93.5 54.3066 93.9512 54.3262 94.4551L53.2363 94.5371C53.1777 93.9941 52.9785 93.584 52.6387 93.3066C52.3027 93.0293 51.8047 92.8906 51.1445 92.8906C50.457 92.8906 49.9551 93.0176 49.6387 93.2715C49.3262 93.5215 49.1699 93.8242 49.1699 94.1797C49.1699 94.4883 49.2813 94.7422 49.5039 94.9414C49.7227 95.1406 50.293 95.3457 51.2148 95.5566C52.1406 95.7637 52.7754 95.9453 53.1191 96.1016C53.6191 96.332 53.9883 96.625 54.2266 96.9805C54.4648 97.332 54.584 97.7383 54.584 98.1992C54.584 98.6562 54.4531 99.0879 54.1914 99.4941C53.9297 99.8965 53.5527 100.211 53.0606 100.438C52.5723 100.66 52.0215 100.771 51.4082 100.771C50.6309 100.771 49.9785 100.658 49.4512 100.432C48.9277 100.205 48.5156 99.8652 48.2148 99.4121C47.918 98.9551 47.7617 98.4395 47.7461 97.8652ZM58.1727 99.6816L58.325 100.613C58.0282 100.676 57.7625 100.707 57.5282 100.707C57.1453 100.707 56.8485 100.646 56.6375 100.525C56.4266 100.404 56.2782 100.246 56.1922 100.051C56.1063 99.8516 56.0633 99.4355 56.0633 98.8027V95.2227H55.2899V94.4023H56.0633V92.8613L57.1121 92.2285V94.4023H58.1727V95.2227H57.1121V98.8613C57.1121 99.1621 57.1297 99.3555 57.1649 99.4414C57.2039 99.5273 57.2645 99.5957 57.3465 99.6465C57.4325 99.6973 57.5536 99.7227 57.7098 99.7227C57.827 99.7227 57.9813 99.709 58.1727 99.6816ZM63.3376 98.6211L64.4274 98.7559C64.2555 99.3926 63.9372 99.8867 63.4723 100.238C63.0075 100.59 62.4137 100.766 61.6911 100.766C60.7809 100.766 60.0583 100.486 59.5231 99.9277C58.9919 99.3652 58.7262 98.5781 58.7262 97.5664C58.7262 96.5195 58.9958 95.707 59.5348 95.1289C60.0739 94.5508 60.7731 94.2617 61.6325 94.2617C62.4645 94.2617 63.1442 94.5449 63.6716 95.1113C64.1989 95.6777 64.4626 96.4746 64.4626 97.502C64.4626 97.5645 64.4606 97.6582 64.4567 97.7832H59.8161C59.8551 98.4668 60.0485 98.9902 60.3962 99.3535C60.7438 99.7168 61.1774 99.8984 61.6969 99.8984C62.0837 99.8984 62.4137 99.7969 62.6872 99.5938C62.9606 99.3906 63.1774 99.0664 63.3376 98.6211ZM59.8747 96.916H63.3493C63.3024 96.3926 63.1696 96 62.9508 95.7383C62.6149 95.332 62.1794 95.1289 61.6442 95.1289C61.1598 95.1289 60.7516 95.291 60.4196 95.6152C60.0915 95.9395 59.9098 96.373 59.8747 96.916ZM65.6255 103.01V94.4023H66.5864V95.2109C66.813 94.8945 67.0688 94.6582 67.354 94.502C67.6392 94.3418 67.9849 94.2617 68.3911 94.2617C68.9224 94.2617 69.3911 94.3984 69.7974 94.6719C70.2036 94.9453 70.5103 95.332 70.7173 95.832C70.9243 96.3281 71.0278 96.873 71.0278 97.4668C71.0278 98.1035 70.9126 98.6777 70.6821 99.1895C70.4556 99.6973 70.1235 100.088 69.686 100.361C69.2524 100.631 68.7954 100.766 68.3149 100.766C67.9634 100.766 67.647 100.691 67.3657 100.543C67.0884 100.395 66.8599 100.207 66.6802 99.9805V103.01H65.6255ZM66.5806 97.5488C66.5806 98.3496 66.7427 98.9414 67.0669 99.3242C67.3911 99.707 67.7837 99.8984 68.2446 99.8984C68.7134 99.8984 69.1138 99.7012 69.4458 99.3066C69.7817 98.9082 69.9497 98.293 69.9497 97.4609C69.9497 96.668 69.7856 96.0742 69.4575 95.6797C69.1333 95.2852 68.7446 95.0879 68.2915 95.0879C67.8423 95.0879 67.4438 95.2988 67.0962 95.7207C66.7524 96.1387 66.5806 96.748 66.5806 97.5488ZM75.0881 96.3887C75.0881 95.373 75.1916 94.5566 75.3986 93.9395C75.6095 93.3184 75.9201 92.8398 76.3302 92.5039C76.7443 92.168 77.2638 92 77.8888 92C78.3498 92 78.7541 92.0938 79.1017 92.2812C79.4494 92.4648 79.7365 92.7324 79.9631 93.084C80.1896 93.4316 80.3673 93.8574 80.4963 94.3613C80.6252 94.8613 80.6896 95.5371 80.6896 96.3887C80.6896 97.3965 80.5861 98.2109 80.3791 98.832C80.172 99.4492 79.8615 99.9277 79.4474 100.268C79.0373 100.604 78.5177 100.771 77.8888 100.771C77.0607 100.771 76.4103 100.475 75.9377 99.8809C75.3713 99.166 75.0881 98.002 75.0881 96.3887ZM76.172 96.3887C76.172 97.7988 76.3361 98.7383 76.6642 99.207C76.9963 99.6719 77.4045 99.9043 77.8888 99.9043C78.3732 99.9043 78.7795 99.6699 79.1076 99.2012C79.4396 98.7324 79.6056 97.7949 79.6056 96.3887C79.6056 94.9746 79.4396 94.0352 79.1076 93.5703C78.7795 93.1055 78.3693 92.873 77.8771 92.873C77.3927 92.873 77.006 93.0781 76.717 93.4883C76.3537 94.0117 76.172 94.9785 76.172 96.3887ZM87.1787 99.6113V100.625H81.501C81.4932 100.371 81.5342 100.127 81.624 99.8926C81.7686 99.5059 81.999 99.125 82.3154 98.75C82.6357 98.375 83.0967 97.9414 83.6982 97.4492C84.6318 96.6836 85.2627 96.0781 85.5908 95.6328C85.9189 95.1836 86.083 94.7598 86.083 94.3613C86.083 93.9434 85.9326 93.5918 85.6318 93.3066C85.335 93.0176 84.9463 92.873 84.4658 92.873C83.958 92.873 83.5518 93.0254 83.2471 93.3301C82.9424 93.6348 82.7881 94.0566 82.7842 94.5957L81.7002 94.4844C81.7744 93.6758 82.0537 93.0605 82.5381 92.6387C83.0225 92.2129 83.6728 92 84.4893 92C85.3135 92 85.9658 92.2285 86.4463 92.6855C86.9268 93.1426 87.167 93.709 87.167 94.3848C87.167 94.7285 87.0967 95.0664 86.9561 95.3984C86.8154 95.7305 86.5811 96.0801 86.2529 96.4473C85.9287 96.8145 85.3877 97.3184 84.6299 97.959C83.9971 98.4902 83.5908 98.8516 83.4111 99.043C83.2314 99.2305 83.083 99.4199 82.9658 99.6113H87.1787Z" fill="#013913"/>
<path d="M213.707 97.3321C214.098 96.9416 214.098 96.3084 213.707 95.9179L207.343 89.5539C206.953 89.1634 206.319 89.1634 205.929 89.5539C205.538 89.9445 205.538 90.5776 205.929 90.9681L211.586 96.625L205.929 102.282C205.538 102.672 205.538 103.306 205.929 103.696C206.319 104.087 206.953 104.087 207.343 103.696L213.707 97.3321ZM92.2266 13.625C91.6743 13.625 91.2266 14.0727 91.2266 14.625C91.2266 15.1773 91.6743 15.625 92.2266 15.625V13.625ZM39.9766 15.625C40.5288 15.625 40.9766 15.1773 40.9766 14.625C40.9766 14.0727 40.5288 13.625 39.9766 13.625V15.625ZM1 13.625C0.447715 13.625 0 14.0727 0 14.625C0 15.1773 0.447715 15.625 1 15.625V13.625ZM213 95.625H181.5V97.625H213V95.625ZM158.5 72.625V38.625H156.5V72.625H158.5ZM133.5 13.625H92.2266V15.625H133.5V13.625ZM39.9766 13.625H1V15.625H39.9766V13.625ZM158.5 38.625C158.5 24.8179 147.307 13.625 133.5 13.625V15.625C146.203 15.625 156.5 25.9225 156.5 38.625H158.5ZM181.5 95.625C168.798 95.625 158.5 85.3276 158.5 72.625H156.5C156.5 86.4321 167.693 97.625 181.5 97.625V95.625Z" fill="#1DBF73"/>
<path d="M46.3355 15.8652L47.4077 15.7715C47.4585 16.2012 47.5757 16.5547 47.7593 16.832C47.9468 17.1055 48.2358 17.3281 48.6265 17.5C49.0171 17.668 49.4565 17.752 49.9448 17.752C50.3784 17.752 50.7612 17.6875 51.0933 17.5586C51.4253 17.4297 51.6714 17.2539 51.8315 17.0312C51.9956 16.8047 52.0776 16.5586 52.0776 16.293C52.0776 16.0234 51.9995 15.7891 51.8433 15.5898C51.687 15.3867 51.4292 15.2168 51.0698 15.0801C50.8394 14.9902 50.3296 14.8516 49.5405 14.6641C48.7515 14.4727 48.1987 14.293 47.8823 14.125C47.4722 13.9102 47.1655 13.6445 46.9624 13.3281C46.7632 13.0078 46.6636 12.6504 46.6636 12.2559C46.6636 11.8223 46.7866 11.418 47.0327 11.043C47.2788 10.6641 47.6382 10.377 48.1108 10.1816C48.5835 9.98633 49.1089 9.88867 49.687 9.88867C50.3237 9.88867 50.8843 9.99219 51.3687 10.1992C51.8569 10.4023 52.2319 10.7031 52.4937 11.1016C52.7554 11.5 52.896 11.9512 52.9155 12.4551L51.8257 12.5371C51.7671 11.9941 51.5679 11.584 51.228 11.3066C50.8921 11.0293 50.394 10.8906 49.7339 10.8906C49.0464 10.8906 48.5444 11.0176 48.228 11.2715C47.9155 11.5215 47.7593 11.8242 47.7593 12.1797C47.7593 12.4883 47.8706 12.7422 48.0933 12.9414C48.312 13.1406 48.8823 13.3457 49.8042 13.5566C50.73 13.7637 51.3647 13.9453 51.7085 14.1016C52.2085 14.332 52.5776 14.625 52.8159 14.9805C53.0542 15.332 53.1733 15.7383 53.1733 16.1992C53.1733 16.6562 53.0425 17.0879 52.7808 17.4941C52.519 17.8965 52.1421 18.2109 51.6499 18.4375C51.1616 18.6602 50.6108 18.7715 49.9976 18.7715C49.2202 18.7715 48.5679 18.6582 48.0405 18.4316C47.5171 18.2051 47.105 17.8652 46.8042 17.4121C46.5073 16.9551 46.3511 16.4395 46.3355 15.8652ZM56.762 17.6816L56.9144 18.6133C56.6175 18.6758 56.3519 18.707 56.1175 18.707C55.7347 18.707 55.4378 18.6465 55.2269 18.5254C55.016 18.4043 54.8675 18.2461 54.7816 18.0508C54.6956 17.8516 54.6527 17.4355 54.6527 16.8027V13.2227H53.8792V12.4023H54.6527V10.8613L55.7015 10.2285V12.4023H56.762V13.2227H55.7015V16.8613C55.7015 17.1621 55.7191 17.3555 55.7542 17.4414C55.7933 17.5273 55.8538 17.5957 55.9359 17.6465C56.0218 17.6973 56.1429 17.7227 56.2992 17.7227C56.4163 17.7227 56.5706 17.709 56.762 17.6816ZM61.9269 16.6211L63.0168 16.7559C62.8449 17.3926 62.5265 17.8867 62.0617 18.2383C61.5968 18.5898 61.0031 18.7656 60.2804 18.7656C59.3703 18.7656 58.6476 18.4863 58.1125 17.9277C57.5812 17.3652 57.3156 16.5781 57.3156 15.5664C57.3156 14.5195 57.5851 13.707 58.1242 13.1289C58.6632 12.5508 59.3625 12.2617 60.2218 12.2617C61.0539 12.2617 61.7336 12.5449 62.2609 13.1113C62.7882 13.6777 63.0519 14.4746 63.0519 15.502C63.0519 15.5645 63.05 15.6582 63.0461 15.7832H58.4054C58.4445 16.4668 58.6379 16.9902 58.9855 17.3535C59.3332 17.7168 59.7668 17.8984 60.2863 17.8984C60.673 17.8984 61.0031 17.7969 61.2765 17.5938C61.55 17.3906 61.7668 17.0664 61.9269 16.6211ZM58.464 14.916H61.9386C61.8918 14.3926 61.759 14 61.5402 13.7383C61.2043 13.332 60.7687 13.1289 60.2336 13.1289C59.7492 13.1289 59.341 13.291 59.009 13.6152C58.6808 13.9395 58.4992 14.373 58.464 14.916ZM64.2148 21.0098V12.4023H65.1758V13.2109C65.4023 12.8945 65.6582 12.6582 65.9434 12.502C66.2285 12.3418 66.5742 12.2617 66.9805 12.2617C67.5117 12.2617 67.9805 12.3984 68.3867 12.6719C68.793 12.9453 69.0996 13.332 69.3066 13.832C69.5137 14.3281 69.6172 14.873 69.6172 15.4668C69.6172 16.1035 69.502 16.6777 69.2715 17.1895C69.0449 17.6973 68.7129 18.0879 68.2754 18.3613C67.8418 18.6309 67.3848 18.7656 66.9043 18.7656C66.5527 18.7656 66.2363 18.6914 65.9551 18.543C65.6777 18.3945 65.4492 18.207 65.2695 17.9805V21.0098H64.2148ZM65.1699 15.5488C65.1699 16.3496 65.332 16.9414 65.6562 17.3242C65.9805 17.707 66.373 17.8984 66.834 17.8984C67.3027 17.8984 67.7031 17.7012 68.0352 17.3066C68.3711 16.9082 68.5391 16.293 68.5391 15.4609C68.5391 14.668 68.375 14.0742 68.0469 13.6797C67.7227 13.2852 67.334 13.0879 66.8809 13.0879C66.4316 13.0879 66.0332 13.2988 65.6855 13.7207C65.3418 14.1387 65.1699 14.748 65.1699 15.5488ZM73.6774 14.3887C73.6774 13.373 73.7809 12.5566 73.988 11.9395C74.1989 11.3184 74.5094 10.8398 74.9196 10.5039C75.3337 10.168 75.8532 10 76.4782 10C76.9391 10 77.3434 10.0938 77.6911 10.2812C78.0387 10.4648 78.3258 10.7324 78.5524 11.084C78.779 11.4316 78.9567 11.8574 79.0856 12.3613C79.2145 12.8613 79.279 13.5371 79.279 14.3887C79.279 15.3965 79.1755 16.2109 78.9684 16.832C78.7614 17.4492 78.4508 17.9277 78.0368 18.2676C77.6266 18.6035 77.1071 18.7715 76.4782 18.7715C75.6501 18.7715 74.9997 18.4746 74.527 17.8809C73.9606 17.166 73.6774 16.002 73.6774 14.3887ZM74.7614 14.3887C74.7614 15.7988 74.9255 16.7383 75.2536 17.207C75.5856 17.6719 75.9938 17.9043 76.4782 17.9043C76.9626 17.9043 77.3688 17.6699 77.6969 17.2012C78.029 16.7324 78.195 15.7949 78.195 14.3887C78.195 12.9746 78.029 12.0352 77.6969 11.5703C77.3688 11.1055 76.9587 10.873 76.4665 10.873C75.9821 10.873 75.5954 11.0781 75.3063 11.4883C74.943 12.0117 74.7614 12.9785 74.7614 14.3887ZM84.1978 18.625H83.1431V11.9043C82.8892 12.1465 82.5552 12.3887 82.1411 12.6309C81.731 12.873 81.3618 13.0547 81.0337 13.1758V12.1562C81.6235 11.8789 82.1392 11.543 82.5806 11.1484C83.022 10.7539 83.3345 10.3711 83.5181 10H84.1978V18.625Z" fill="#013913"/>
</svg>
