<svg width="18" height="18" viewBox="0 0 18 18" fill="none" xmlns="http://www.w3.org/2000/svg">
<g clip-path="url(#clip0_117_393)">
<path d="M18 5.99977C18 6.79777 17.808 7.65352 17.4285 8.54377C17.307 8.82877 17.0303 9.00052 16.7385 9.00052C16.6403 9.00052 16.5405 8.98102 16.4445 8.93977C16.0627 8.77777 15.8858 8.33677 16.0485 7.95577C16.3477 7.25227 16.5 6.59452 16.5 5.99977C16.5 3.96727 14.9543 2.24977 13.125 2.24977C11.4488 2.24977 10.494 2.92852 9.8505 3.52027L6.9825 6.18202C6.71775 6.44752 6.65475 6.89377 6.86025 7.17952C6.9945 7.36627 7.19175 7.47877 7.4145 7.49677C7.63575 7.51702 7.85025 7.43602 8.0055 7.27927L11.1353 4.28302C11.4323 3.99727 11.9085 4.00702 12.1957 4.30627C12.4823 4.60552 12.4717 5.08027 12.1725 5.36677L11.244 6.25552L14.8043 9.38002C15.6383 10.112 15.8438 11.3413 15.282 12.239C14.9362 12.791 14.3715 13.1623 13.7333 13.256C13.6898 13.262 13.647 13.2673 13.6035 13.271C13.6005 13.6573 13.4977 14.0398 13.287 14.3773C12.9412 14.9293 12.3765 15.3005 11.7382 15.3943C11.5995 15.4138 11.4615 15.422 11.3235 15.4153C11.283 15.7018 11.1855 15.9808 11.0273 16.2335C10.6815 16.7855 10.1243 17.2738 9.15825 17.2738C8.628 17.2738 8.1135 17.0825 7.71 16.7278L5.382 14.6398C2.92575 12.4198 0 9.12052 0 5.99977C0 3.10477 2.187 0.749773 4.875 0.749773C5.4945 0.749773 6.09975 0.875773 6.67275 1.12477C7.053 1.28977 7.22775 1.73152 7.06275 2.11102C6.89775 2.49052 6.456 2.66452 6.0765 2.50102C5.6925 2.33452 5.28825 2.25052 4.87425 2.25052C3.045 2.25052 1.49925 3.96802 1.49925 6.00052C1.49925 8.00602 3.234 10.6783 6.3855 13.526L8.706 15.6065C8.85375 15.7363 9.0585 15.7963 9.261 15.767C9.4665 15.737 9.64275 15.6208 9.756 15.4385C9.9285 15.1618 9.843 14.7508 9.56025 14.5033L7.155 12.2165C6.85575 11.9315 6.843 11.4575 7.12725 11.1568C7.41225 10.8568 7.88625 10.844 8.187 11.1275L10.9785 13.763C11.1128 13.88 11.3205 13.9415 11.52 13.91C11.7255 13.88 11.9018 13.763 12.015 13.5815C12.1875 13.3048 12.102 12.8938 11.8193 12.6455L9.14925 10.2283C8.84325 9.95152 8.8185 9.47827 9.0945 9.17152C9.36975 8.86477 9.843 8.83777 10.1512 9.11227L12.9578 11.6098C13.1077 11.7418 13.3133 11.8033 13.515 11.7718C13.7205 11.7418 13.8968 11.6248 14.01 11.4433C14.1825 11.1665 14.097 10.7555 13.8143 10.5073L10.1558 7.29652L9.05325 8.35177C8.598 8.80777 7.95525 9.04477 7.29225 8.99227C6.63375 8.93902 6.0315 8.59777 5.6415 8.05552C5.00775 7.17502 5.136 5.90527 5.94 5.10127L8.83125 2.41777C9.61275 1.70002 10.9042 0.749023 13.1235 0.749023C15.8115 0.749023 17.9985 3.10402 17.9985 5.99902L18 5.99977Z" fill="#013913"/>
</g>
<defs>
<clipPath id="clip0_117_393">
<rect width="18" height="18" fill="white"/>
</clipPath>
</defs>
</svg>
