<svg width="18" height="18" viewBox="0 0 18 18" fill="none" xmlns="http://www.w3.org/2000/svg">
<g clip-path="url(#clip0_426_3397)">
<path d="M17.3407 0.65925C16.4632 -0.21825 15.0367 -0.21825 14.1592 0.65925L9.129 5.6895C8.562 6.25575 8.25 7.0095 8.25 7.8105V9C8.25 9.414 8.58525 9.75 9 9.75H10.1895C10.9905 9.75 11.7442 9.43725 12.3105 8.871L17.3407 3.84075C18.2137 3.003 18.2137 1.497 17.3407 0.65925ZM16.2802 2.78025L11.25 7.8105C10.9665 8.094 10.59 8.25 10.1895 8.25H9.75V7.8105C9.75 7.416 9.9105 7.029 10.1895 6.75L15.2197 1.71975C15.513 1.42725 15.987 1.42725 16.2802 1.71975C16.5712 1.99875 16.5712 2.50125 16.2802 2.78025ZM9 13.5C8.58525 13.5 8.25 13.1648 8.25 12.75C8.25 12.3352 8.58525 12 9 12H11.25C11.6647 12 12 12.3352 12 12.75C12 13.1648 11.6647 13.5 11.25 13.5H9ZM15 10.5V14.25C15 16.3177 13.3177 18 11.25 18H3.75C1.68225 18 0 16.3177 0 14.25V3.75C0 1.68225 1.68225 0 3.75 0H10.5C10.9147 0 11.25 0.336 11.25 0.75C11.25 1.164 10.9147 1.5 10.5 1.5H3.75C2.5095 1.5 1.5 2.5095 1.5 3.75V14.25C1.5 15.4905 2.5095 16.5 3.75 16.5H11.25C12.4905 16.5 13.5 15.4905 13.5 14.25V10.5C13.5 10.0852 13.8352 9.75 14.25 9.75C14.6647 9.75 15 10.0852 15 10.5ZM6.87525 8.75025L5.61 10.0155C5.28675 10.3387 4.86375 10.5015 4.43925 10.5015C4.0395 10.5015 3.63975 10.3568 3.321 10.065L2.81925 9.63075C2.5065 9.35925 2.47275 8.88525 2.7435 8.5725C3.01575 8.25825 3.489 8.22675 3.80175 8.49675L4.3185 8.94525C4.39575 9.015 4.4895 9.01425 4.54875 8.955L5.814 7.68975C6.10725 7.3965 6.58125 7.3965 6.8745 7.68975C7.16775 7.983 7.1685 8.457 6.87525 8.75025ZM6.87525 5.03025L5.61 6.2955C5.28675 6.61875 4.86375 6.7815 4.43925 6.7815C4.0395 6.7815 3.63975 6.63675 3.321 6.345L2.81925 5.91075C2.5065 5.63925 2.47275 5.16525 2.7435 4.8525C3.01575 4.539 3.489 4.50675 3.80175 4.77675L4.3185 5.22525C4.39575 5.29575 4.4895 5.29425 4.54875 5.235L5.814 3.96975C6.10725 3.6765 6.58125 3.6765 6.8745 3.96975C7.16775 4.263 7.1685 4.737 6.87525 5.03025ZM6.87525 11.4398C7.1685 11.733 7.1685 12.207 6.87525 12.5002L5.61 13.7655C5.28675 14.0887 4.86375 14.2515 4.43925 14.2515C4.0395 14.2515 3.63975 14.1068 3.321 13.815L2.81925 13.3807C2.5065 13.1093 2.47275 12.636 2.7435 12.3225C3.01575 12.0098 3.489 11.976 3.80175 12.2467L4.3185 12.6952C4.39575 12.765 4.4895 12.7643 4.54875 12.705L5.814 11.4398C6.10725 11.1465 6.582 11.1465 6.87525 11.4398Z" fill="black"/>
</g>
<defs>
<clipPath id="clip0_426_3397">
<rect width="18" height="18" fill="white"/>
</clipPath>
</defs>
</svg>
