<svg width="18" height="18" viewBox="0 0 18 18" fill="none" xmlns="http://www.w3.org/2000/svg">
<path d="M14.25 1.5H3.75C1.68225 1.5 0 3.18225 0 5.25V12.75C0 14.8178 1.68225 16.5 3.75 16.5H14.25C16.3177 16.5 18 14.8178 18 12.75V5.25C18 3.18225 16.3177 1.5 14.25 1.5ZM1.5 12.75V5.25C1.5 4.0095 2.5095 3 3.75 3H6.75V15H3.75C2.5095 15 1.5 13.9905 1.5 12.75ZM16.5 12.75C16.5 13.9905 15.4905 15 14.25 15H8.25V3H14.25C15.4905 3 16.5 4.0095 16.5 5.25V12.75ZM5.25 8.25C5.25 8.66475 4.91475 9 4.5 9H3.75C3.33525 9 3 8.66475 3 8.25C3 7.83525 3.33525 7.5 3.75 7.5H4.5C4.91475 7.5 5.25 7.83525 5.25 8.25ZM5.25 11.25C5.25 11.6648 4.91475 12 4.5 12H3.75C3.33525 12 3 11.6648 3 11.25C3 10.8353 3.33525 10.5 3.75 10.5H4.5C4.91475 10.5 5.25 10.8353 5.25 11.25ZM3 5.25C3 4.83525 3.33525 4.5 3.75 4.5H4.5C4.91475 4.5 5.25 4.83525 5.25 5.25C5.25 5.66475 4.91475 6 4.5 6H3.75C3.33525 6 3 5.66475 3 5.25Z" fill="black"/>
</svg>
