<svg width="18" height="18" viewBox="0 0 18 18" fill="none" xmlns="http://www.w3.org/2000/svg">
<g clip-path="url(#clip0_235_175)">
<path d="M12.75 5.9998H5.25V5.2498C5.24977 4.41835 5.52587 3.6104 6.03489 2.95298C6.54391 2.29556 7.25698 1.82594 8.062 1.61797C8.86701 1.40999 9.71832 1.47546 10.4821 1.80406C11.2458 2.13267 11.8787 2.70578 12.2812 3.4333C12.3291 3.51943 12.3934 3.5953 12.4705 3.65657C12.5477 3.71785 12.6361 3.76333 12.7308 3.79042C12.8255 3.81752 12.9247 3.82569 13.0225 3.81447C13.1204 3.80325 13.2151 3.77287 13.3013 3.72505C13.3874 3.67723 13.4632 3.61292 13.5245 3.53578C13.5858 3.45864 13.6313 3.37019 13.6584 3.27547C13.6855 3.18076 13.6936 3.08163 13.6824 2.98376C13.6712 2.88589 13.6408 2.79118 13.593 2.70505C13.0292 1.68679 12.143 0.884739 11.0738 0.424985C10.0045 -0.0347695 8.81277 -0.126163 7.6859 0.165171C6.55903 0.456505 5.56092 1.11405 4.84847 2.03444C4.13602 2.95483 3.74961 4.08588 3.75 5.2498V6.3178C3.08202 6.60933 2.51347 7.08919 2.11387 7.69871C1.71428 8.30822 1.50096 9.02098 1.5 9.7498V14.2498C1.50119 15.244 1.89666 16.1971 2.59966 16.9001C3.30267 17.6031 4.2558 17.9986 5.25 17.9998H12.75C13.7442 17.9986 14.6973 17.6031 15.4003 16.9001C16.1033 16.1971 16.4988 15.244 16.5 14.2498V9.7498C16.4988 8.7556 16.1033 7.80247 15.4003 7.09946C14.6973 6.39646 13.7442 6.00099 12.75 5.9998ZM15 14.2498C15 14.8465 14.7629 15.4188 14.341 15.8408C13.919 16.2627 13.3467 16.4998 12.75 16.4998H5.25C4.65326 16.4998 4.08097 16.2627 3.65901 15.8408C3.23705 15.4188 3 14.8465 3 14.2498V9.7498C3 9.15306 3.23705 8.58077 3.65901 8.15881C4.08097 7.73685 4.65326 7.4998 5.25 7.4998H12.75C13.3467 7.4998 13.919 7.73685 14.341 8.15881C14.7629 8.58077 15 9.15306 15 9.7498V14.2498Z" fill="white"/>
<path d="M9 10.5C8.80109 10.5 8.61032 10.579 8.46967 10.7197C8.32902 10.8603 8.25 11.0511 8.25 11.25V12.75C8.25 12.9489 8.32902 13.1397 8.46967 13.2803C8.61032 13.421 8.80109 13.5 9 13.5C9.19891 13.5 9.38968 13.421 9.53033 13.2803C9.67098 13.1397 9.75 12.9489 9.75 12.75V11.25C9.75 11.0511 9.67098 10.8603 9.53033 10.7197C9.38968 10.579 9.19891 10.5 9 10.5Z" fill="white"/>
</g>
<defs>
<clipPath id="clip0_235_175">
<rect width="18" height="18" fill="white"/>
</clipPath>
</defs>
</svg>
