<svg width="32" height="32" viewBox="0 0 32 32" fill="none" xmlns="http://www.w3.org/2000/svg">
<path d="M8 4C5.80671 4 4 5.80671 4 8V24C4 26.1933 5.80671 28 8 28H24C26.1933 28 28 26.1933 28 24V8C28 5.80671 26.1933 4 24 4H8ZM8 6.66667H24C24.7534 6.66667 25.3333 7.24663 25.3333 8V24C25.3333 24.7534 24.7534 25.3333 24 25.3333H8C7.24663 25.3333 6.66667 24.7534 6.66667 24V8C6.66667 7.24663 7.24663 6.66667 8 6.66667ZM8.9349 9.33333L14.1901 16.8437L9.20833 22.6667H10.9844L14.987 17.9792L18.263 22.6667H23.3828L17.8021 14.6797L22.3646 9.33333H20.6172L17.013 13.5469L14.0703 9.33333H8.9349ZM11.4219 10.651H13.4036L20.9115 21.349H18.9167L11.4219 10.651Z" fill="url(#paint0_linear_235_108)"/>
<defs>
<linearGradient id="paint0_linear_235_108" x1="4" y1="16" x2="28" y2="16" gradientUnits="userSpaceOnUse">
<stop stop-color="#1DBF73"/>
<stop offset="1" stop-color="#013913"/>
</linearGradient>
</defs>
</svg>
