<svg width="32" height="32" viewBox="0 0 32 32" fill="none" xmlns="http://www.w3.org/2000/svg">
<path d="M15.9998 5.33301C15.9998 5.33301 7.66057 5.33297 5.58057 5.8903C4.43257 6.19697 3.53046 7.1004 3.2238 8.24707C2.66646 10.3271 2.6665 15.9997 2.6665 15.9997C2.6665 15.9997 2.66646 21.6723 3.2238 23.7523C3.53046 24.9003 4.4339 25.8024 5.58057 26.1091C7.66057 26.6664 15.9998 26.6663 15.9998 26.6663C15.9998 26.6663 24.3391 26.6664 26.4191 26.1091C27.5658 25.8024 28.4692 24.8989 28.7759 23.7523C29.3332 21.6723 29.3332 15.9997 29.3332 15.9997C29.3332 15.9997 29.3332 10.3271 28.7759 8.24707C28.4692 7.1004 27.5658 6.19697 26.4191 5.8903C24.3391 5.33297 15.9998 5.33301 15.9998 5.33301ZM15.9998 7.99967C19.8425 7.99967 24.6543 8.17782 25.729 8.46582C25.9543 8.52582 26.139 8.71051 26.2004 8.93717C26.5217 10.1345 26.6665 13.789 26.6665 15.9997C26.6665 18.2103 26.5217 21.8635 26.2004 23.0622C26.1404 23.2875 25.9557 23.4722 25.729 23.5335C24.6557 23.8215 19.8425 23.9997 15.9998 23.9997C12.1585 23.9997 7.34667 23.8215 6.27067 23.5335C6.04534 23.4735 5.86065 23.2888 5.79932 23.0622C5.47798 21.8648 5.33317 18.2103 5.33317 15.9997C5.33317 13.789 5.47798 10.1346 5.79932 8.93457C5.85932 8.71057 6.044 8.52582 6.27067 8.46582C7.344 8.17782 12.1572 7.99967 15.9998 7.99967ZM13.3332 11.3799V20.6195L21.3332 15.9997L13.3332 11.3799Z" fill="url(#paint0_linear_235_110)"/>
<defs>
<linearGradient id="paint0_linear_235_110" x1="2.6665" y1="15.9997" x2="29.3332" y2="15.9997" gradientUnits="userSpaceOnUse">
<stop stop-color="#1DBF73"/>
<stop offset="1" stop-color="#013913"/>
</linearGradient>
</defs>
</svg>
