<svg width="66" height="39" viewBox="0 0 66 39" fill="none" xmlns="http://www.w3.org/2000/svg">
<path d="M26.7812 7.03125C26.75 7.17708 26.6823 7.29167 26.5781 7.375C26.474 7.45833 26.3594 7.5 26.2344 7.5C26.0469 7.5 25.8958 7.44271 25.7812 7.32812C25.6667 7.20312 25.6094 7.0625 25.6094 6.90625C25.6094 6.75 25.625 6.59896 25.6562 6.45312C25.6875 6.29688 25.7031 6.14583 25.7031 6C25.7031 5.23958 25.4688 4.55729 25 3.95312C24.5312 3.34896 23.8646 2.84375 23 2.4375C22.1458 2.02083 21.1042 1.70312 19.875 1.48438C18.6458 1.26562 17.276 1.15625 15.7656 1.15625C14.6094 1.15625 13.4427 1.23438 12.2656 1.39062C11.099 1.53646 9.97396 1.75521 8.89062 2.04688C7.81771 2.32812 6.8125 2.6875 5.875 3.125C4.9375 3.55208 4.11979 4.05208 3.42188 4.625C2.73438 5.1875 2.19271 5.81771 1.79688 6.51562C1.40104 7.20312 1.20312 7.95833 1.20312 8.78125C1.20312 9.41667 1.33854 9.97917 1.60938 10.4688C1.89062 10.9479 2.27083 11.3698 2.75 11.7344C3.22917 12.0885 3.79167 12.3958 4.4375 12.6562C5.09375 12.9062 5.80208 13.1198 6.5625 13.2969C7.32292 13.4635 8.11458 13.6042 8.9375 13.7188C9.76042 13.8229 10.5885 13.9115 11.4219 13.9844L13.8281 14.1875C15.026 14.2917 16.099 14.401 17.0469 14.5156C17.9948 14.6302 18.8281 14.776 19.5469 14.9531C20.7448 15.2552 21.6302 15.6875 22.2031 16.25C22.776 16.8125 23.0625 17.5625 23.0625 18.5C23.0625 19.4062 22.8125 20.2031 22.3125 20.8906C21.8125 21.5781 21.1302 22.1562 20.2656 22.625C19.401 23.0938 18.3906 23.4479 17.2344 23.6875C16.0781 23.9271 14.8385 24.0469 13.5156 24.0469C12.0781 24.0469 10.8125 23.9479 9.71875 23.75C8.63542 23.5625 7.72396 23.3542 6.98438 23.125C6.25521 22.8854 5.69792 22.6667 5.3125 22.4688C4.92708 22.2708 4.71875 22.1615 4.6875 22.1406C4.5 22.0365 4.40625 21.8698 4.40625 21.6406C4.40625 21.4635 4.46875 21.3229 4.59375 21.2188C4.71875 21.1042 4.85417 21.0469 5 21.0469C5.11458 21.0469 5.21875 21.0781 5.3125 21.1406C5.32292 21.1406 5.5 21.2344 5.84375 21.4219C6.19792 21.599 6.71875 21.7969 7.40625 22.0156C8.10417 22.2344 8.96354 22.4323 9.98438 22.6094C11.0052 22.7865 12.1927 22.875 13.5469 22.875C14.8906 22.875 16.0781 22.7656 17.1094 22.5469C18.1406 22.3281 19.0052 22.026 19.7031 21.6406C20.4115 21.2448 20.9427 20.7865 21.2969 20.2656C21.6615 19.7344 21.8438 19.1615 21.8438 18.5469C21.8438 18.1823 21.776 17.8698 21.6406 17.6094C21.5156 17.3385 21.3385 17.1094 21.1094 16.9219C20.8802 16.724 20.6042 16.5573 20.2812 16.4219C19.9688 16.2865 19.625 16.1719 19.25 16.0781C18.8542 15.974 18.4271 15.8854 17.9688 15.8125C17.5208 15.7396 17.0573 15.6771 16.5781 15.625C16.099 15.5729 15.6146 15.526 15.125 15.4844C14.6458 15.4427 14.1719 15.401 13.7031 15.3594L11.2969 15.1562C9.40104 15 7.74479 14.7604 6.32812 14.4375C4.92188 14.1042 3.75 13.6823 2.8125 13.1719C1.875 12.651 1.17188 12.0312 0.703125 11.3125C0.234375 10.5938 0 9.75521 0 8.79688C0 7.81771 0.21875 6.92188 0.65625 6.10938C1.10417 5.28646 1.70833 4.54688 2.46875 3.89062C3.23958 3.23438 4.13542 2.66667 5.15625 2.1875C6.1875 1.69792 7.28646 1.29167 8.45312 0.96875C9.61979 0.645833 10.8281 0.40625 12.0781 0.25C13.3281 0.0833333 14.5573 0 15.7656 0C17.276 0 18.5885 0.09375 19.7031 0.28125C20.8281 0.458333 21.7865 0.692708 22.5781 0.984375C23.3802 1.26562 24.0365 1.58854 24.5469 1.95312C25.0573 2.31771 25.4688 2.67708 25.7812 3.03125C26.5208 3.89583 26.8906 4.88021 26.8906 5.98438C26.8906 6.34896 26.8542 6.69792 26.7812 7.03125ZM40.3125 7.79688C40.3125 7.96354 40.2552 8.09896 40.1406 8.20312C40.026 8.29688 39.8854 8.34375 39.7188 8.34375H31.7969V8.51562C31.7969 9.15104 31.75 9.82812 31.6562 10.5469C31.5625 11.2656 31.4323 11.9844 31.2656 12.7031C31.1094 13.4115 30.9271 14.1042 30.7188 14.7812C30.5208 15.4583 30.3125 16.0833 30.0938 16.6562C29.8854 17.2292 29.6771 17.7292 29.4688 18.1562C29.2604 18.5729 29.0729 18.8854 28.9062 19.0938C29.0417 19.5729 29.2031 20.0208 29.3906 20.4375C29.5781 20.8438 29.7865 21.2031 30.0156 21.5156C30.2552 21.8177 30.5104 22.0573 30.7812 22.2344C31.0521 22.4115 31.3438 22.5 31.6562 22.5C32.0208 22.5 32.3802 22.349 32.7344 22.0469C33.099 21.7344 33.4323 21.3698 33.7344 20.9531C34.0469 20.526 34.3177 20.099 34.5469 19.6719C34.7865 19.2344 34.9583 18.8854 35.0625 18.625C35.1667 18.375 35.349 18.25 35.6094 18.25C35.7865 18.25 35.9271 18.3125 36.0312 18.4375C36.1458 18.5625 36.2031 18.6979 36.2031 18.8438C36.2031 18.9167 36.1875 18.9896 36.1562 19.0625C36.125 19.1354 36.0469 19.3021 35.9219 19.5625C35.8073 19.8229 35.651 20.125 35.4531 20.4688C35.2656 20.8125 35.0417 21.1771 34.7812 21.5625C34.5312 21.9375 34.2448 22.2812 33.9219 22.5938C33.6094 22.9062 33.2708 23.1667 32.9062 23.375C32.5417 23.5833 32.1562 23.6875 31.75 23.6875C31.0312 23.6875 30.3854 23.4531 29.8125 22.9844C29.2396 22.5156 28.75 21.8594 28.3438 21.0156C27.9479 20.1719 27.6458 19.1719 27.4375 18.0156C27.2292 16.8594 27.125 15.5938 27.125 14.2188C27.125 13.875 27.1302 13.474 27.1406 13.0156C27.151 12.5469 27.1719 12.0573 27.2031 11.5469C27.2344 11.026 27.2812 10.4948 27.3438 9.95312C27.4062 9.40104 27.4896 8.86458 27.5938 8.34375H21.9844C21.8177 8.34375 21.6771 8.29688 21.5625 8.20312C21.4479 8.09896 21.3906 7.96354 21.3906 7.79688C21.3906 7.63021 21.4479 7.5 21.5625 7.40625C21.6771 7.30208 21.8177 7.25 21.9844 7.25H27.8594C27.9635 6.875 28.0833 6.53125 28.2188 6.21875C28.3646 5.90625 28.526 5.63542 28.7031 5.40625C28.8906 5.17708 29.0938 5 29.3125 4.875C29.5417 4.73958 29.7917 4.67188 30.0625 4.67188C30.3229 4.67188 30.5469 4.73958 30.7344 4.875C30.9323 5 31.099 5.17708 31.2344 5.40625C31.3698 5.63542 31.474 5.90625 31.5469 6.21875C31.6302 6.53125 31.6927 6.875 31.7344 7.25H39.7188C39.8854 7.25 40.026 7.30208 40.1406 7.40625C40.2552 7.5 40.3125 7.63021 40.3125 7.79688ZM28.5469 17.5312C28.8594 16.8438 29.1406 16.1042 29.3906 15.3125C29.651 14.5104 29.8698 13.7031 30.0469 12.8906C30.2344 12.0781 30.375 11.2812 30.4688 10.5C30.5729 9.71875 30.625 9 30.625 8.34375H28.7812C28.6354 8.98958 28.5156 9.79167 28.4219 10.75C28.3385 11.6979 28.2969 12.8542 28.2969 14.2188C28.2969 14.9792 28.3177 15.6198 28.3594 16.1406C28.401 16.651 28.4635 17.1146 28.5469 17.5312ZM30 5.84375C29.9062 5.84375 29.7708 5.94792 29.5938 6.15625C29.4167 6.35417 29.2396 6.71875 29.0625 7.25H30.5625C30.5104 6.8125 30.4323 6.46875 30.3281 6.21875C30.2344 5.96875 30.125 5.84375 30 5.84375ZM28.7969 18.6562V18.6719V18.6562ZM42.3281 21.7188C42.0677 21.7188 41.8385 21.6979 41.6406 21.6562C41.4844 21.9688 41.2969 22.2604 41.0781 22.5312C40.8594 22.7917 40.6042 23.0208 40.3125 23.2188C40.0312 23.4167 39.7135 23.5729 39.3594 23.6875C39.0052 23.8021 38.6198 23.8594 38.2031 23.8594C37.7135 23.8594 37.2656 23.7708 36.8594 23.5938C36.4531 23.4271 36.099 23.1927 35.7969 22.8906C35.4948 22.5781 35.2604 22.2083 35.0938 21.7812C34.9271 21.3438 34.8438 20.8646 34.8438 20.3438C34.8438 19.6771 34.9635 19.099 35.2031 18.6094C35.4427 18.1094 35.7188 17.6979 36.0312 17.375C36.3438 17.0417 36.6562 16.7969 36.9688 16.6406C37.2812 16.474 37.5156 16.3906 37.6719 16.3906C37.849 16.3906 37.9792 16.4375 38.0625 16.5312C38.1562 16.625 38.2031 16.75 38.2031 16.9062C38.2031 17.0833 38.1458 17.2188 38.0312 17.3125C37.9271 17.3958 37.7917 17.4792 37.625 17.5625C37.4583 17.6458 37.2812 17.7656 37.0938 17.9219C36.9062 18.0677 36.7292 18.2552 36.5625 18.4844C36.4062 18.7135 36.276 18.9844 36.1719 19.2969C36.0677 19.6094 36.0156 19.9583 36.0156 20.3438C36.0156 20.6875 36.0677 21.0104 36.1719 21.3125C36.276 21.6042 36.4271 21.8594 36.625 22.0781C36.8229 22.2865 37.0573 22.4531 37.3281 22.5781C37.599 22.6927 37.901 22.75 38.2344 22.75C38.8281 22.75 39.3177 22.6146 39.7031 22.3438C40.099 22.0625 40.401 21.7083 40.6094 21.2812C39.9948 20.9583 39.4896 20.5 39.0938 19.9062C38.6979 19.3125 38.5 18.6458 38.5 17.9062C38.5 17.3125 38.6406 16.8281 38.9219 16.4531C39.2135 16.0781 39.5938 15.8906 40.0625 15.8906C40.3438 15.8906 40.6094 15.9583 40.8594 16.0938C41.1094 16.2292 41.3281 16.4427 41.5156 16.7344C41.7135 17.026 41.8698 17.401 41.9844 17.8594C42.099 18.3177 42.1562 18.8646 42.1562 19.5C42.1562 19.8333 42.1146 20.1823 42.0312 20.5469C42.0938 20.5573 42.1562 20.5625 42.2188 20.5625C42.2812 20.5625 42.349 20.5625 42.4219 20.5625C42.776 20.5625 43.0938 20.5208 43.375 20.4375C43.6562 20.3542 43.9115 20.2292 44.1406 20.0625C44.3698 19.8958 44.5729 19.6823 44.75 19.4219C44.9375 19.1615 45.1146 18.8594 45.2812 18.5156C45.3125 18.4531 45.3802 18.3958 45.4844 18.3438C45.5885 18.2812 45.6927 18.25 45.7969 18.25C45.9323 18.25 46.0573 18.3073 46.1719 18.4219C46.2969 18.526 46.3594 18.6667 46.3594 18.8438C46.3594 18.9271 46.3385 19.0208 46.2969 19.125C46.2552 19.2188 46.2135 19.3073 46.1719 19.3906C45.9948 19.7031 45.7865 20.0052 45.5469 20.2969C45.3177 20.5781 45.0417 20.8281 44.7188 21.0469C44.4062 21.2552 44.0521 21.4219 43.6562 21.5469C43.2604 21.6719 42.8177 21.7292 42.3281 21.7188ZM39.6562 17.7812C39.6562 17.9792 39.6823 18.1875 39.7344 18.4062C39.7865 18.625 39.8646 18.8438 39.9688 19.0625C40.0833 19.2708 40.2188 19.474 40.375 19.6719C40.5417 19.8594 40.7344 20.0208 40.9531 20.1562C40.9844 19.9375 41 19.724 41 19.5156C41 19.2344 40.9792 18.9479 40.9375 18.6562C40.8958 18.3646 40.8333 18.099 40.75 17.8594C40.6771 17.6094 40.5833 17.4115 40.4688 17.2656C40.3542 17.1094 40.2188 17.0312 40.0625 17.0312C40 17.0312 39.9167 17.0781 39.8125 17.1719C39.7083 17.2656 39.6562 17.4688 39.6562 17.7812ZM46.8906 17.0156C46.849 17.2969 46.7969 17.5625 46.7344 17.8125C46.6719 18.0521 46.6094 18.2656 46.5469 18.4531C46.4948 18.6302 46.4479 18.776 46.4062 18.8906C46.3646 19.0052 46.3385 19.0677 46.3281 19.0781C46.224 19.3177 46.0417 19.4375 45.7812 19.4375C45.6354 19.4375 45.5 19.3854 45.375 19.2812C45.25 19.1667 45.1875 19.026 45.1875 18.8594C45.1875 18.7969 45.1979 18.75 45.2188 18.7188C45.2396 18.6875 45.2708 18.625 45.3125 18.5312C45.3542 18.4375 45.4062 18.2812 45.4688 18.0625C45.5312 17.8438 45.6094 17.5052 45.7031 17.0469C45.526 17.0469 45.3438 17.0417 45.1562 17.0312C44.9688 17.0208 44.7969 16.9844 44.6406 16.9219C44.474 16.8594 44.3385 16.7604 44.2344 16.625C44.1302 16.4896 44.0781 16.3021 44.0781 16.0625C44.0781 15.8854 44.1302 15.6458 44.2344 15.3438C44.3281 15.0417 44.4583 14.7448 44.625 14.4531C44.7917 14.1615 44.9792 13.9115 45.1875 13.7031C45.3958 13.4844 45.6042 13.375 45.8125 13.375C46.0521 13.375 46.2448 13.4635 46.3906 13.6406C46.5469 13.8177 46.6667 14.0365 46.75 14.2969C46.8333 14.5469 46.8906 14.8125 46.9219 15.0938C46.9635 15.375 46.9844 15.6198 46.9844 15.8281C47.1615 15.8281 47.3333 15.8281 47.5 15.8281C47.6771 15.8177 47.8438 15.8125 48 15.8125C48.5938 15.8125 49.0469 15.9427 49.3594 16.2031C49.6719 16.4635 49.8281 16.8906 49.8281 17.4844C49.8281 17.724 49.8125 17.974 49.7812 18.2344C49.75 18.4948 49.7135 18.7656 49.6719 19.0469C49.6302 19.3177 49.5938 19.5885 49.5625 19.8594C49.5312 20.1302 49.5156 20.3958 49.5156 20.6562C49.5156 21.0312 49.5677 21.3438 49.6719 21.5938C49.776 21.8333 49.9062 22.026 50.0625 22.1719C50.2188 22.3177 50.3854 22.4219 50.5625 22.4844C50.7396 22.5365 50.901 22.5625 51.0469 22.5625C51.4948 22.5625 51.9167 22.4167 52.3125 22.125C52.7083 21.8333 53.0729 21.4844 53.4062 21.0781C53.7396 20.6615 54.0365 20.224 54.2969 19.7656C54.5677 19.3073 54.7917 18.9062 54.9688 18.5625C55.0208 18.4688 55.0938 18.3958 55.1875 18.3438C55.2812 18.2917 55.3802 18.2656 55.4844 18.2656C55.6719 18.2656 55.8177 18.3281 55.9219 18.4531C56.026 18.5677 56.0781 18.6979 56.0781 18.8438C56.0781 18.9479 56.0573 19.0417 56.0156 19.125C55.776 19.5521 55.4948 20.0365 55.1719 20.5781C54.8594 21.1094 54.5 21.6094 54.0938 22.0781C53.6875 22.5469 53.2292 22.9427 52.7188 23.2656C52.2188 23.5885 51.6667 23.75 51.0625 23.75C50.6875 23.75 50.3333 23.6771 50 23.5312C49.6667 23.3958 49.375 23.1979 49.125 22.9375C48.8854 22.6667 48.6927 22.3385 48.5469 21.9531C48.401 21.5573 48.3281 21.1146 48.3281 20.625C48.3281 20.1042 48.3802 19.5885 48.4844 19.0781C48.5885 18.5573 48.6406 18.0625 48.6406 17.5938C48.6406 17.3958 48.5938 17.25 48.5 17.1562C48.4167 17.0521 48.224 17 47.9219 17C47.776 17 47.6146 17 47.4375 17C47.2708 17 47.0885 17.0052 46.8906 17.0156ZM45.8438 15.8594C45.8438 15.7865 45.8385 15.6927 45.8281 15.5781C45.8281 15.4531 45.8177 15.3333 45.7969 15.2188C45.7865 15.1042 45.7656 15.0052 45.7344 14.9219C45.7135 14.8385 45.6875 14.7969 45.6562 14.7969C45.625 14.7969 45.5833 14.8385 45.5312 14.9219C45.4896 14.9948 45.4427 15.0885 45.3906 15.2031C45.3385 15.3073 45.2917 15.4219 45.25 15.5469C45.2083 15.6719 45.1771 15.776 45.1562 15.8594H45.8438ZM60.7812 23.6562C61.1458 23.2917 61.5156 22.9219 61.8906 22.5469C62.2656 22.1615 62.6302 21.7604 62.9844 21.3438C63.3385 20.9271 63.6667 20.4948 63.9688 20.0469C64.2812 19.5885 64.5573 19.1042 64.7969 18.5938C64.849 18.4792 64.9219 18.3958 65.0156 18.3438C65.1094 18.2812 65.2135 18.25 65.3281 18.25C65.5052 18.25 65.6458 18.3125 65.75 18.4375C65.8646 18.5625 65.9219 18.7031 65.9219 18.8594C65.9219 18.9427 65.9062 19.0208 65.875 19.0938C65.5521 19.7708 65.1823 20.3906 64.7656 20.9531C64.349 21.5156 63.9115 22.0521 63.4531 22.5625C62.9948 23.0625 62.5312 23.5469 62.0625 24.0156C61.5938 24.4948 61.1458 24.974 60.7188 25.4531C60.6771 26.1719 60.6771 26.8906 60.7188 27.6094C60.7604 28.3385 60.7812 29.1094 60.7812 29.9219C60.7812 30.5885 60.7604 31.2552 60.7188 31.9219C60.6771 32.5885 60.6094 33.224 60.5156 33.8281C60.4219 34.4427 60.2917 35.0156 60.125 35.5469C59.9688 36.0781 59.7656 36.5365 59.5156 36.9219C59.2656 37.3177 58.974 37.625 58.6406 37.8438C58.3073 38.0729 57.9167 38.1875 57.4688 38.1875C56.7292 38.1875 56.1615 37.9323 55.7656 37.4219C55.3698 36.9115 55.1719 36.1979 55.1719 35.2812C55.1719 34.7812 55.224 34.2448 55.3281 33.6719C55.4427 33.099 55.599 32.5052 55.7969 31.8906C55.9948 31.2865 56.2292 30.6719 56.5 30.0469C56.7812 29.4219 57.0833 28.8125 57.4062 28.2188C57.7292 27.625 58.0729 27.0573 58.4375 26.5156C58.8021 25.9844 59.1719 25.5 59.5469 25.0625C59.5677 24.5625 59.5885 24.0417 59.6094 23.5C59.6406 22.9688 59.6719 22.474 59.7031 22.0156C59.4323 22.4948 59.0938 22.8802 58.6875 23.1719C58.2917 23.4635 57.8542 23.6094 57.375 23.6094C56.5833 23.6094 55.9635 23.3438 55.5156 22.8125C55.0677 22.2812 54.8438 21.5521 54.8438 20.625C54.8438 19.9479 54.9062 19.3333 55.0312 18.7812C55.1667 18.2188 55.3073 17.7396 55.4531 17.3438C55.6094 16.9375 55.75 16.6302 55.875 16.4219C56 16.2031 56.0625 16.099 56.0625 16.1094C56.1771 15.9323 56.3385 15.8438 56.5469 15.8438C56.724 15.8438 56.8646 15.9062 56.9688 16.0312C57.0833 16.1458 57.1406 16.2812 57.1406 16.4375C57.1406 16.5521 57.1094 16.6562 57.0469 16.75C57.0573 16.7396 57.0052 16.8281 56.8906 17.0156C56.7865 17.1927 56.6667 17.4531 56.5312 17.7969C56.4062 18.1406 56.2865 18.5521 56.1719 19.0312C56.0677 19.5104 56.0156 20.0365 56.0156 20.6094C56.0156 21.1823 56.1198 21.6302 56.3281 21.9531C56.5365 22.276 56.875 22.4375 57.3438 22.4375C57.9375 22.4375 58.474 22 58.9531 21.125C59.4323 20.2396 59.8385 18.9583 60.1719 17.2812C60.1927 17.1458 60.2552 17.0365 60.3594 16.9531C60.4635 16.8594 60.5885 16.8125 60.7344 16.8125C60.901 16.8125 61.0417 16.8698 61.1562 16.9844C61.2708 17.099 61.3281 17.2396 61.3281 17.4062C61.3281 17.4375 61.3073 17.625 61.2656 17.9688C61.224 18.3021 61.1719 18.75 61.1094 19.3125C61.0573 19.875 61 20.5312 60.9375 21.2812C60.875 22.0208 60.8229 22.8125 60.7812 23.6562ZM59.5312 26.9688C59.0625 27.6458 58.6302 28.3594 58.2344 29.1094C57.849 29.8594 57.5156 30.6042 57.2344 31.3438C56.9531 32.0833 56.7344 32.7917 56.5781 33.4688C56.4219 34.1458 56.3438 34.75 56.3438 35.2812C56.3438 35.8229 56.4323 36.2448 56.6094 36.5469C56.7865 36.8594 57.0677 37.0156 57.4531 37.0156C57.7969 37.0156 58.099 36.8438 58.3594 36.5C58.6302 36.1667 58.8542 35.6875 59.0312 35.0625C59.2188 34.4375 59.3594 33.6771 59.4531 32.7812C59.5469 31.8958 59.5938 30.901 59.5938 29.7969C59.5938 29.349 59.5833 28.8958 59.5625 28.4375C59.5521 27.9792 59.5417 27.4896 59.5312 26.9688Z" fill="white"/>
</svg>
